<svg width="232" height="199" viewBox="0 0 232 199" fill="none" xmlns="http://www.w3.org/2000/svg">
<path fill-rule="evenodd" clip-rule="evenodd" d="M0.223145 71.9927L0.259581 72.0348C0.888112 71.6952 1.43466 70.936 1.95046 70.4425C3.13238 69.3095 5.6112 67.0628 6.61207 66.0073C7.53437 65.035 8.69464 64.0662 9.51674 63.2307L11.1803 61.5779C11.3602 61.4024 11.4707 61.3465 11.6414 61.1847C11.8157 61.0194 11.6938 61.1231 11.8202 60.9863C11.9739 60.8199 11.8305 60.9533 12.0104 60.7982C12.3861 60.4757 12.4601 60.3377 12.8154 59.9958L17.8311 55.1594C18.1636 54.8688 18.3446 54.6659 18.6532 54.3684L26.6009 46.7781C26.7911 46.5969 26.7569 46.5752 26.9698 46.3917L29.4942 43.9901C30.2879 43.1933 31.1156 42.2917 32.0004 41.5702L33.6115 39.9607C33.9315 39.6404 34.1877 39.4865 34.5134 39.1571L36.5868 37.1544C36.6904 37.0564 36.8077 36.9128 36.9614 36.7748L38.6295 35.1266C38.9347 34.8314 39.1727 34.6832 39.4835 34.3698L46.1184 27.9331C46.2892 27.7678 46.4099 27.6937 46.5682 27.5261C47.4939 26.5493 48.6314 25.6021 49.4728 24.7495L52.7703 21.5135C53.0664 21.2274 53.3112 21.021 53.5697 20.719C54.0934 20.9401 61.9763 29.2405 63.0671 30.3495C64.6532 31.9613 66.1801 33.54 67.8118 35.1722L72.4643 39.9938C73.1908 40.8521 74.0686 41.6238 74.8646 42.4239L79.5432 47.2181C82.7394 50.4017 85.7352 53.6913 88.9234 56.8795C89.717 57.6728 90.5095 58.465 91.2929 59.2458C91.7381 59.6903 92.0353 60.0893 92.4759 60.5258C92.8938 60.9373 93.24 61.3066 93.6624 61.709C94.4765 62.4829 95.2986 63.3184 95.9875 64.1198C96.6707 64.9131 97.5566 65.7087 98.3456 66.4975C99.1666 67.3193 99.8532 68.0967 100.667 68.9128C101.886 70.1313 104.39 72.8327 105.403 73.7458C106.252 74.5129 107.003 75.3427 107.723 76.1622C108.288 76.8028 108.95 77.3146 109.533 77.9506C109.745 78.182 109.85 78.3188 110.077 78.5445C110.76 79.2261 112.882 81.5754 113.635 82.1852C114.002 82.4815 115.317 82.3345 115.875 82.3345H134.905C137.379 82.3345 142.227 82.4701 144.404 82.3163L150.453 74.7511C150.973 74.0763 151.463 73.5166 151.968 72.8544L154.999 69.0655C155.487 68.4329 155.967 67.9075 156.484 67.2361L182.158 35.2133C182.464 34.8212 182.621 34.6297 182.924 34.2752C184.643 32.2679 186.512 29.807 188.192 27.7017C188.712 27.052 189.165 26.49 189.708 25.8061L191.991 22.9736C192.197 22.7171 192.436 22.2942 192.756 22.0902C193.57 22.8778 196.739 27.3666 197.604 28.4574C199.267 30.5547 200.748 32.701 202.381 34.7642C204.854 37.8873 207.136 41.0903 209.553 44.2671L219.103 56.8863C220.382 58.6029 230.814 72.1933 230.953 72.688L231.114 72.6333C230.432 71.1207 229.601 69.5819 228.849 68.0762L199.179 9.06178C198.083 6.86415 195.487 1.90924 194.674 0L69.3866 15.3537L65.0802 11.4657C64.8866 11.2845 64.6999 11.1762 64.5086 10.9904L59.7479 6.65784C58.9008 5.97621 57.9546 4.97999 57.1245 4.26416L56.0838 3.31467C55.8629 3.13344 55.7228 3.02857 55.5122 2.8405L53.4296 0.944932C53.1848 0.688467 52.6462 0.1459 52.3434 0.0512931L47.4256 6.77638C46.8893 7.50361 46.3017 8.28212 45.7939 9.02872L42.5317 13.5334C41.4078 15.0197 40.3569 16.5346 39.2729 18.046C37.0764 21.1077 34.9142 24.028 32.7416 27.052C31.6394 28.5862 30.4951 30.0452 29.4737 31.5509C27.5426 34.3971 25.0102 37.5693 22.9846 40.5044C21.1457 43.1671 18.3799 46.8784 16.4579 49.5172C12.1368 55.4489 7.58788 61.6064 3.38971 67.5222C2.93653 68.1605 0.315375 71.6302 0.223145 71.9927Z" fill="white"/>
<path fill-rule="evenodd" clip-rule="evenodd" d="M213.364 135.609C212.928 134.506 210.415 127.672 210.132 127.271L200.359 127.289L200.336 127.828L203.41 127.855C203.506 128.629 203.431 146.922 203.432 148.66C203.433 149.862 203.512 150.777 202.798 151.509C201.845 152.486 200.901 152.165 200.334 152.451L200.327 152.921C201.362 152.941 206.76 153.1 207.275 152.83L207.266 152.405C204.777 152.151 204.043 151.67 204.046 149.039L204.04 129.445C204.511 130.258 208.279 140.461 208.743 141.662C209.527 143.698 210.287 145.72 211.069 147.77C211.836 149.781 212.701 151.884 213.377 153.882L213.959 153.853C214.709 151.913 215.389 149.687 216.044 147.709C216.72 145.669 217.427 143.659 218.105 141.62L222.218 129.516L222.33 152.381C221.674 152.398 219.642 152.281 219.162 152.45L219.152 152.83C219.497 153.022 230.723 152.976 231.964 152.917L231.903 152.39H228.798V127.843L231.92 127.828L231.911 127.271H222.412C222.089 127.8 219.918 134.429 219.506 135.63C219.134 136.715 216.9 143.677 216.615 143.993C216.344 143.652 213.783 136.67 213.364 135.609Z" fill="white"/>
<path fill-rule="evenodd" clip-rule="evenodd" d="M17.6957 127.817C18.5132 127.777 23.3468 127.72 23.7578 127.878C24.1233 128.056 25.3041 131.306 25.5455 131.89C26.1194 133.278 26.6625 134.662 27.2625 136.049C27.6713 136.996 27.283 137.44 26.9642 138.316C26.609 139.293 24.8133 144.501 24.507 144.662L21.0649 136.28C20.6129 135.193 17.6627 128.351 17.6957 127.817ZM38.1377 144.396L37.976 144.705C37.7039 144.597 37.754 144.655 37.6105 144.323C37.4762 143.406 30.9791 128.687 30.9586 127.822C31.6634 127.77 32.9694 127.968 33.4898 127.729C33.4784 127.157 33.5854 127.293 32.1769 127.298C28.6437 127.312 8.23925 127.155 7.4126 127.361C7.45928 127.868 7.41601 127.823 8.02405 127.819C10.5575 127.8 10.4767 127.504 10.9458 128.683L11.9706 131.166C12.4306 132.289 12.8758 133.351 13.3187 134.459C14.2057 136.669 15.1178 138.827 16.023 141.04L20.7985 152.658C20.9158 152.94 21.0125 153.189 21.1298 153.472C21.279 153.833 21.3279 153.915 21.8176 153.83C22.1102 153.407 25.7812 143.086 26.3175 141.654C26.5646 140.993 27.5518 138.034 27.8216 137.686C28.334 138.07 33.9817 153.119 34.633 153.852C35.3082 153.888 35.2103 153.594 35.6498 152.433C38.1115 145.942 40.5095 139.147 42.928 132.601C43.4153 131.281 43.7262 130.15 44.5312 129.275C45.8577 127.833 47.3903 127.993 47.8868 127.732L47.8651 127.347C47.2651 127.212 41.4068 127.236 40.9308 127.363C41.0139 128.354 41.77 127.403 42.7401 128.704C43.2924 129.445 43.2924 130.144 42.9428 131.094C42.3849 132.611 41.8679 134.002 41.3066 135.528C40.9445 136.513 38.0831 144.044 38.1377 144.396Z" fill="#EFA35A"/>
<path fill-rule="evenodd" clip-rule="evenodd" d="M133.411 152.349L133.413 127.858C134.417 127.725 137.243 127.797 138.114 128.096C139.293 128.503 140.281 129.472 140.786 130.453C141.628 132.083 141.284 137.8 141.284 140.035C141.284 141.709 141.284 143.384 141.284 145.058C141.284 146.699 141.465 148.231 140.827 149.659C140.379 150.663 139.328 151.668 138.224 152.078C137.275 152.43 134.499 152.523 133.411 152.349ZM133.012 127.271C131.844 127.272 124.186 127.17 123.729 127.333L123.718 127.713C124.29 128.069 126.098 127.762 126.931 127.856L126.93 152.348C126.13 152.472 124.321 152.237 123.725 152.45L123.713 152.831C124.144 153.069 131.95 152.921 133.106 152.924C136.109 152.934 138.899 153.142 141.492 151.934C142.052 151.673 142.551 151.406 143.028 151.103C143.415 150.857 144.15 150.326 144.379 150.085L145.506 148.847C147.314 146.547 148.406 143.24 148.374 140.035C148.34 136.502 146.715 132.101 144.251 130.018C140.768 127.076 137.568 127.263 133.012 127.271Z" fill="white"/>
<path fill-rule="evenodd" clip-rule="evenodd" d="M174.584 127.384C177.143 127.041 179.226 128.945 179.702 130.921C180.108 132.611 179.876 137.441 179.876 139.465C179.876 141.215 179.96 146.955 179.851 148.247C179.362 154.01 171.738 154.348 170.472 149.267C170.113 147.826 170.339 142.534 170.339 140.698C170.339 137.807 170.244 134.754 170.343 131.883C170.365 131.27 170.517 130.64 170.738 130.127C171.1 129.29 172.066 128.305 172.863 127.89C173.395 127.613 173.891 127.476 174.584 127.384ZM187.094 140.698C187.242 139.107 186.823 136.725 186.345 135.265C185.503 132.7 184.444 131.023 182.623 129.42C178.206 125.53 170.396 126.058 166.624 130.274C166.447 130.472 166.373 130.507 166.215 130.714C166.092 130.877 166.052 130.942 165.891 131.147C162.04 136.045 162.212 144.127 165.963 149.132C170.03 154.559 179.097 154.856 183.585 149.903C184.079 149.359 184.546 148.772 184.959 148.06C186.502 145.406 186.805 143.786 187.094 140.698Z" fill="white"/>
<path fill-rule="evenodd" clip-rule="evenodd" d="M54.4259 55.7159C54.18 56.3064 54.3474 61.9555 54.3474 63.0725C54.3474 65.5369 54.2756 68.1106 54.3474 70.5602L70.4318 70.5716L70.4182 53.6836L69.9012 53.736C69.3034 53.6916 63.1218 54.5396 62.064 54.7003C60.7841 54.8953 59.4758 55.032 58.2017 55.195C57.12 55.3341 55.4074 55.464 54.4259 55.7159Z" fill="white"/>
<path fill-rule="evenodd" clip-rule="evenodd" d="M54.377 87.7071L70.4398 89.238L70.4228 72.9336H54.3372L54.377 87.7071Z" fill="white"/>
<path fill-rule="evenodd" clip-rule="evenodd" d="M34.6717 85.8207L51.3756 87.4564L51.4109 72.9062L34.6353 72.9336L34.6717 85.8207Z" fill="white"/>
<path fill-rule="evenodd" clip-rule="evenodd" d="M34.6033 70.6247L51.4586 70.5939L51.4256 56.0859L34.5759 58.2995L34.6033 70.6247Z" fill="white"/>
<path fill-rule="evenodd" clip-rule="evenodd" d="M102.063 127.428C102.063 127.935 102.135 127.82 102.661 127.876C105.481 128.176 105.174 130.385 105.174 132.451C105.174 134.968 105.333 138.049 105.169 140.494C104.829 140.343 102.397 136.261 102.001 135.627C100.98 133.993 99.9807 132.396 98.9445 130.726C96.4087 126.634 97.4005 127.289 94.2874 127.289C93.0998 127.289 86.9785 127.153 86.416 127.389C86.4581 127.852 86.4308 127.811 86.9865 127.816C87.5034 127.82 89.315 127.701 89.4881 127.902C89.6611 128.104 89.5541 146.156 89.5484 148.945C89.5393 153.518 86.3454 151.53 86.4365 152.83C86.8407 153.006 92.6501 153.002 93.0759 152.859C93.1852 152.607 93.1648 152.815 93.1295 152.45C91.8348 151.903 90.0631 152.768 90.0802 148.848L90.0779 128.971C90.4639 129.113 90.2282 128.904 90.5015 129.332L104.419 151.691C104.929 152.528 105.053 152.972 105.598 152.888C105.655 152.775 105.633 152.87 105.675 152.637L105.69 151.977C105.607 145.263 105.686 138.155 105.677 131.407C105.676 130.289 105.767 129.279 106.442 128.601C106.782 128.26 107.095 128.102 107.604 127.97C108.784 127.662 108.754 128.123 108.809 127.371C108.462 127.245 102.438 127.136 102.063 127.428Z" fill="#EFA35A"/>
<path fill-rule="evenodd" clip-rule="evenodd" d="M72.0374 127.806C72.4861 127.804 73.1237 127.876 73.4448 127.729C73.4323 127.155 73.3799 127.281 72.7058 127.293C69.069 127.358 63.9406 127.135 60.6248 127.363C60.6772 127.945 60.7683 127.826 61.4298 127.811C64.0965 127.748 63.7925 127.59 63.7891 128.756C63.7663 136.604 63.8552 144.559 63.7777 152.381L62.5696 152.394C61.9217 152.398 60.5007 152.244 60.6157 152.707C60.6943 153.021 61.2408 152.92 61.6223 152.92C64.9414 152.918 70.6073 153.056 73.3765 152.858C73.4903 152.616 73.4755 152.841 73.4323 152.466C72.7366 152.234 71.1391 152.504 70.235 152.36L70.2327 129.705C70.2327 129.362 70.0949 127.953 70.3887 127.867C70.4069 127.863 70.4388 127.848 70.4616 127.842L70.7086 127.801C70.818 127.792 71.0628 127.8 71.1835 127.801C71.4681 127.804 71.7528 127.806 72.0374 127.806Z" fill="#EFA359"/>
<path fill-rule="evenodd" clip-rule="evenodd" d="M191.029 83.3682L191.044 71.9902L177.233 72.0085V85.3846L191.029 83.3682Z" fill="white"/>
<path fill-rule="evenodd" clip-rule="evenodd" d="M177.229 69.7735L191.05 69.8088C191.003 68.0216 191.251 59.3747 190.957 58.4639L177.225 56.5137L177.229 69.7735Z" fill="white"/>
<path fill-rule="evenodd" clip-rule="evenodd" d="M206.177 81.1925L206.194 71.9883L193.329 72.0054L193.352 83.0516L206.177 81.1925Z" fill="white"/>
<path fill-rule="evenodd" clip-rule="evenodd" d="M193.324 69.7734L206.2 69.8088C206.16 68.3452 206.363 61.3488 206.133 60.6136L193.321 58.791L193.324 69.7734Z" fill="white"/>
<path fill-rule="evenodd" clip-rule="evenodd" d="M49.8225 195.783C49.6426 196.23 49.5629 195.865 49.5606 195.862C49.3055 195.16 47.6078 190.814 47.322 190.5L46.3109 190.497C46.2016 190.996 46.2039 196.867 46.3189 197.34L47.0089 197.313L47.0157 191.785C47.4826 192.3 49.0174 196.877 49.474 197.354C49.9728 197.342 49.8748 197.32 50.0422 196.873L50.9577 194.663C51.3551 193.676 51.7582 192.73 52.1282 191.769C52.143 191.79 52.1567 191.821 52.1624 191.839C52.1692 191.858 52.1863 191.89 52.1931 191.912C52.3514 192.442 52.1407 196.407 52.2785 197.344L53.0107 197.332L52.9697 190.49L51.9233 190.514C51.6534 190.853 49.827 195.413 49.8225 195.783Z" fill="white"/>
<path fill-rule="evenodd" clip-rule="evenodd" d="M146.239 191.191L148.946 191.189L148.948 196.64L145.355 196.653C145.641 195.756 145.981 195.386 146.115 194.226C146.237 193.18 146.224 192.242 146.239 191.191ZM144.483 197.344L149.766 197.369L149.769 198.998L150.499 198.944L150.465 196.67L149.701 196.612L149.649 190.488L145.538 190.5C145.325 191.424 145.552 193.098 145.334 194.262C145.23 194.823 145.097 195.306 144.875 195.79C143.971 197.766 143.501 195.174 143.752 198.966L144.469 198.978L144.483 197.344Z" fill="white"/>
<path fill-rule="evenodd" clip-rule="evenodd" d="M26.9414 191.192L29.6491 191.189L29.6502 196.64L26.0749 196.653C26.3516 195.781 26.7091 195.401 26.8401 194.231C26.9585 193.162 26.9232 192.267 26.9414 191.192ZM30.4564 196.665C30.3767 196.492 30.4427 196.863 30.379 196.431L30.3676 190.545C29.2756 190.574 27.1407 190.425 26.2013 190.619C26.0999 191.888 26.3003 193.077 26.0385 194.373C25.9291 194.917 25.7948 195.449 25.5693 195.879C25.5147 195.983 25.2517 196.42 25.2061 196.465C24.8748 196.805 24.9693 196.55 24.4854 196.712L24.5058 198.985L25.1708 198.978L25.1822 197.344L30.4666 197.37L30.4712 198.997L31.2011 198.944L31.1669 196.661L30.4564 196.665Z" fill="white"/>
<path fill-rule="evenodd" clip-rule="evenodd" d="M74.1485 191.236L76.8573 191.182L76.8607 196.629L73.2695 196.651C73.5689 195.787 73.8718 195.371 74.0118 194.249C74.1462 193.163 74.1086 192.318 74.1485 191.236ZM73.3412 193.089C73.3503 193.854 73.2057 194.696 72.9643 195.364C72.3881 196.958 72.157 196.536 71.6389 196.711L71.6526 198.991L72.3859 198.952L72.387 197.343L77.6544 197.345L77.6658 198.964L78.3899 198.976L78.3375 196.654L77.6293 196.627L77.6179 190.591L73.4653 190.562C73.4699 190.994 73.5757 192.908 73.3412 193.089Z" fill="white"/>
<path fill-rule="evenodd" clip-rule="evenodd" d="M199.731 190.524C199.578 191.518 199.698 193.609 199.698 194.721C199.696 197.007 199.422 197.416 200.224 197.359C200.664 197.328 200.634 197.246 200.833 196.932C201.138 196.446 203.883 192.053 204.238 191.778C204.289 192.812 204.243 193.959 204.243 195.006C204.244 197.602 204.023 197.368 204.941 197.335C205.05 196.862 205.051 190.943 204.941 190.495C203.795 190.462 204.056 190.666 203.487 191.532C203.159 192.031 202.822 192.527 202.503 193.009C202.141 193.557 200.874 195.688 200.502 195.961C200.433 194.958 200.488 193.757 200.488 192.732C200.49 190.321 200.703 190.347 199.731 190.524Z" fill="white"/>
<path fill-rule="evenodd" clip-rule="evenodd" d="M116.567 194.344C116.192 190.219 121.574 189.89 122.019 193.497C122.228 195.194 121.173 196.595 119.741 196.793C118.017 197.031 116.705 195.851 116.567 194.344ZM115.754 194.533C116.379 198.871 123.354 198.4 122.829 193.418C122.628 191.514 120.926 190.044 118.716 190.359C116.849 190.627 115.432 192.295 115.754 194.533Z" fill="white"/>
<path fill-rule="evenodd" clip-rule="evenodd" d="M35.7318 194.343C35.29 190.249 40.8227 189.879 41.1848 193.49C41.5947 197.577 36.1212 197.949 35.7318 194.343ZM34.9336 194.532C35.5496 198.892 42.4908 198.437 41.9955 193.406C41.5503 188.899 34.2163 189.456 34.9336 194.532Z" fill="white"/>
<path fill-rule="evenodd" clip-rule="evenodd" d="M154.56 197.317C155.624 197.445 155.526 197.089 156.03 196.345C156.499 195.652 158.793 191.945 159.041 191.805L159.08 197.343L159.809 197.33L159.762 190.506C159.281 190.463 159.05 190.408 158.793 190.767C158.166 191.639 155.612 195.855 155.27 196.032L155.221 190.501C154.249 190.429 154.533 190.689 154.538 191.69C154.544 193.072 154.457 196.358 154.56 197.317Z" fill="white"/>
<path fill-rule="evenodd" clip-rule="evenodd" d="M95.68 191.213C95.8019 191.407 95.7244 191.036 95.7836 191.498L95.7073 193.776C95.261 193.889 94.604 193.862 94.2453 193.689C93.2764 193.671 92.5032 192.758 93.068 191.795C93.4927 191.072 94.7987 191.116 95.68 191.213ZM96.4976 190.517C96.0398 190.445 94.5425 190.461 94.0575 190.518C93.2615 190.61 92.7514 190.901 92.4281 191.346C92.0796 191.826 92.0216 192.702 92.2948 193.306C92.5943 193.968 92.9985 194.06 93.7033 194.336C93.4847 195.138 92.1149 196.661 92.0261 197.344C93.1238 197.364 92.7856 197.471 93.7819 195.828C94.7759 194.189 94.3535 194.4 95.737 194.408C95.7438 194.77 95.7005 197.022 95.7495 197.163C95.8372 197.415 96.452 197.528 96.5317 197.089C96.6251 196.579 96.5317 190.763 96.4976 190.517Z" fill="white"/>
<path fill-rule="evenodd" clip-rule="evenodd" d="M182.43 193.243C182.41 194.062 182.351 194.871 182.12 195.637C181.788 196.736 181.47 196.579 180.461 196.699L180.392 197.34C183.613 197.95 183.131 193.654 183.221 191.193L185.819 191.228C185.838 192.493 185.652 196.397 185.876 197.337H186.621L186.618 190.595L182.536 190.547L182.537 192.543C182.537 192.622 182.544 192.866 182.536 192.927L182.43 193.243Z" fill="white"/>
<path fill-rule="evenodd" clip-rule="evenodd" d="M127.815 194.144C129.084 194.02 130.938 193.997 130.858 195.479C130.786 196.846 129.04 196.74 127.808 196.704L127.815 194.144ZM129.747 197.236C131.143 197.339 132.096 195.817 131.453 194.486C130.864 193.268 129.224 193.522 127.806 193.413L127.823 191.21C128.405 191.137 129.271 191.187 129.887 191.187C130.634 191.188 131.474 191.442 131.121 190.553C130.664 190.354 127.822 190.439 127.146 190.508L127.138 197.261C127.994 197.309 128.924 197.276 129.747 197.236Z" fill="white"/>
<path fill-rule="evenodd" clip-rule="evenodd" d="M58.6721 194.856C58.7586 194.401 59.8711 191.697 60.1159 191.526L61.4526 194.843L58.6721 194.856ZM56.8286 197.331C57.7429 197.398 57.5983 197.39 57.8932 196.673C58.507 195.18 57.8568 195.531 61.7965 195.584C62.0322 196.14 62.2497 196.932 62.5833 197.341L63.3029 197.338C63.2836 196.972 60.667 190.842 60.3914 190.494L59.7618 190.495C59.4885 190.923 56.8605 196.988 56.8286 197.331Z" fill="white"/>
<path fill-rule="evenodd" clip-rule="evenodd" d="M87.0857 191.202C87.097 191.223 87.1187 191.229 87.1221 191.265L87.1836 191.498C87.2553 192.22 87.105 196.047 87.1916 197.272L87.844 197.269L87.8451 190.548C86.8204 190.545 84.6638 190.437 83.7654 190.608C83.6834 191.894 83.8394 193.216 83.6583 194.512C83.4522 195.983 83.2997 196.689 81.7693 196.672L81.7158 197.349C84.9131 197.855 84.4634 193.768 84.5066 191.188L87.0857 191.202Z" fill="white"/>
<path fill-rule="evenodd" clip-rule="evenodd" d="M173.506 196.614L173.508 194.124L176.762 194.114L176.728 193.427L173.503 193.428L173.508 191.19C174.242 191.181 174.979 191.186 175.713 191.186C176.465 191.186 177.298 191.443 176.947 190.551C176.519 190.365 173.58 190.465 172.872 190.498C172.591 191.027 172.731 196.287 172.766 197.278L177.044 197.281L177.04 196.716C176.441 196.703 175.839 196.712 175.239 196.712C174.491 196.713 173.831 196.798 173.506 196.614Z" fill="white"/>
<path fill-rule="evenodd" clip-rule="evenodd" d="M195.556 197.187L195.53 196.652L191.961 196.657L191.972 194.122L195.209 194.118L195.176 193.426L191.961 193.435L191.98 191.193C192.753 191.172 194.885 191.335 195.451 191.128L195.462 190.648C194.97 190.408 191.973 190.515 191.236 190.554L191.238 197.273C192.019 197.295 195.033 197.43 195.556 197.187Z" fill="white"/>
<path fill-rule="evenodd" clip-rule="evenodd" d="M106.415 197.318C107.308 197.465 107.144 197.267 107.134 196.431L107.145 191.187L110.758 191.204L110.793 197.347L111.422 197.321L111.42 190.549L106.418 190.565L106.415 197.318Z" fill="white"/>
<path fill-rule="evenodd" clip-rule="evenodd" d="M136.714 196.595L136.716 194.124L140.026 194.115L139.991 193.428L136.706 193.413L136.724 191.189L140.219 191.182L140.179 190.488L136.045 190.508L136.035 197.264L140.295 197.273L140.305 196.727L137.556 196.72C136.861 196.717 136.913 196.785 136.714 196.595Z" fill="white"/>
<path fill-rule="evenodd" clip-rule="evenodd" d="M165.899 191.19L165.921 197.33L166.61 197.332L166.639 191.188L168.886 191.177L168.857 190.491H164.161C163.875 190.491 163.775 190.414 163.65 190.616C163.575 190.74 163.615 191.048 163.683 191.117C163.829 191.264 165.557 191.188 165.899 191.19Z" fill="white"/>
<path fill-rule="evenodd" clip-rule="evenodd" d="M54.377 87.708L54.3372 72.9345H70.4228L70.4398 89.2389C70.6072 88.955 70.5286 87.577 70.5286 87.2419C70.5286 85.2163 70.622 73.6184 70.4854 72.8752C69.8136 72.7533 54.8951 72.7601 54.2825 72.8821C54.1413 73.5409 54.2313 84.1996 54.2324 86.0097C54.2324 86.5887 54.122 87.5656 54.377 87.708Z" fill="white"/>
<path fill-rule="evenodd" clip-rule="evenodd" d="M34.6716 85.8217L34.6352 72.9346L51.4108 72.9072L51.3755 87.4573C51.5543 87.1872 51.4996 86.9455 51.495 86.5785C51.4711 84.3433 51.593 73.6595 51.4518 72.8764C50.8358 72.7408 35.3001 72.7408 34.5885 72.8821C34.3983 73.7735 34.5657 82.662 34.535 85.1594C34.5247 85.9698 34.5634 85.7498 34.6716 85.8217Z" fill="white"/>
<path fill-rule="evenodd" clip-rule="evenodd" d="M54.4259 55.7153C54.2164 55.8339 54.3041 55.5626 54.2301 56.0516C54.2244 56.0835 54.2346 56.4665 54.2346 56.5315C54.2631 58.8636 54.1379 69.813 54.279 70.6553L70.4842 70.6154C70.6254 69.8871 70.6174 54.3213 70.4751 53.634C70.1654 53.585 70.1028 53.5656 69.9012 53.7354L70.4182 53.683L70.4318 70.571L54.3474 70.5596C54.2756 68.11 54.3474 65.5363 54.3474 63.0719C54.3474 61.9549 54.18 56.3058 54.4259 55.7153Z" fill="white"/>
<path fill-rule="evenodd" clip-rule="evenodd" d="M191.029 83.3681C191.164 83.2062 191.078 83.5653 191.154 83.0751L191.151 81.9342C191.153 79.9474 191.262 72.7732 191.109 71.9274C190.322 71.7861 180.139 71.9069 177.985 71.8807C177.673 71.8773 177.371 71.8032 177.233 72.0084L191.044 71.9901L191.029 83.3681Z" fill="#665A3D"/>
<path fill-rule="evenodd" clip-rule="evenodd" d="M206.177 81.1891C206.316 81.0239 206.254 81.2199 206.305 80.8917L206.3 80.036C206.299 78.394 206.396 72.6774 206.258 71.9276C205.58 71.8034 197.813 71.8809 196.449 71.8809C196.116 71.8809 193.51 71.7407 193.329 72.0051L206.194 71.988L206.177 81.1891Z" fill="white"/>
<path fill-rule="evenodd" clip-rule="evenodd" d="M177.229 69.7724C177.44 69.9822 177.365 69.9001 178.08 69.8933C180.183 69.8728 190.379 69.9856 191.106 69.8557C191.263 69.0338 191.145 62.8798 191.145 61.1757C191.145 60.5443 191.288 58.5746 190.957 58.4629C191.251 59.3736 191.003 68.0205 191.05 69.8078L177.229 69.7724Z" fill="white"/>
<path fill-rule="evenodd" clip-rule="evenodd" d="M193.324 69.77C193.474 69.917 193.26 69.8737 193.696 69.9033C194.924 69.9888 206.05 69.8896 206.255 69.8532C206.389 69.1569 206.292 63.2796 206.294 61.6502C206.294 61.2776 206.406 60.7603 206.133 60.6133C206.363 61.3482 206.16 68.3422 206.2 69.8053L193.324 69.77Z" fill="#5C513C"/>
<path fill-rule="evenodd" clip-rule="evenodd" d="M202.492 189.309C201.767 189.414 201.624 188.96 201.413 188.561C200.773 188.605 200.803 188.834 201.141 189.36C201.692 190.217 203.794 190.166 203.75 188.589C202.851 188.525 203.357 189.185 202.492 189.309Z" fill="white"/>
<path fill-rule="evenodd" clip-rule="evenodd" d="M106.415 197.318L106.417 190.564L111.42 190.548L111.422 197.32C111.486 197.197 111.445 197.443 111.513 197.092L111.522 196.428C111.512 195.125 111.602 191.159 111.472 190.457L106.356 190.506C106.214 191.276 106.312 193.083 106.312 193.964C106.312 194.645 106.187 196.908 106.415 197.318Z" fill="white"/>
<path fill-rule="evenodd" clip-rule="evenodd" d="M87.0857 191.201L87.1278 197.361L87.8998 197.331C87.9977 196.815 87.9977 190.97 87.8941 190.502C87.4102 190.398 85.4779 190.46 84.7241 190.458C84.5772 190.458 84.2755 190.437 84.1502 190.449C83.7346 190.485 83.8963 190.407 83.7654 190.607C84.6638 190.436 86.8204 190.545 87.8451 190.547L87.844 197.268L87.1916 197.271C87.105 196.046 87.2553 192.22 87.1836 191.497L87.1221 191.265C87.1187 191.228 87.0971 191.223 87.0857 191.201Z" fill="white"/>
<path fill-rule="evenodd" clip-rule="evenodd" d="M136.715 196.595C136.913 196.785 136.861 196.717 137.556 196.72L140.305 196.727L140.296 197.273L136.035 197.264L136.045 190.508C135.988 190.617 136.018 190.398 135.955 190.741C135.849 191.317 135.971 197.293 135.981 197.372L140.379 197.332L140.353 196.624L136.715 196.595Z" fill="white"/>
<path fill-rule="evenodd" clip-rule="evenodd" d="M173.506 196.615C173.831 196.8 174.491 196.715 175.239 196.713C175.839 196.713 176.441 196.704 177.039 196.718L177.044 197.283L172.766 197.28C172.731 196.288 172.591 191.029 172.872 190.5C172.69 190.596 172.666 190.277 172.678 191.311C172.682 191.595 172.68 191.881 172.68 192.165C172.681 192.733 172.681 193.302 172.681 193.871C172.68 194.831 172.587 196.461 172.715 197.377L177.119 197.334L177.092 196.619L173.506 196.615Z" fill="white"/>
<path fill-rule="evenodd" clip-rule="evenodd" d="M195.556 197.187C195.034 197.43 192.02 197.294 191.238 197.272L191.236 190.553C191.973 190.514 194.97 190.407 195.462 190.648C195.334 190.402 195.548 190.469 195.036 190.441L191.143 190.504L191.19 197.333C191.775 197.441 192.785 197.38 193.419 197.381C194.073 197.381 195.464 197.52 195.556 197.187Z" fill="white"/>
<path fill-rule="evenodd" clip-rule="evenodd" d="M129.747 197.236C128.924 197.276 127.994 197.309 127.138 197.261L127.146 190.508C126.915 190.953 127.054 197.147 127.08 197.339C127.468 197.387 129.626 197.486 129.747 197.236Z" fill="white"/>
<path fill-rule="evenodd" clip-rule="evenodd" d="M30.4565 196.665L30.4246 190.503C29.8724 190.385 28.9011 190.463 28.2954 190.462C27.9162 190.462 27.537 190.464 27.159 190.463C27.0167 190.462 26.7024 190.441 26.584 190.452C26.1445 190.492 26.3278 190.41 26.2014 190.619C27.1408 190.425 29.2758 190.574 30.3677 190.545L30.3791 196.431C30.4429 196.863 30.3768 196.492 30.4565 196.665Z" fill="#5D5233"/>
<path fill-rule="evenodd" clip-rule="evenodd" d="M182.43 193.242L182.536 192.927C182.544 192.865 182.537 192.621 182.537 192.543L182.536 190.546L186.618 190.594C186.387 190.37 186.031 190.452 185.56 190.454C184.806 190.46 182.971 190.407 182.446 190.504L182.43 193.242Z" fill="white"/>
<path fill-rule="evenodd" clip-rule="evenodd" d="M73.3411 193.089C73.5756 192.907 73.4697 190.994 73.4652 190.562L77.6178 190.591C77.4652 190.415 77.6747 190.535 77.4265 190.464C77.4242 190.463 77.1715 190.448 77.1567 190.447L73.3775 190.504L73.3411 193.089Z" fill="white"/>
<path fill-rule="evenodd" clip-rule="evenodd" d="M94.2454 193.689C94.604 193.862 95.261 193.889 95.7074 193.776L95.7837 191.498C95.7245 191.036 95.8019 191.407 95.68 191.213L95.6835 193.707L94.2454 193.689Z" fill="#776A55"/>
<path fill-rule="evenodd" clip-rule="evenodd" d="M38.1378 144.395C38.0547 144.444 37.9659 144.522 37.9522 144.497C37.9374 144.472 37.8861 144.513 37.8486 144.536L37.6106 144.322C37.7541 144.654 37.704 144.596 37.9761 144.704L38.1378 144.395Z" fill="#E7B888"/>
<path fill-rule="evenodd" clip-rule="evenodd" d="M231.114 72.6339L230.953 72.6886C231.077 72.822 230.745 72.8744 231.104 72.8071C231.428 72.4129 231.127 72.651 231.114 72.6339Z" fill="#8E846F"/>
<path fill-rule="evenodd" clip-rule="evenodd" d="M0.25961 72.0343L0.223174 71.9922C-0.00227728 72.1449 0.0910914 71.966 0 72.2782C0.253917 72.1791 0.140053 72.2508 0.25961 72.0343Z" fill="#504732"/>
<path fill-rule="evenodd" clip-rule="evenodd" d="M49.5605 195.864C49.5628 195.867 49.6425 196.232 49.8224 195.785L49.5605 195.864Z" fill="#675A46"/>
</svg>
