<svg width="27" height="30" viewBox="0 0 27 30" fill="none" xmlns="http://www.w3.org/2000/svg">
<path d="M22.6092 18.5693L17.8194 16.0955L17.8062 16.0884C17.5576 15.9659 17.2863 15.9167 17.017 15.9453C16.7477 15.974 16.4888 16.0795 16.2639 16.2525C16.2374 16.2727 16.2119 16.2946 16.1876 16.3181L13.7129 18.7498C12.1451 17.872 10.5265 16.0205 9.76499 14.2369L11.8777 11.3412C11.8981 11.3119 11.9174 11.2826 11.9357 11.2509C12.0825 10.9923 12.1716 10.6958 12.195 10.3879C12.2184 10.08 12.1755 9.77022 12.0699 9.48609V9.47203L9.91749 3.94195C9.77794 3.57078 9.53798 3.26158 9.23343 3.06051C8.92888 2.85944 8.57609 2.7773 8.22771 2.82633C6.85002 3.03528 5.58543 3.81512 4.67014 5.02019C3.75484 6.22526 3.25142 7.77315 3.25392 9.37476C3.25392 18.6795 9.82192 26.2498 17.8947 26.2498C19.2842 26.2526 20.6272 25.6724 21.6727 24.6174C22.7182 23.5624 23.3948 22.1049 23.5761 20.517C23.6187 20.1155 23.5476 19.709 23.3733 19.358C23.1991 19.007 22.931 18.7303 22.6092 18.5693ZM17.8947 24.3748C14.4443 24.3704 11.1363 22.7887 8.69654 19.9766C6.25676 17.1645 4.88443 13.3517 4.88067 9.37476C4.87684 8.23041 5.23454 7.12359 5.88695 6.26098C6.53936 5.39838 7.44189 4.83898 8.42597 4.68726C8.42556 4.69194 8.42556 4.69665 8.42597 4.70133L10.5611 10.2091L8.45952 13.1084C8.43819 13.1366 8.41881 13.1668 8.40156 13.1986C8.24856 13.4692 8.15881 13.7808 8.14099 14.1031C8.12318 14.4255 8.17792 14.7476 8.29989 15.0384C9.22104 17.2099 11.1193 19.3814 13.0236 20.4419C13.2777 20.5812 13.5589 20.6421 13.8395 20.6187C14.1202 20.5953 14.3908 20.4884 14.6249 20.3084C14.651 20.2881 14.6761 20.2662 14.7001 20.2427L17.1718 17.8123L21.9504 20.2791H21.9615C21.8315 21.4149 21.3469 22.4573 20.5984 23.2111C19.8498 23.9649 18.8887 24.3786 17.8947 24.3748Z" fill="#EFA35A"/>
</svg>
