<svg width="28" height="28" viewBox="0 0 28 28" fill="none" xmlns="http://www.w3.org/2000/svg">
<path d="M26.0272 18.3829L19.5863 15.4968L19.5686 15.4886C19.2342 15.3456 18.8694 15.2882 18.5073 15.3216C18.1452 15.355 17.7971 15.4782 17.4945 15.68C17.4589 15.7035 17.4247 15.7291 17.392 15.7566L14.0643 18.5935C11.9561 17.5694 9.7795 15.4093 8.75548 13.3284L11.5965 9.95011C11.6238 9.91593 11.6498 9.88175 11.6744 9.84484C11.8719 9.54311 11.9917 9.19723 12.0232 8.83801C12.0547 8.47878 11.9969 8.11734 11.8549 7.78586V7.76945L8.96056 1.31769C8.7729 0.884655 8.45022 0.523924 8.0407 0.289346C7.63117 0.0547689 7.15676 -0.0410723 6.68829 0.0161296C4.83571 0.259908 3.13522 1.16972 1.90441 2.57563C0.673608 3.98155 -0.00333721 5.78743 1.23712e-05 7.65597C1.23712e-05 18.5114 8.83204 27.3435 19.6875 27.3435C21.5561 27.3468 23.3619 26.6699 24.7679 25.4391C26.1738 24.2083 27.0836 22.5078 27.3274 20.6552C27.3847 20.1869 27.289 19.7126 27.0547 19.3031C26.8204 18.8936 26.4599 18.5708 26.0272 18.3829ZM19.6875 25.156C15.0478 25.1509 10.5995 23.3055 7.31874 20.0247C4.03795 16.744 2.19258 12.2957 2.18751 7.65597C2.18237 6.3209 2.66336 5.0296 3.54067 4.02323C4.41797 3.01686 5.6316 2.36423 6.9549 2.18722C6.95436 2.19268 6.95436 2.19817 6.9549 2.20363L9.82599 8.62941L7.00001 12.0118C6.97133 12.0448 6.94527 12.08 6.92208 12.1171C6.71634 12.4328 6.59565 12.7963 6.57169 13.1724C6.54774 13.5485 6.62134 13.9243 6.78536 14.2636C8.02404 16.797 10.5766 19.3304 13.1373 20.5677C13.4791 20.7302 13.8571 20.8012 14.2345 20.7739C14.612 20.7466 14.9759 20.6218 15.2906 20.4118C15.3257 20.3882 15.3595 20.3626 15.3918 20.3353L18.7154 17.4997L25.1412 20.3777H25.1563C24.9814 21.7028 24.3298 22.9189 23.3232 23.7984C22.3167 24.6778 21.0242 25.1605 19.6875 25.156Z" fill="#EFA35A"/>
</svg>
