<svg width="239" height="205" viewBox="0 0 239 205" fill="none" xmlns="http://www.w3.org/2000/svg">
<g clip-path="url(#clip0_383_1078)">
<path fill-rule="evenodd" clip-rule="evenodd" d="M0.248047 74.1633L0.285583 74.2067C0.933078 73.8568 1.49612 73.0748 2.02748 72.5664C3.24506 71.3992 5.79867 69.0848 6.82974 67.9975C7.77987 66.9959 8.97515 65.9978 9.82205 65.1371L11.5358 63.4345C11.7211 63.2537 11.8349 63.1962 12.0109 63.0294C12.1903 62.8592 12.0648 62.966 12.195 62.8251C12.3534 62.6537 12.2056 62.791 12.3909 62.6314C12.778 62.2991 12.8543 62.157 13.2202 61.8047L18.3873 56.8225C18.7298 56.5231 18.9163 56.3141 19.2342 56.0076L27.4217 48.1885C27.6176 48.0018 27.5824 47.9795 27.8018 47.7905L30.4023 45.3164C31.2199 44.4956 32.0727 43.5668 32.9841 42.8236L34.6439 41.1656C34.9735 40.8356 35.2374 40.6771 35.5729 40.3377L37.7089 38.2747C37.8157 38.1737 37.9365 38.0257 38.0948 37.8836L39.8133 36.1857C40.1276 35.8816 40.3728 35.729 40.693 35.406L47.5281 28.7753C47.704 28.605 47.8284 28.5287 47.9914 28.3561C48.9451 27.3498 50.1169 26.374 50.9837 25.4957L54.3807 22.1621C54.6857 21.8674 54.9379 21.6548 55.2042 21.3437C55.7437 21.5715 63.8644 30.1221 64.9881 31.2646C66.6221 32.9249 68.1951 34.5512 69.876 36.2327L74.6689 41.1996C75.4173 42.0838 76.3216 42.8787 77.1416 43.703L81.9614 48.6418C85.254 51.9214 88.3402 55.3101 91.6246 58.5944C92.4422 59.4117 93.2586 60.2277 94.0656 61.0321C94.5242 61.49 94.8304 61.901 95.2843 62.3507C95.7148 62.7746 96.0714 63.1551 96.5066 63.5696C97.3453 64.3668 98.1922 65.2275 98.9018 66.053C99.6057 66.8703 100.518 67.6899 101.331 68.5024C102.177 69.349 102.884 70.1498 103.723 70.9906C104.978 72.2458 107.557 75.0287 108.601 75.9692C109.476 76.7595 110.249 77.6143 110.992 78.4586C111.574 79.1185 112.255 79.6457 112.856 80.3009C113.074 80.5393 113.183 80.6802 113.417 80.9127C114.12 81.6149 116.306 84.0349 117.082 84.6631C117.46 84.9684 118.815 84.8169 119.389 84.8169H138.994C141.543 84.8169 146.536 84.9567 148.779 84.7981L155.011 77.0049C155.546 76.3098 156.051 75.7332 156.571 75.051L159.694 71.1479C160.197 70.4962 160.691 69.9549 161.223 69.2633L187.672 36.275C187.988 35.871 188.149 35.6738 188.461 35.3086C190.233 33.2408 192.158 30.7057 193.889 28.5369C194.424 27.8676 194.891 27.2887 195.45 26.5842L197.802 23.6663C198.014 23.4021 198.261 22.9664 198.59 22.7563C199.429 23.5676 202.693 28.1917 203.585 29.3154C205.297 31.476 206.824 33.687 208.506 35.8123C211.053 39.0297 213.404 42.3292 215.894 45.6017L225.732 58.6015C227.05 60.3698 237.797 74.37 237.94 74.8796L238.105 74.8232C237.402 73.265 236.547 71.6798 235.772 70.1287L205.207 9.33499C204.078 7.07111 201.403 1.96681 200.566 0L71.4983 15.8167L67.062 11.8114C66.8626 11.6247 66.6702 11.5132 66.4732 11.3218L61.5688 6.85858C60.6961 6.1564 59.7214 5.13014 58.8663 4.39273L57.7941 3.41461C57.5666 3.22791 57.4223 3.11988 57.2053 2.92614L55.0599 0.973423C54.8077 0.709225 54.2529 0.150299 53.9408 0.0528396L48.8747 6.9807C48.3222 7.72985 47.7169 8.53183 47.1938 9.30094L43.8331 13.9414C42.6754 15.4726 41.5927 17.0331 40.476 18.5901C38.2133 21.7441 35.9858 24.7524 33.7477 27.8676C32.6122 29.4481 31.4334 30.9511 30.3812 32.5022C28.3918 35.4342 25.783 38.7021 23.6963 41.7257C21.8019 44.4686 18.9527 48.2919 16.9726 51.0102C12.5211 57.1208 7.835 63.4639 3.51015 69.558C3.0433 70.2156 0.34306 73.7899 0.248047 74.1633Z" fill="white"/>
<path fill-rule="evenodd" clip-rule="evenodd" d="M219.82 139.699C219.371 138.562 216.782 131.522 216.49 131.109L206.422 131.127L206.399 131.682L209.566 131.711C209.665 132.508 209.587 151.353 209.588 153.142C209.59 154.381 209.671 155.324 208.935 156.078C207.953 157.084 206.981 156.753 206.397 157.048L206.39 157.533C207.456 157.553 213.017 157.717 213.547 157.439L213.538 157.001C210.974 156.739 210.218 156.243 210.221 153.533L210.215 133.349C210.7 134.186 214.582 144.696 215.059 145.934C215.867 148.031 216.65 150.114 217.456 152.226C218.246 154.298 219.137 156.464 219.833 158.523L220.433 158.492C221.206 156.494 221.906 154.2 222.581 152.163C223.277 150.061 224.006 147.991 224.704 145.89L228.942 133.421L229.057 156.976C228.381 156.994 226.287 156.873 225.793 157.047L225.783 157.439C226.138 157.636 237.703 157.589 238.981 157.528L238.918 156.986H235.719V131.698L238.936 131.682L238.926 131.109H229.141C228.808 131.654 226.572 138.482 226.148 139.72C225.764 140.838 223.463 148.01 223.169 148.335C222.89 147.984 220.252 140.791 219.82 139.699Z" fill="white"/>
<path fill-rule="evenodd" clip-rule="evenodd" d="M18.2476 131.67C19.0899 131.629 24.0692 131.57 24.4927 131.732C24.8692 131.917 26.0856 135.264 26.3343 135.865C26.9255 137.296 27.485 138.721 28.1032 140.15C28.5243 141.126 28.1243 141.583 27.7958 142.486C27.4299 143.492 25.58 148.857 25.2645 149.023L21.7185 140.389C21.2529 139.268 18.2136 132.22 18.2476 131.67ZM39.3065 148.749L39.1399 149.067C38.8596 148.956 38.9112 149.016 38.7634 148.674C38.625 147.729 31.9318 132.566 31.9107 131.675C32.6368 131.622 33.9822 131.825 34.5183 131.58C34.5066 130.99 34.6168 131.13 33.1658 131.136C29.526 131.15 8.50589 130.988 7.6543 131.2C7.70239 131.723 7.65782 131.676 8.2842 131.672C10.8941 131.652 10.8108 131.347 11.2941 132.562L12.3498 135.12C12.8237 136.276 13.2823 137.371 13.7386 138.512C14.6524 140.789 15.592 143.012 16.5245 145.292L21.4441 157.26C21.5649 157.551 21.6646 157.807 21.7854 158.098C21.9391 158.47 21.9895 158.555 22.4939 158.467C22.7954 158.031 26.5771 147.4 27.1296 145.924C27.3841 145.243 28.4011 142.195 28.6791 141.836C29.207 142.232 35.025 157.735 35.696 158.49C36.3916 158.527 36.2907 158.224 36.7435 157.028C39.2795 150.341 41.7498 143.342 44.2413 136.598C44.7433 135.238 45.0635 134.074 45.8928 133.172C47.2594 131.686 48.8382 131.851 49.3497 131.582L49.3274 131.186C48.7092 131.047 42.6741 131.071 42.1838 131.203C42.2695 132.223 43.0483 131.244 44.0477 132.584C44.6166 133.347 44.6166 134.067 44.2565 135.046C43.6818 136.609 43.1492 138.041 42.5709 139.614C42.1979 140.628 39.2502 148.386 39.3065 148.749Z" fill="#EFA35A"/>
<path fill-rule="evenodd" clip-rule="evenodd" d="M137.455 156.942L137.458 131.713C138.491 131.575 141.402 131.649 142.3 131.958C143.515 132.377 144.532 133.375 145.053 134.386C145.92 136.065 145.565 141.954 145.565 144.257C145.565 145.982 145.565 147.707 145.565 149.432C145.565 151.121 145.752 152.699 145.095 154.171C144.633 155.205 143.55 156.241 142.414 156.662C141.435 157.025 138.575 157.121 137.455 156.942ZM137.044 131.108C135.841 131.109 127.952 131.003 127.481 131.171L127.47 131.564C128.058 131.93 129.921 131.614 130.78 131.71L130.779 156.941C129.954 157.069 128.091 156.827 127.477 157.046L127.465 157.438C127.908 157.684 135.95 157.531 137.141 157.535C140.234 157.544 143.109 157.759 145.78 156.514C146.357 156.245 146.871 155.971 147.362 155.658C147.761 155.405 148.518 154.858 148.754 154.61L149.915 153.335C151.778 150.965 152.902 147.559 152.87 144.257C152.834 140.617 151.161 136.083 148.622 133.938C145.034 130.907 141.738 131.1 137.044 131.108Z" fill="white"/>
<path fill-rule="evenodd" clip-rule="evenodd" d="M179.87 131.224C182.507 130.871 184.652 132.832 185.142 134.868C185.561 136.609 185.322 141.585 185.322 143.67C185.322 145.472 185.409 151.386 185.296 152.716C184.793 158.653 176.938 159.002 175.634 153.767C175.265 152.283 175.497 146.831 175.497 144.939C175.497 141.961 175.399 138.817 175.501 135.859C175.524 135.227 175.681 134.578 175.908 134.05C176.282 133.188 177.276 132.173 178.097 131.746C178.645 131.46 179.157 131.32 179.87 131.224ZM192.757 144.939C192.91 143.301 192.478 140.847 191.986 139.343C191.119 136.701 190.028 134.973 188.152 133.322C183.601 129.314 175.555 129.859 171.67 134.201C171.487 134.405 171.411 134.442 171.248 134.654C171.121 134.822 171.08 134.889 170.915 135.101C166.948 140.146 167.125 148.472 170.989 153.628C175.179 159.219 184.519 159.524 189.142 154.422C189.651 153.862 190.132 153.257 190.558 152.523C192.147 149.79 192.459 148.121 192.757 144.939Z" fill="white"/>
<path fill-rule="evenodd" clip-rule="evenodd" d="M56.0865 57.3964C55.8331 58.0046 56.0055 63.824 56.0055 64.9747C56.0055 67.5134 55.9316 70.1648 56.0055 72.6881L72.5753 72.6999L72.5612 55.3027L72.0287 55.3567C71.4129 55.311 65.0447 56.1846 63.955 56.3501C62.6365 56.5509 61.2887 56.6918 59.9761 56.8597C58.8618 57.003 57.0976 57.1369 56.0865 57.3964Z" fill="white"/>
<path fill-rule="evenodd" clip-rule="evenodd" d="M56.0362 90.3518L72.5837 91.9288L72.5661 75.1328H55.9951L56.0362 90.3518Z" fill="white"/>
<path fill-rule="evenodd" clip-rule="evenodd" d="M35.7358 88.4093L52.9437 90.0943L52.98 75.1055L35.6982 75.1336L35.7358 88.4093Z" fill="white"/>
<path fill-rule="evenodd" clip-rule="evenodd" d="M35.6658 72.7525L53.0297 72.7208L52.9957 57.7754L35.6377 60.0557L35.6658 72.7525Z" fill="white"/>
<path fill-rule="evenodd" clip-rule="evenodd" d="M105.161 131.272C105.161 131.794 105.235 131.676 105.777 131.733C108.683 132.042 108.366 134.318 108.366 136.446C108.366 139.039 108.53 142.213 108.361 144.732C108.011 144.575 105.505 140.371 105.097 139.718C104.046 138.034 103.016 136.389 101.948 134.669C99.3362 130.453 100.358 131.128 97.1509 131.128C95.9275 131.128 89.6215 130.989 89.042 131.232C89.0854 131.708 89.0572 131.666 89.6297 131.671C90.1622 131.676 92.0284 131.552 92.2067 131.76C92.385 131.968 92.2748 150.564 92.2689 153.437C92.2595 158.148 88.9693 156.1 89.0631 157.439C89.4795 157.621 95.4642 157.616 95.9029 157.47C96.0155 157.21 95.9944 157.424 95.958 157.048C94.6243 156.484 92.7991 157.376 92.8167 153.337L92.8143 132.862C93.212 133.007 92.9692 132.792 93.2507 133.233L107.588 156.266C108.114 157.128 108.242 157.586 108.802 157.499C108.861 157.383 108.839 157.48 108.882 157.241L108.897 156.561C108.812 149.645 108.894 142.322 108.884 135.371C108.883 134.219 108.977 133.179 109.673 132.48C110.022 132.129 110.345 131.966 110.869 131.829C112.084 131.512 112.054 131.988 112.11 131.213C111.754 131.083 105.547 130.971 105.161 131.272Z" fill="#EFA35A"/>
<path fill-rule="evenodd" clip-rule="evenodd" d="M74.2292 131.658C74.6913 131.657 75.3482 131.731 75.679 131.579C75.6661 130.988 75.6121 131.118 74.9177 131.13C71.1712 131.197 65.888 130.968 62.4722 131.202C62.5262 131.801 62.62 131.679 63.3015 131.664C66.0487 131.598 65.7355 131.436 65.732 132.637C65.7085 140.722 65.8 148.917 65.7203 156.974L64.4757 156.988C63.8083 156.992 62.3444 156.833 62.4628 157.31C62.5438 157.634 63.1068 157.53 63.4998 157.53C66.9191 157.527 72.7559 157.669 75.6086 157.466C75.7259 157.216 75.7107 157.449 75.6661 157.062C74.9494 156.823 73.3037 157.101 72.3723 156.953L72.37 133.614C72.37 133.261 72.228 131.81 72.5307 131.722C72.5494 131.717 72.5823 131.702 72.6058 131.696L72.8603 131.653C72.9729 131.644 73.2251 131.652 73.3494 131.653C73.6427 131.657 73.9359 131.658 74.2292 131.658Z" fill="#EFA359"/>
<path fill-rule="evenodd" clip-rule="evenodd" d="M196.811 85.8812L196.826 74.1602L182.599 74.1789V87.9583L196.811 85.8812Z" fill="white"/>
<path fill-rule="evenodd" clip-rule="evenodd" d="M182.594 71.8764L196.833 71.9128C196.784 70.0717 197.04 61.1641 196.737 60.2259L182.591 58.2168L182.594 71.8764Z" fill="white"/>
<path fill-rule="evenodd" clip-rule="evenodd" d="M212.417 83.64L212.434 74.1582L199.181 74.1758L199.204 85.5551L212.417 83.64Z" fill="white"/>
<path fill-rule="evenodd" clip-rule="evenodd" d="M199.176 71.878L212.441 71.9144C212.4 70.4067 212.608 63.1994 212.371 62.442L199.173 60.5645L199.176 71.878Z" fill="white"/>
<path fill-rule="evenodd" clip-rule="evenodd" d="M51.3447 201.685C51.1593 202.145 51.0772 201.769 51.0749 201.766C50.8121 201.043 49.0632 196.566 48.7687 196.243L47.7271 196.239C47.6145 196.754 47.6169 202.801 47.7353 203.288L48.4462 203.261L48.4532 197.566C48.9341 198.096 50.5153 202.812 50.9857 203.304C51.4995 203.291 51.3986 203.268 51.571 202.808L52.5141 200.531C52.9235 199.514 53.3387 198.54 53.72 197.549C53.7352 197.572 53.7493 197.603 53.7552 197.622C53.7622 197.641 53.7798 197.674 53.7868 197.697C53.9499 198.243 53.7329 202.328 53.8748 203.293L54.629 203.28L54.5868 196.232L53.5088 196.257C53.2308 196.606 51.3493 201.303 51.3447 201.685Z" fill="white"/>
<path fill-rule="evenodd" clip-rule="evenodd" d="M150.67 196.955L153.459 196.952L153.461 202.568L149.759 202.581C150.055 201.657 150.404 201.276 150.542 200.081C150.668 199.003 150.655 198.037 150.67 196.955ZM148.862 203.293L154.303 203.319L154.307 204.997L155.059 204.941L155.023 202.598L154.236 202.539L154.183 196.23L149.948 196.242C149.728 197.194 149.962 198.919 149.738 200.118C149.631 200.696 149.494 201.193 149.265 201.692C148.334 203.728 147.849 201.057 148.108 204.964L148.846 204.977L148.862 203.293Z" fill="white"/>
<path fill-rule="evenodd" clip-rule="evenodd" d="M27.7723 196.956L30.5617 196.953L30.5629 202.568L26.8797 202.583C27.1647 201.683 27.5331 201.293 27.6679 200.087C27.7899 198.986 27.7536 198.063 27.7723 196.956ZM31.3934 202.594C31.3113 202.416 31.3793 202.799 31.3136 202.354L31.3019 196.29C30.177 196.32 27.9776 196.166 27.0099 196.366C26.9055 197.674 27.1119 198.898 26.8422 200.234C26.7295 200.794 26.5911 201.342 26.3589 201.784C26.3026 201.892 26.0316 202.342 25.9847 202.389C25.6434 202.739 25.7407 202.476 25.2422 202.642L25.2633 204.984L25.9483 204.977L25.9601 203.294L31.4039 203.321L31.4086 204.997L32.1605 204.942L32.1253 202.591L31.3934 202.594Z" fill="white"/>
<path fill-rule="evenodd" clip-rule="evenodd" d="M76.4037 197.002L79.1942 196.947L79.1977 202.558L75.4981 202.58C75.8066 201.691 76.1186 201.262 76.2629 200.106C76.4013 198.987 76.3626 198.117 76.4037 197.002ZM75.572 198.911C75.5814 199.7 75.4324 200.567 75.1837 201.255C74.5902 202.897 74.3521 202.462 73.8184 202.643L73.8324 204.991L74.5878 204.951L74.589 203.294L80.0153 203.295L80.027 204.963L80.7731 204.976L80.7191 202.584L79.9895 202.556L79.9778 196.338L75.6999 196.309C75.7045 196.753 75.8136 198.724 75.572 198.911Z" fill="white"/>
<path fill-rule="evenodd" clip-rule="evenodd" d="M205.777 196.268C205.618 197.293 205.743 199.446 205.743 200.592C205.74 202.947 205.458 203.368 206.285 203.31C206.738 203.278 206.707 203.193 206.911 202.869C207.225 202.369 210.054 197.843 210.42 197.56C210.472 198.625 210.424 199.807 210.424 200.886C210.425 203.56 210.198 203.319 211.143 203.285C211.256 202.798 211.257 196.7 211.143 196.238C209.963 196.204 210.232 196.415 209.645 197.307C209.308 197.821 208.96 198.331 208.632 198.828C208.259 199.393 206.953 201.588 206.571 201.869C206.499 200.836 206.556 199.599 206.556 198.543C206.558 196.059 206.777 196.086 205.777 196.268Z" fill="white"/>
<path fill-rule="evenodd" clip-rule="evenodd" d="M120.103 200.204C119.715 195.954 125.26 195.615 125.719 199.331C125.934 201.079 124.847 202.523 123.372 202.726C121.596 202.971 120.244 201.757 120.103 200.204ZM119.265 200.398C119.909 204.867 127.094 204.382 126.553 199.249C126.346 197.288 124.593 195.774 122.316 196.099C120.392 196.375 118.933 198.093 119.265 200.398Z" fill="white"/>
<path fill-rule="evenodd" clip-rule="evenodd" d="M36.8282 200.204C36.3731 195.986 42.0727 195.605 42.4457 199.325C42.868 203.535 37.2293 203.919 36.8282 200.204ZM36.0059 200.399C36.6405 204.89 43.7911 204.421 43.2808 199.239C42.8222 194.595 35.2669 195.169 36.0059 200.399Z" fill="white"/>
<path fill-rule="evenodd" clip-rule="evenodd" d="M159.242 203.265C160.338 203.398 160.237 203.03 160.757 202.264C161.24 201.55 163.602 197.732 163.858 197.587L163.898 203.292L164.65 203.279L164.601 196.249C164.106 196.205 163.868 196.148 163.602 196.518C162.957 197.416 160.326 201.759 159.973 201.942L159.923 196.244C158.922 196.169 159.214 196.438 159.219 197.469C159.226 198.893 159.136 202.278 159.242 203.265Z" fill="white"/>
<path fill-rule="evenodd" clip-rule="evenodd" d="M98.5854 196.979C98.7109 197.179 98.6312 196.798 98.6922 197.273L98.6136 199.619C98.1538 199.737 97.477 199.709 97.1075 199.53C96.1092 199.511 95.3128 198.571 95.8946 197.579C96.3321 196.834 97.6775 196.88 98.5854 196.979ZM99.4276 196.262C98.9561 196.188 97.4136 196.205 96.9139 196.263C96.094 196.359 95.5685 196.658 95.2354 197.117C94.8764 197.611 94.8166 198.514 95.0981 199.136C95.4066 199.818 95.823 199.913 96.5491 200.197C96.3239 201.023 94.9128 202.591 94.8213 203.296C95.9521 203.316 95.6037 203.426 96.63 201.733C97.6541 200.045 97.2189 200.263 98.6441 200.271C98.6511 200.644 98.6065 202.964 98.657 203.109C98.7473 203.369 99.3807 203.485 99.4628 203.033C99.559 202.507 99.4628 196.516 99.4276 196.262Z" fill="white"/>
<path fill-rule="evenodd" clip-rule="evenodd" d="M187.952 199.07C187.932 199.914 187.871 200.748 187.633 201.536C187.291 202.669 186.963 202.507 185.924 202.63L185.853 203.291C189.171 203.919 188.675 199.494 188.767 196.959L191.444 196.995C191.463 198.298 191.272 202.319 191.503 203.288H192.27L192.266 196.342L188.061 196.293L188.062 198.349C188.062 198.43 188.069 198.682 188.061 198.745L187.952 199.07Z" fill="white"/>
<path fill-rule="evenodd" clip-rule="evenodd" d="M131.69 199.996C132.998 199.868 134.907 199.845 134.825 201.372C134.75 202.779 132.952 202.67 131.683 202.634L131.69 199.996ZM133.681 203.182C135.119 203.287 136.1 201.719 135.438 200.348C134.831 199.093 133.142 199.355 131.681 199.244L131.698 196.974C132.298 196.898 133.19 196.95 133.825 196.95C134.594 196.951 135.46 197.213 135.096 196.297C134.625 196.092 131.697 196.18 131.001 196.25L130.993 203.208C131.874 203.257 132.832 203.223 133.681 203.182Z" fill="white"/>
<path fill-rule="evenodd" clip-rule="evenodd" d="M60.4606 200.732C60.5498 200.263 61.6958 197.478 61.948 197.302L63.3251 200.719L60.4606 200.732ZM58.5615 203.281C59.5034 203.35 59.3545 203.342 59.6583 202.604C60.2905 201.065 59.6207 201.427 63.6793 201.482C63.9221 202.055 64.1462 202.87 64.4899 203.292L65.2312 203.288C65.2112 202.911 62.5157 196.596 62.2318 196.238L61.5832 196.239C61.3016 196.68 58.5944 202.928 58.5615 203.281Z" fill="white"/>
<path fill-rule="evenodd" clip-rule="evenodd" d="M89.7321 196.967C89.7438 196.989 89.7661 196.995 89.7696 197.032L89.8329 197.272C89.9068 198.016 89.752 201.958 89.8411 203.22L90.5133 203.217L90.5144 196.293C89.4587 196.29 87.2371 196.179 86.3116 196.355C86.2271 197.68 86.3878 199.042 86.2013 200.377C85.989 201.892 85.8318 202.62 84.2553 202.602L84.2002 203.299C87.494 203.821 87.0306 199.61 87.0752 196.953L89.7321 196.967Z" fill="white"/>
<path fill-rule="evenodd" clip-rule="evenodd" d="M178.76 202.542L178.761 199.977L182.114 199.967L182.079 199.259L178.757 199.26L178.761 196.955C179.518 196.945 180.277 196.951 181.033 196.951C181.808 196.951 182.666 197.215 182.305 196.296C181.864 196.105 178.836 196.208 178.107 196.242C177.817 196.787 177.961 202.205 177.998 203.226L182.405 203.23L182.4 202.648C181.783 202.633 181.164 202.643 180.546 202.643C179.775 202.644 179.095 202.732 178.76 202.542Z" fill="white"/>
<path fill-rule="evenodd" clip-rule="evenodd" d="M201.475 203.131L201.448 202.58L197.772 202.584L197.782 199.974L201.117 199.969L201.083 199.257L197.772 199.266L197.79 196.956C198.587 196.935 200.784 197.103 201.367 196.889L201.377 196.395C200.871 196.147 197.783 196.258 197.024 196.297L197.027 203.219C197.831 203.242 200.936 203.381 201.475 203.131Z" fill="white"/>
<path fill-rule="evenodd" clip-rule="evenodd" d="M109.645 203.267C110.564 203.418 110.395 203.214 110.385 202.352L110.396 196.95L114.118 196.968L114.155 203.296L114.802 203.269L114.8 196.293L109.647 196.309L109.645 203.267Z" fill="white"/>
<path fill-rule="evenodd" clip-rule="evenodd" d="M140.858 202.521L140.859 199.976L144.269 199.967L144.233 199.259L140.849 199.244L140.867 196.952L144.468 196.945L144.427 196.23L140.168 196.25L140.157 203.21L144.547 203.219L144.556 202.657L141.724 202.65C141.009 202.647 141.062 202.717 140.858 202.521Z" fill="white"/>
<path fill-rule="evenodd" clip-rule="evenodd" d="M170.923 196.953L170.945 203.279L171.655 203.281L171.685 196.952L174 196.94L173.97 196.234H169.133C168.837 196.234 168.735 196.154 168.606 196.363C168.529 196.49 168.57 196.808 168.64 196.878C168.79 197.03 170.571 196.952 170.923 196.953Z" fill="white"/>
<path fill-rule="evenodd" clip-rule="evenodd" d="M56.0366 90.3513L55.9955 75.1323H72.5664L72.584 91.9283C72.7565 91.6359 72.6755 90.2163 72.6755 89.871C72.6755 87.7845 72.7717 75.8368 72.631 75.0713C71.9389 74.9456 56.5703 74.9527 55.9392 75.0783C55.7937 75.757 55.8864 86.7371 55.8876 88.6017C55.8876 89.1982 55.7738 90.2045 56.0366 90.3513Z" fill="white"/>
<path fill-rule="evenodd" clip-rule="evenodd" d="M35.7365 88.4084L35.6989 75.1327L52.9807 75.1045L52.9443 90.0934C53.1285 89.8151 53.0722 89.5661 53.0675 89.188C53.0429 86.8854 53.1684 75.8795 53.0229 75.0728C52.3883 74.9331 36.384 74.9331 35.6508 75.0787C35.455 75.9969 35.6274 85.1534 35.5957 87.7261C35.5852 88.561 35.625 88.3344 35.7365 88.4084Z" fill="white"/>
<path fill-rule="evenodd" clip-rule="evenodd" d="M56.0862 57.3963C55.8704 57.5184 55.9607 57.239 55.8845 57.7427C55.8786 57.7756 55.8892 58.1701 55.8892 58.2371C55.9185 60.6395 55.7895 71.919 55.9349 72.7867L72.629 72.7456C72.7745 71.9953 72.7663 55.9603 72.6196 55.2522C72.3006 55.2017 72.2361 55.1818 72.0285 55.3567L72.561 55.3027L72.5751 72.6998L56.0053 72.6881C55.9314 70.1647 56.0053 67.5133 56.0053 64.9747C56.0053 63.824 55.8329 58.0046 56.0862 57.3963Z" fill="white"/>
<path fill-rule="evenodd" clip-rule="evenodd" d="M196.811 85.8811C196.95 85.7144 196.861 86.0843 196.94 85.5794L196.936 84.404C196.939 82.3573 197.051 74.9668 196.893 74.0956C196.082 73.95 185.592 74.0744 183.373 74.0474C183.051 74.0439 182.741 73.9676 182.599 74.1789L196.826 74.1602L196.811 85.8811Z" fill="#665A3D"/>
<path fill-rule="evenodd" clip-rule="evenodd" d="M212.417 83.6369C212.56 83.4667 212.495 83.6686 212.548 83.3305L212.543 82.449C212.542 80.7575 212.642 74.8685 212.5 74.0961C211.801 73.9682 203.8 74.048 202.395 74.048C202.052 74.048 199.367 73.9036 199.181 74.176L212.434 74.1583L212.417 83.6369Z" fill="white"/>
<path fill-rule="evenodd" clip-rule="evenodd" d="M182.595 71.8771C182.813 72.0932 182.735 72.0086 183.472 72.0016C185.639 71.9804 196.142 72.0967 196.891 71.9628C197.053 71.1162 196.931 64.7766 196.931 63.0212C196.931 62.3707 197.079 60.3416 196.738 60.2266C197.04 61.1648 196.784 70.0723 196.834 71.9135L182.595 71.8771Z" fill="white"/>
<path fill-rule="evenodd" clip-rule="evenodd" d="M199.176 71.8742C199.329 72.0256 199.109 71.981 199.558 72.0115C200.824 72.0996 212.285 71.9974 212.496 71.9599C212.635 71.2427 212.535 65.1881 212.536 63.5096C212.536 63.1257 212.652 62.5928 212.371 62.4414C212.608 63.1985 212.399 70.4034 212.44 71.9106L199.176 71.8742Z" fill="#5C513C"/>
<path fill-rule="evenodd" clip-rule="evenodd" d="M208.62 195.017C207.874 195.125 207.726 194.658 207.509 194.246C206.85 194.292 206.881 194.528 207.229 195.07C207.797 195.953 209.962 195.9 209.916 194.275C208.991 194.21 209.512 194.889 208.62 195.017Z" fill="white"/>
<path fill-rule="evenodd" clip-rule="evenodd" d="M109.644 203.267L109.647 196.31L114.8 196.293L114.802 203.269C114.868 203.142 114.826 203.396 114.896 203.034L114.905 202.35C114.895 201.008 114.987 196.922 114.854 196.199L109.583 196.25C109.437 197.043 109.538 198.905 109.538 199.812C109.538 200.513 109.41 202.844 109.644 203.267Z" fill="white"/>
<path fill-rule="evenodd" clip-rule="evenodd" d="M89.732 196.966L89.7754 203.312L90.5707 203.281C90.6716 202.749 90.6716 196.728 90.5648 196.246C90.0663 196.138 88.0757 196.203 87.2992 196.201C87.1479 196.201 86.837 196.179 86.708 196.191C86.2799 196.229 86.4464 196.148 86.3115 196.354C87.237 196.178 89.4587 196.29 90.5144 196.292L90.5132 203.217L89.8411 203.219C89.7519 201.957 89.9068 198.015 89.8329 197.271L89.7695 197.032C89.766 196.994 89.7437 196.988 89.732 196.966Z" fill="white"/>
<path fill-rule="evenodd" clip-rule="evenodd" d="M140.858 202.521C141.062 202.717 141.009 202.646 141.725 202.65L144.556 202.657L144.547 203.219L140.158 203.21L140.168 196.25C140.11 196.363 140.14 196.137 140.076 196.491C139.966 197.083 140.092 203.24 140.103 203.321L144.633 203.28L144.606 202.551L140.858 202.521Z" fill="white"/>
<path fill-rule="evenodd" clip-rule="evenodd" d="M178.76 202.542C179.094 202.732 179.774 202.644 180.545 202.643C181.163 202.643 181.783 202.634 182.4 202.648L182.404 203.23L177.997 203.226C177.961 202.205 177.817 196.787 178.106 196.242C177.919 196.341 177.894 196.012 177.907 197.078C177.91 197.37 177.908 197.665 177.908 197.957C177.909 198.543 177.909 199.129 177.909 199.714C177.908 200.704 177.813 202.382 177.944 203.326L182.482 203.283L182.454 202.546L178.76 202.542Z" fill="white"/>
<path fill-rule="evenodd" clip-rule="evenodd" d="M201.475 203.133C200.937 203.383 197.832 203.243 197.027 203.221L197.025 196.299C197.784 196.259 200.871 196.148 201.378 196.396C201.247 196.143 201.467 196.212 200.939 196.184L196.929 196.248L196.977 203.283C197.58 203.394 198.62 203.331 199.274 203.332C199.947 203.332 201.38 203.475 201.475 203.133Z" fill="white"/>
<path fill-rule="evenodd" clip-rule="evenodd" d="M133.681 203.181C132.833 203.222 131.874 203.257 130.993 203.207L131.001 196.25C130.763 196.709 130.906 203.09 130.933 203.287C131.332 203.336 133.556 203.438 133.681 203.181Z" fill="white"/>
<path fill-rule="evenodd" clip-rule="evenodd" d="M31.3942 202.595L31.3614 196.247C30.7925 196.126 29.7919 196.206 29.1679 196.204C28.7773 196.204 28.3867 196.207 27.9972 196.206C27.8506 196.204 27.5269 196.183 27.4049 196.195C26.9521 196.236 27.1409 196.152 27.0107 196.366C27.9785 196.167 30.1778 196.321 31.3027 196.29L31.3145 202.354C31.3802 202.799 31.3121 202.416 31.3942 202.595Z" fill="#5D5233"/>
<path fill-rule="evenodd" clip-rule="evenodd" d="M187.953 199.069L188.062 198.744C188.07 198.68 188.063 198.429 188.063 198.348L188.062 196.292L192.267 196.341C192.029 196.11 191.663 196.194 191.178 196.197C190.401 196.203 188.51 196.149 187.97 196.248L187.953 199.069Z" fill="white"/>
<path fill-rule="evenodd" clip-rule="evenodd" d="M75.5723 198.91C75.8139 198.724 75.7048 196.753 75.7001 196.308L79.978 196.337C79.8209 196.157 80.0367 196.28 79.781 196.207C79.7786 196.206 79.5182 196.191 79.503 196.189L75.6098 196.248L75.5723 198.91Z" fill="white"/>
<path fill-rule="evenodd" clip-rule="evenodd" d="M97.1074 199.529C97.4769 199.708 98.1537 199.736 98.6135 199.618L98.6921 197.272C98.6311 196.797 98.7109 197.178 98.5854 196.979L98.5889 199.548L97.1074 199.529Z" fill="#776A55"/>
<path fill-rule="evenodd" clip-rule="evenodd" d="M39.3068 148.749C39.2211 148.799 39.1296 148.879 39.1156 148.853C39.1003 148.828 39.0475 148.87 39.0088 148.895L38.7637 148.674C38.9115 149.015 38.8599 148.956 39.1402 149.067L39.3068 148.749Z" fill="#E7B888"/>
<path fill-rule="evenodd" clip-rule="evenodd" d="M238.105 74.8231L237.94 74.8795C238.067 75.0168 237.725 75.0708 238.096 75.0016C238.429 74.5954 238.119 74.8407 238.105 74.8231Z" fill="#8E846F"/>
<path fill-rule="evenodd" clip-rule="evenodd" d="M0.285998 74.2075L0.248462 74.1641C0.0162087 74.3214 0.112395 74.1371 0.0185547 74.4587C0.280133 74.3566 0.162833 74.4305 0.285998 74.2075Z" fill="#504732"/>
<path fill-rule="evenodd" clip-rule="evenodd" d="M51.0742 201.768C51.0766 201.772 51.1587 202.148 51.344 201.688L51.0742 201.768Z" fill="#675A46"/>
</g>
<defs>
<clipPath id="clip0_383_1078">
<rect width="239" height="205" fill="white"/>
</clipPath>
</defs>
</svg>
