<svg width="344" height="47" viewBox="0 0 344 47" fill="none" xmlns="http://www.w3.org/2000/svg">
<path d="M61.166 42H54.542V9.8H81.498V42H74.92V15.734H61.166V42ZM95.2617 42H88.6377V9.8H102.714C106.164 9.8 108.924 10.72 110.902 12.514C112.926 14.308 113.938 16.608 113.938 19.506C113.938 22.404 112.926 24.75 110.902 26.544C108.924 28.338 106.164 29.258 102.714 29.258H95.2617V42ZM95.2617 15.596V23.6H102.254C105.428 23.6 107.314 22.174 107.314 19.598C107.314 17.022 105.428 15.596 102.254 15.596H95.2617ZM127.424 33.444C129.31 35.422 131.702 36.434 134.554 36.434C137.406 36.434 139.752 35.422 141.638 33.444C143.524 31.466 144.49 28.936 144.49 25.9C144.49 22.864 143.524 20.334 141.638 18.356C139.752 16.378 137.406 15.366 134.554 15.366C131.702 15.366 129.31 16.378 127.424 18.356C125.538 20.334 124.618 22.864 124.618 25.9C124.618 28.936 125.538 31.466 127.424 33.444ZM117.856 25.9C117.856 21.208 119.42 17.252 122.594 14.032C125.768 10.766 129.77 9.156 134.554 9.156C139.338 9.156 143.294 10.766 146.468 14.032C149.642 17.252 151.252 21.208 151.252 25.9C151.252 30.546 149.642 34.502 146.468 37.768C143.294 41.034 139.338 42.644 134.554 42.644C129.77 42.644 125.768 41.034 122.594 37.768C119.42 34.502 117.856 30.546 117.856 25.9ZM181.383 42H157.233V9.8H180.877V15.734H163.857V21.944H177.565V27.786H163.857V36.066H181.383V42ZM193.281 42H186.657V9.8H193.281V22.496L205.149 9.8H213.245L199.583 24.566L215.591 42H207.127L193.281 27.142V42ZM216.525 15.734V9.8H243.527V15.734H233.315V42H226.691V15.734H216.525ZM272.62 42H248.47V9.8H272.114V15.734H255.094V21.944H268.802V27.786H255.094V36.066H272.62V42Z" fill="#EFA359"/>
<path d="M22.908 9.248C27.462 9.248 31.142 10.674 33.948 13.572C36.754 16.424 38.134 20.058 38.134 24.52C38.134 29.488 36.478 33.72 33.166 37.262C29.9 40.804 25.806 42.552 20.884 42.552C16.33 42.552 12.65 41.126 9.844 38.228C7.038 35.33 5.658 31.696 5.658 27.234C5.658 22.266 7.314 18.034 10.58 14.538C13.892 10.996 17.986 9.248 22.908 9.248ZM20.976 39.378C24.794 39.378 28.06 37.952 30.682 35.1C33.35 32.248 34.684 28.752 34.684 24.566C34.684 21.116 33.58 18.218 31.418 15.918C29.256 13.572 26.358 12.422 22.816 12.422C18.998 12.422 15.732 13.848 13.064 16.7C10.442 19.506 9.108 23.002 9.108 27.188C9.108 30.684 10.212 33.582 12.374 35.928C14.536 38.228 17.434 39.378 20.976 39.378Z" fill="#EFA359"/>
</svg>
