<svg width="50" height="46" viewBox="0 0 50 46" fill="none" xmlns="http://www.w3.org/2000/svg">
<path fill-rule="evenodd" clip-rule="evenodd" d="M0.046875 16.6414L0.054729 16.6512C0.19021 16.5726 0.308019 16.3972 0.419202 16.2831C0.673965 16.0212 1.20828 15.5019 1.42402 15.2579C1.62282 15.0331 1.87292 14.8092 2.05013 14.616L2.40871 14.234C2.44749 14.1934 2.47129 14.1805 2.50811 14.1431C2.54566 14.1049 2.5194 14.1289 2.54664 14.0972C2.57978 14.0588 2.54885 14.0896 2.58763 14.0538C2.66862 13.9792 2.68458 13.9473 2.76115 13.8683L3.8423 12.7503C3.91397 12.6832 3.95299 12.6363 4.01951 12.5675L5.73265 10.813C5.77364 10.7711 5.76627 10.7661 5.81217 10.7236L6.3563 10.1685C6.52737 9.98432 6.70581 9.77591 6.89651 9.60913L7.2438 9.23709C7.31277 9.16305 7.36799 9.12748 7.43819 9.05134L7.88513 8.5884C7.90746 8.56574 7.93274 8.53255 7.96587 8.50066L8.32544 8.11967C8.39122 8.05143 8.44251 8.01718 8.50952 7.94472L9.93967 6.45685C9.97649 6.41864 10.0025 6.40152 10.0366 6.36278C10.2362 6.13698 10.4813 5.91803 10.6627 5.72095L11.3735 4.97293C11.4373 4.90679 11.4901 4.8591 11.5458 4.78928C11.6587 4.8404 13.3579 6.75906 13.593 7.01543C13.9349 7.38799 14.264 7.75291 14.6157 8.13021L15.6186 9.24473C15.7752 9.44313 15.9644 9.62151 16.136 9.80647L17.1445 10.9147C17.8334 11.6506 18.4791 12.411 19.1664 13.1479C19.3374 13.3313 19.5082 13.5144 19.6771 13.6949C19.7731 13.7977 19.8371 13.8899 19.9321 13.9908C20.0222 14.0859 20.0968 14.1713 20.1879 14.2643C20.3633 14.4432 20.5406 14.6363 20.689 14.8216C20.8363 15.0049 21.0273 15.1888 21.1973 15.3712C21.3743 15.5611 21.5223 15.7408 21.6978 15.9295C21.9604 16.2112 22.5001 16.8356 22.7186 17.0466C22.9016 17.224 23.0634 17.4158 23.2188 17.6052C23.3405 17.7533 23.4831 17.8716 23.6088 18.0186C23.6544 18.0721 23.6772 18.1037 23.7261 18.1559C23.8733 18.3135 24.3306 18.8565 24.4931 18.9975C24.5721 19.066 24.8556 19.032 24.9758 19.032H29.0778C29.6111 19.032 30.656 19.0633 31.1252 19.0278L32.4292 17.279C32.5412 17.1231 32.6469 16.9937 32.7557 16.8406L33.409 15.9648C33.5143 15.8186 33.6176 15.6971 33.7291 15.5419L39.2632 8.1397C39.3292 8.04906 39.3631 8.00479 39.4283 7.92285C39.799 7.45886 40.2017 6.89001 40.564 6.40336C40.6759 6.25318 40.7736 6.12328 40.8907 5.96519L41.3828 5.31044C41.4272 5.25116 41.4787 5.15341 41.5477 5.10625C41.7232 5.28831 42.4062 6.3259 42.5928 6.57805C42.9511 7.06285 43.2704 7.55899 43.6224 8.03588C44.1554 8.75782 44.6473 9.4982 45.1684 10.2325L47.2268 13.1495C47.5025 13.5463 49.7511 16.6878 49.7811 16.8021L49.8157 16.7895C49.6687 16.4398 49.4898 16.0842 49.3275 15.7361L42.9322 2.09467C42.6958 1.58668 42.1362 0.441329 41.961 0L14.9552 3.54908L14.0269 2.65035C13.9852 2.60845 13.9449 2.58342 13.9037 2.54048L12.8775 1.53899C12.6949 1.38143 12.491 1.15115 12.3121 0.98568L12.0877 0.766201C12.0401 0.724307 12.0099 0.700067 11.9645 0.656593L11.5156 0.218425C11.4628 0.159142 11.3468 0.0337255 11.2815 0.0118566L10.2214 1.56639C10.1058 1.73449 9.97919 1.91445 9.86972 2.08703L9.16655 3.1283C8.9243 3.47188 8.69777 3.82204 8.46411 4.17142C7.99066 4.87913 7.52458 5.55416 7.05629 6.25318C6.81871 6.60782 6.57204 6.94508 6.35189 7.29313C5.93563 7.95104 5.38978 8.68431 4.95314 9.36277C4.55677 9.97826 3.9606 10.8362 3.5463 11.4461C2.61487 12.8173 1.63436 14.2406 0.729433 15.608C0.63175 15.7556 0.0667553 16.5576 0.046875 16.6414Z" fill="#353535"/>
<path fill-rule="evenodd" clip-rule="evenodd" d="M45.9899 31.3473C45.8959 31.0922 45.3543 29.5124 45.2931 29.4199L43.1866 29.4239L43.1817 29.5485L43.8443 29.5548C43.8649 29.7337 43.8487 33.9623 43.849 34.3639C43.8492 34.6418 43.8662 34.8534 43.7123 35.0226C43.5069 35.2484 43.3034 35.1741 43.1812 35.2402L43.1797 35.349C43.4028 35.3535 44.5664 35.3904 44.6773 35.3279L44.6754 35.2297C44.1389 35.1709 43.9808 35.0597 43.9813 34.4516L43.9801 29.9224C44.0817 30.1102 44.8938 32.4687 44.9937 32.7464C45.1628 33.2169 45.3265 33.6844 45.4951 34.1584C45.6606 34.6231 45.8468 35.1093 45.9926 35.5711L46.118 35.5643C46.2798 35.1158 46.4263 34.6013 46.5674 34.1441C46.7132 33.6725 46.8656 33.208 47.0117 32.7366L47.8984 29.9387L47.9225 35.2241C47.7811 35.2281 47.343 35.2009 47.2397 35.2399L47.2375 35.3279C47.3119 35.3722 49.7316 35.3617 49.9991 35.348L49.9859 35.2262H49.3166V29.5519L49.9896 29.5485L49.9876 29.4199H47.9402C47.8705 29.5422 47.4027 31.0743 47.3138 31.352C47.2336 31.6029 46.752 33.2122 46.6907 33.2852C46.6322 33.2064 46.0803 31.5923 45.9899 31.3473Z" fill="#353535"/>
<path fill-rule="evenodd" clip-rule="evenodd" d="M3.81419 29.5452C3.99041 29.536 5.03229 29.5228 5.12089 29.5592C5.19968 29.6006 5.4542 30.3517 5.50623 30.4866C5.62993 30.8076 5.747 31.1274 5.87635 31.4481C5.96446 31.667 5.88076 31.7695 5.81204 31.9721C5.73546 32.1979 5.34841 33.4018 5.28239 33.4389L4.54044 31.5016C4.443 31.2502 3.80707 29.6685 3.81419 29.5452ZM8.22051 33.3775L8.18565 33.4489C8.12699 33.4239 8.13779 33.4374 8.10687 33.3607C8.07791 33.1486 6.67745 29.7463 6.67303 29.5463C6.82496 29.5344 7.10647 29.58 7.21864 29.5249C7.21618 29.3927 7.23925 29.424 6.93565 29.4253C6.17406 29.4285 1.77584 29.3921 1.59766 29.4398C1.60772 29.5571 1.59839 29.5465 1.72946 29.5458C2.27555 29.5413 2.25813 29.4728 2.35924 29.7455L2.58014 30.3193C2.67929 30.5789 2.77526 30.8244 2.87073 31.0805C3.06193 31.5914 3.25852 32.0902 3.45364 32.6019L4.483 35.2873C4.50828 35.3526 4.52915 35.41 4.55443 35.4754C4.58658 35.5589 4.59713 35.5779 4.70267 35.5581C4.76575 35.4604 5.55703 33.0748 5.67263 32.7436C5.72589 32.5908 5.93869 31.9068 5.99685 31.8264C6.1073 31.9152 7.32466 35.394 7.46505 35.5634C7.6106 35.5715 7.58949 35.5036 7.68423 35.2353C8.21486 33.7348 8.73175 32.1642 9.25306 30.6511C9.3581 30.3459 9.42511 30.0846 9.59863 29.8822C9.88456 29.5489 10.2149 29.5858 10.3219 29.5255L10.3173 29.4367C10.1879 29.4053 8.92515 29.4108 8.82256 29.4404C8.84048 29.6693 9.00345 29.4496 9.21256 29.7502C9.3316 29.9215 9.3316 30.083 9.25625 30.3027C9.13598 30.6534 9.02455 30.9749 8.90355 31.3277C8.82551 31.5553 8.20873 33.2961 8.22051 33.3775Z" fill="#EFA35A"/>
<path fill-rule="evenodd" clip-rule="evenodd" d="M28.7583 35.2161L28.7588 29.5549C28.9751 29.5241 29.5842 29.5407 29.772 29.61C30.0263 29.7041 30.2391 29.928 30.348 30.1549C30.5294 30.5316 30.4553 31.853 30.4553 32.3697C30.4553 32.7567 30.4553 33.1438 30.4553 33.5308C30.4553 33.91 30.4943 34.2641 30.3569 34.5942C30.2602 34.8264 30.0336 35.0588 29.7958 35.1534C29.5911 35.2348 28.9927 35.2564 28.7583 35.2161ZM28.6722 29.4192C28.4206 29.4195 26.7698 29.3958 26.6714 29.4335L26.669 29.5215C26.7922 29.6037 27.1819 29.5328 27.3616 29.5544L27.3613 35.2158C27.1888 35.2445 26.799 35.1902 26.6704 35.2395L26.668 35.3275C26.7607 35.3826 28.4435 35.3483 28.6926 35.3491C29.3398 35.3512 29.9414 35.3994 30.5002 35.1202C30.621 35.0598 30.7285 34.9982 30.8313 34.9281C30.9148 34.8712 31.0731 34.7484 31.1224 34.6928L31.3654 34.4067C31.7551 33.8749 31.9905 33.1106 31.9836 32.3697C31.9763 31.5529 31.626 30.5356 31.0949 30.0542C30.3441 29.3742 29.6544 29.4174 28.6722 29.4192Z" fill="#353535"/>
<path fill-rule="evenodd" clip-rule="evenodd" d="M37.629 29.4451C38.1807 29.3658 38.6296 29.8058 38.7322 30.2627C38.8198 30.6534 38.7698 31.7698 38.7698 32.2377C38.7698 32.6422 38.7879 33.969 38.7644 34.2676C38.6591 35.5997 37.0156 35.678 36.7427 34.5034C36.6654 34.1703 36.714 32.947 36.714 32.5225C36.714 31.8544 36.6936 31.1488 36.715 30.485C36.7196 30.3433 36.7525 30.1976 36.8001 30.079C36.8782 29.8856 37.0863 29.658 37.2581 29.5621C37.3727 29.4981 37.4797 29.4664 37.629 29.4451ZM40.3256 32.5225C40.3575 32.155 40.2672 31.6043 40.1641 31.2668C39.9827 30.674 39.7544 30.2861 39.362 29.9157C38.4097 29.0164 36.7263 29.1387 35.9134 30.113C35.8751 30.1589 35.8591 30.167 35.825 30.2147C35.7985 30.2524 35.7899 30.2674 35.7553 30.3148C34.9252 31.447 34.9623 33.3154 35.7708 34.4723C36.6475 35.7267 38.6019 35.7952 39.5691 34.6504C39.6757 34.5247 39.7763 34.389 39.8654 34.2244C40.198 33.611 40.2632 33.2366 40.3256 32.5225Z" fill="#353535"/>
<path fill-rule="evenodd" clip-rule="evenodd" d="M11.732 12.879C11.679 13.0154 11.7151 14.3213 11.7151 14.5795C11.7151 15.1491 11.6997 15.7441 11.7151 16.3103L15.1821 16.3129L15.1792 12.4092L15.0678 12.4213C14.9389 12.411 13.6064 12.6071 13.3784 12.6442C13.1026 12.6893 12.8206 12.7209 12.5459 12.7586C12.3128 12.7907 11.9436 12.8207 11.732 12.879Z" fill="#353535"/>
<path fill-rule="evenodd" clip-rule="evenodd" d="M11.7195 20.2743L15.1819 20.6282L15.1782 16.8594H11.7109L11.7195 20.2743Z" fill="#353535"/>
<path fill-rule="evenodd" clip-rule="evenodd" d="M7.4727 19.8378L11.0732 20.2159L11.0809 16.8525L7.46484 16.8589L7.4727 19.8378Z" fill="#353535"/>
<path fill-rule="evenodd" clip-rule="evenodd" d="M7.45902 16.3246L11.0922 16.3174L11.0851 12.9639L7.45312 13.4755L7.45902 16.3246Z" fill="#353535"/>
<path fill-rule="evenodd" clip-rule="evenodd" d="M21.9978 29.4561C21.9978 29.5733 22.0132 29.5467 22.1266 29.5596C22.7346 29.6289 22.6683 30.1395 22.6683 30.6172C22.6683 31.199 22.7027 31.9112 22.6673 32.4763C22.5939 32.4413 22.0697 31.4978 21.9843 31.3513C21.7644 30.9735 21.5489 30.6043 21.3255 30.2183C20.7789 29.2724 20.9927 29.4239 20.3217 29.4239C20.0657 29.4239 18.7462 29.3926 18.625 29.4471C18.6341 29.5541 18.6282 29.5446 18.748 29.5457C18.8594 29.5467 19.2499 29.519 19.2872 29.5657C19.3245 29.6123 19.3014 33.785 19.3002 34.4298C19.2982 35.4869 18.6098 35.0274 18.6294 35.3277C18.7165 35.3686 19.9688 35.3675 20.0606 35.3346C20.0841 35.2764 20.0797 35.3243 20.0721 35.24C19.793 35.1135 19.4111 35.3135 19.4148 34.4074L19.4143 29.8128C19.4975 29.8455 19.4467 29.7973 19.5056 29.8961L22.5056 35.0645C22.6155 35.2579 22.6423 35.3607 22.7596 35.3412C22.7719 35.3151 22.7672 35.3369 22.7763 35.2832L22.7795 35.1306C22.7616 33.5787 22.7788 31.9357 22.7768 30.3759C22.7766 30.1174 22.7962 29.884 22.9417 29.7272C23.0149 29.6484 23.0824 29.6118 23.1921 29.5812C23.4463 29.5101 23.44 29.6168 23.4517 29.4429C23.3771 29.4136 22.0785 29.3886 21.9978 29.4561Z" fill="#EFA35A"/>
<path fill-rule="evenodd" clip-rule="evenodd" d="M15.5259 29.5436C15.6226 29.5434 15.76 29.56 15.8292 29.526C15.8266 29.3932 15.8153 29.4224 15.67 29.4251C14.886 29.4401 13.7806 29.3887 13.0659 29.4414C13.0772 29.5758 13.0968 29.5484 13.2394 29.5449C13.8142 29.5302 13.7487 29.4938 13.7479 29.7634C13.743 31.5774 13.7622 33.4163 13.7455 35.2243L13.4851 35.2274C13.3454 35.2282 13.0391 35.1926 13.0639 35.2996C13.0809 35.3723 13.1987 35.3489 13.2809 35.3489C13.9963 35.3484 15.2176 35.3802 15.8145 35.3347C15.8391 35.2785 15.8359 35.3307 15.8265 35.244C15.6766 35.1903 15.3322 35.2527 15.1374 35.2195L15.1369 29.9826C15.1369 29.9033 15.1072 29.5776 15.1705 29.5579C15.1744 29.5568 15.1813 29.5534 15.1862 29.5521L15.2395 29.5426C15.263 29.5405 15.3158 29.5423 15.3418 29.5426C15.4032 29.5434 15.4645 29.5436 15.5259 29.5436Z" fill="#EFA359"/>
<path fill-rule="evenodd" clip-rule="evenodd" d="M41.1768 19.2707L41.18 16.6406L38.2031 16.6448V19.7368L41.1768 19.2707Z" fill="#353535"/>
<path fill-rule="evenodd" clip-rule="evenodd" d="M38.2 16.1285L41.1793 16.1367C41.169 15.7236 41.2225 13.7248 41.1592 13.5143L38.1992 13.0635L38.2 16.1285Z" fill="#353535"/>
<path fill-rule="evenodd" clip-rule="evenodd" d="M44.4414 18.7682L44.4451 16.6406L41.6719 16.6446L41.6768 19.198L44.4414 18.7682Z" fill="#353535"/>
<path fill-rule="evenodd" clip-rule="evenodd" d="M41.6726 16.1285L44.448 16.1366C44.4394 15.7983 44.4831 14.1811 44.4335 14.0111L41.6719 13.5898L41.6726 16.1285Z" fill="#353535"/>
<path fill-rule="evenodd" clip-rule="evenodd" d="M10.7391 45.2567C10.7003 45.36 10.6831 45.2757 10.6826 45.2749C10.6276 45.1125 10.2617 44.1071 10.2001 44.0346L9.98213 44.0338C9.95856 44.1493 9.95905 45.5074 9.98384 45.6168L10.1326 45.6107L10.1341 44.3317C10.2347 44.4508 10.5655 45.5097 10.6639 45.6202C10.7714 45.6173 10.7503 45.6123 10.7864 45.509L10.9838 44.9976C11.0694 44.7693 11.1563 44.5505 11.2361 44.328C11.2392 44.333 11.2422 44.3401 11.2434 44.3443C11.2449 44.3486 11.2486 44.3559 11.25 44.3612C11.2842 44.4838 11.2388 45.4011 11.2685 45.6178L11.4263 45.6149L11.4174 44.0322L11.1919 44.0378C11.1337 44.1161 10.74 45.171 10.7391 45.2567Z" fill="#353535"/>
<path fill-rule="evenodd" clip-rule="evenodd" d="M31.5193 44.1948L32.1027 44.1943L32.1032 45.4548L31.3286 45.4577C31.3905 45.2503 31.4636 45.1647 31.4926 44.8964C31.5188 44.6546 31.5161 44.4377 31.5193 44.1948ZM31.1408 45.6176L32.2794 45.6234L32.2802 45.9999L32.4375 45.9875L32.4301 45.4616L32.2654 45.4482L32.2544 44.0322L31.3681 44.0349C31.3222 44.2485 31.3711 44.6356 31.3242 44.9049C31.3019 45.0345 31.2731 45.1462 31.2253 45.2582C31.0304 45.7151 30.929 45.1157 30.9833 45.9925L31.1377 45.9954L31.1408 45.6176Z" fill="#353535"/>
<path fill-rule="evenodd" clip-rule="evenodd" d="M5.80675 44.195L6.3904 44.1942L6.39064 45.4547L5.61997 45.4579C5.67961 45.256 5.75668 45.1683 5.78491 44.8977C5.81043 44.6506 5.80282 44.4435 5.80675 44.195ZM6.56441 45.4605C6.54723 45.4205 6.56147 45.5063 6.54772 45.4065L6.54527 44.0454C6.30989 44.0522 5.8497 44.0177 5.64722 44.0625C5.62537 44.356 5.66857 44.6308 5.61212 44.9306C5.58856 45.0563 5.5596 45.1794 5.511 45.2787C5.49922 45.3029 5.44252 45.4039 5.4327 45.4144C5.36128 45.4929 5.38165 45.4339 5.27734 45.4713L5.28176 45.997L5.4251 45.9954L5.42755 45.6175L6.56662 45.6236L6.5676 45.9998L6.72493 45.9875L6.71756 45.4597L6.56441 45.4605Z" fill="#353535"/>
<path fill-rule="evenodd" clip-rule="evenodd" d="M15.9823 44.2045L16.5662 44.1922L16.567 45.4516L15.7929 45.4566C15.8574 45.2569 15.9227 45.1607 15.9529 44.9012C15.9819 44.6501 15.9738 44.4549 15.9823 44.2045ZM15.8083 44.633C15.8103 44.81 15.7791 45.0047 15.7271 45.1591C15.6029 45.5277 15.5531 45.43 15.4414 45.4706L15.4444 45.9978L15.6024 45.9888L15.6027 45.6168L16.738 45.6171L16.7405 45.9915L16.8966 45.9944L16.8853 45.4574L16.7326 45.4511L16.7302 44.0554L15.8351 44.0488C15.8361 44.1487 15.8589 44.5911 15.8083 44.633Z" fill="#353535"/>
<path fill-rule="evenodd" clip-rule="evenodd" d="M43.0524 44.0407C43.0193 44.2708 43.0453 44.7545 43.0453 45.0118C43.0448 45.5406 42.9857 45.6353 43.1587 45.6221C43.2534 45.615 43.247 45.596 43.2898 45.5232C43.3555 45.4109 43.9473 44.3945 44.0239 44.3309C44.0349 44.57 44.0248 44.8355 44.0248 45.0777C44.0251 45.6782 43.9775 45.6242 44.1753 45.6165C44.1988 45.5071 44.1991 44.1377 44.1753 44.0341C43.9284 44.0265 43.9846 44.0736 43.8619 44.274C43.7912 44.3894 43.7185 44.5041 43.6498 44.6156C43.5718 44.7424 43.2986 45.2354 43.2186 45.2986C43.2036 45.0667 43.2154 44.7888 43.2154 44.5516C43.2159 43.9938 43.2618 43.9998 43.0524 44.0407Z" fill="#353535"/>
<path fill-rule="evenodd" clip-rule="evenodd" d="M25.1265 44.9245C25.0455 43.9707 26.2057 43.8945 26.3017 44.7287C26.3466 45.121 26.1193 45.4451 25.8106 45.4907C25.439 45.5457 25.1562 45.273 25.1265 44.9245ZM24.9513 44.9682C25.086 45.9713 26.5893 45.8624 26.4762 44.7102C26.433 44.27 26.0661 43.9301 25.5897 44.0031C25.1872 44.065 24.8818 44.4507 24.9513 44.9682Z" fill="#353535"/>
<path fill-rule="evenodd" clip-rule="evenodd" d="M7.70222 44.9239C7.60699 43.9772 8.79956 43.8916 8.87761 44.7265C8.96597 45.6716 7.78616 45.7578 7.70222 44.9239ZM7.53017 44.9676C7.66295 45.9757 9.15913 45.8706 9.05236 44.7073C8.9564 43.665 7.37554 43.7938 7.53017 44.9676Z" fill="#353535"/>
<path fill-rule="evenodd" clip-rule="evenodd" d="M33.3147 45.6121C33.544 45.6419 33.5229 45.5594 33.6316 45.3873C33.7327 45.227 34.227 44.3695 34.2805 44.3371L34.2889 45.6182L34.4462 45.6153L34.4359 44.0366C34.3323 44.0266 34.2825 44.0139 34.227 44.0969C34.092 44.2986 33.5415 45.2739 33.4676 45.3151L33.4571 44.0355C33.2477 44.0186 33.3088 44.079 33.3098 44.3105C33.3113 44.6302 33.2924 45.3905 33.3147 45.6121Z" fill="#353535"/>
<path fill-rule="evenodd" clip-rule="evenodd" d="M20.6235 44.1995C20.6498 44.2443 20.6331 44.1586 20.6459 44.2654L20.6294 44.7923C20.5332 44.8187 20.3916 44.8124 20.3143 44.7723C20.1054 44.7681 19.9388 44.5569 20.0605 44.3342C20.1521 44.1668 20.4336 44.1771 20.6235 44.1995ZM20.7998 44.0384C20.7011 44.0218 20.3784 44.0255 20.2738 44.0387C20.1022 44.06 19.9923 44.1273 19.9226 44.2303C19.8475 44.3413 19.835 44.544 19.8939 44.6837C19.9584 44.8369 20.0455 44.8582 20.1975 44.922C20.1503 45.1076 19.8551 45.4598 19.8359 45.618C20.0725 45.6224 19.9996 45.6472 20.2144 45.2671C20.4287 44.888 20.3376 44.9368 20.6358 44.9386C20.6373 45.0225 20.628 45.5434 20.6385 45.576C20.6574 45.6343 20.7899 45.6604 20.8071 45.5589C20.8273 45.4408 20.8071 44.0954 20.7998 44.0384Z" fill="#353535"/>
<path fill-rule="evenodd" clip-rule="evenodd" d="M39.3221 44.6696C39.318 44.8591 39.3052 45.0463 39.2554 45.2234C39.1837 45.4778 39.1152 45.4414 38.8978 45.4691L38.8828 45.6175C39.5772 45.7586 39.4733 44.7648 39.4927 44.1954L40.0528 44.2035C40.0567 44.4961 40.0167 45.3993 40.0651 45.6167H40.2256L40.2249 44.057L39.345 44.0459L39.3452 44.5077C39.3452 44.5259 39.3467 44.5823 39.345 44.5966L39.3221 44.6696Z" fill="#353535"/>
<path fill-rule="evenodd" clip-rule="evenodd" d="M27.552 44.8778C27.8257 44.8491 28.2253 44.8438 28.2081 45.1868C28.1924 45.5028 27.8161 45.4783 27.5506 45.4701L27.552 44.8778ZM27.9685 45.5932C28.2694 45.617 28.4749 45.2648 28.3362 44.9569C28.2093 44.6751 27.8559 44.7339 27.5501 44.7088L27.5538 44.199C27.6792 44.1821 27.866 44.1937 27.9987 44.1937C28.1597 44.194 28.3409 44.2528 28.2648 44.0472C28.1661 44.0011 27.5535 44.0208 27.408 44.0366L27.4062 45.599C27.5906 45.6101 27.7911 45.6025 27.9685 45.5932Z" fill="#353535"/>
<path fill-rule="evenodd" clip-rule="evenodd" d="M12.6474 45.0423C12.666 44.9371 12.9058 44.3116 12.9586 44.272L13.2467 45.0394L12.6474 45.0423ZM12.25 45.6148C12.4471 45.6304 12.4159 45.6285 12.4795 45.4627C12.6118 45.1172 12.4716 45.1983 13.3208 45.2107C13.3716 45.3394 13.4185 45.5226 13.4904 45.6172L13.6456 45.6164C13.6414 45.5318 13.0774 44.1136 13.018 44.0332L12.8822 44.0335C12.8233 44.1323 12.2569 45.5355 12.25 45.6148Z" fill="#353535"/>
<path fill-rule="evenodd" clip-rule="evenodd" d="M18.7708 44.1967C18.7732 44.2017 18.7779 44.203 18.7786 44.2115L18.7919 44.2653C18.8073 44.4324 18.7749 45.3176 18.7936 45.601L18.9342 45.6004L18.9345 44.0454C18.7136 44.0449 18.2487 44.0198 18.0551 44.0594C18.0374 44.357 18.071 44.6628 18.032 44.9625C17.9876 45.3028 17.9547 45.4663 17.6248 45.4623L17.6133 45.6189C18.3025 45.7359 18.2055 44.7904 18.2148 44.1936L18.7708 44.1967Z" fill="#353535"/>
<path fill-rule="evenodd" clip-rule="evenodd" d="M37.4003 45.4494L37.4006 44.8734L38.102 44.871L38.0947 44.7121L37.3996 44.7123L37.4006 44.1946C37.5589 44.1925 37.7177 44.1938 37.876 44.1938C38.038 44.1938 38.2176 44.2531 38.1421 44.0467C38.0498 44.0038 37.4163 44.027 37.2636 44.0346C37.203 44.1569 37.2332 45.3737 37.2408 45.6031L38.1629 45.6039L38.1619 45.4731C38.0328 45.47 37.9032 45.4721 37.7739 45.4721C37.6126 45.4723 37.4703 45.4921 37.4003 45.4494Z" fill="#353535"/>
<path fill-rule="evenodd" clip-rule="evenodd" d="M42.1538 45.5812L42.1482 45.4573L41.379 45.4584L41.3812 44.8721L42.079 44.8711L42.0719 44.711L41.379 44.7132L41.3829 44.1944C41.5496 44.1896 42.0093 44.2273 42.1313 44.1794L42.1335 44.0684C42.0274 44.0128 41.3815 44.0375 41.2227 44.0465L41.2231 45.601C41.3915 45.606 42.0412 45.6374 42.1538 45.5812Z" fill="#353535"/>
<path fill-rule="evenodd" clip-rule="evenodd" d="M22.9375 45.613C23.1299 45.647 23.0946 45.6011 23.0924 45.4076L23.0948 44.1945L23.8736 44.1984L23.8812 45.6196L24.0167 45.6135L24.0162 44.0469L22.938 44.0506L22.9375 45.613Z" fill="#353535"/>
<path fill-rule="evenodd" clip-rule="evenodd" d="M29.4707 45.4449L29.471 44.8734L30.1845 44.8713L30.1771 44.7123L29.469 44.7089L29.4727 44.1943L30.2262 44.1928L30.2176 44.0322L29.3264 44.0367L29.3242 45.5996L30.2426 45.6017L30.2446 45.4755L29.6521 45.4739C29.5024 45.4731 29.5135 45.4889 29.4707 45.4449Z" fill="#353535"/>
<path fill-rule="evenodd" clip-rule="evenodd" d="M35.7591 44.1942L35.7638 45.6148L35.9123 45.6154L35.9186 44.194L36.4029 44.1914L36.3968 44.0327H35.3846C35.3227 44.0327 35.3014 44.0147 35.2744 44.0617C35.2582 44.0901 35.2668 44.1616 35.2815 44.1774C35.3129 44.2114 35.6855 44.194 35.7591 44.1942Z" fill="#353535"/>
<path fill-rule="evenodd" clip-rule="evenodd" d="M11.7211 20.2742L11.7125 16.8593H15.1798L15.1834 20.6281C15.2195 20.5625 15.2026 20.2439 15.2026 20.1665C15.2026 19.6983 15.2227 17.0174 15.1933 16.8456C15.0485 16.8174 11.8327 16.819 11.7007 16.8471C11.6703 16.9994 11.6897 19.4632 11.6899 19.8816C11.6899 20.0155 11.6661 20.2413 11.7211 20.2742Z" fill="#353535"/>
<path fill-rule="evenodd" clip-rule="evenodd" d="M7.47143 19.838L7.46357 16.8591L11.0796 16.8527L11.072 20.2161C11.1105 20.1536 11.0987 20.0978 11.0977 20.0129C11.0926 19.4962 11.1189 17.0266 11.0884 16.8456C10.9556 16.8143 7.60691 16.8143 7.45351 16.8469C7.41252 17.053 7.4486 19.1076 7.44197 19.6849C7.43976 19.8722 7.44811 19.8214 7.47143 19.838Z" fill="#353535"/>
<path fill-rule="evenodd" clip-rule="evenodd" d="M11.73 12.8787C11.6849 12.9061 11.7038 12.8434 11.6878 12.9564C11.6866 12.9638 11.6888 13.0523 11.6888 13.0674C11.6949 13.6064 11.6679 16.1374 11.6984 16.3321L15.1914 16.3229C15.2219 16.1546 15.2201 12.5565 15.1895 12.3976C15.1227 12.3863 15.1092 12.3818 15.0658 12.421L15.1772 12.4089L15.1801 16.3126L11.7131 16.31C11.6976 15.7438 11.7131 15.1489 11.7131 14.5792C11.7131 14.321 11.677 13.0152 11.73 12.8787Z" fill="#353535"/>
<path fill-rule="evenodd" clip-rule="evenodd" d="M41.1768 19.2711C41.206 19.2337 41.1874 19.3167 41.2038 19.2034L41.2031 18.9396C41.2036 18.4804 41.2271 16.822 41.194 16.6265C41.0244 16.5939 38.8295 16.6218 38.3651 16.6157C38.2979 16.6149 38.2328 16.5978 38.2031 16.6452L41.18 16.641L41.1768 19.2711Z" fill="#353535"/>
<path fill-rule="evenodd" clip-rule="evenodd" d="M44.4414 18.7684C44.4713 18.7302 44.4578 18.7755 44.4689 18.6996L44.4679 18.5017C44.4676 18.1221 44.4885 16.8002 44.4588 16.6268C44.3125 16.5981 42.6384 16.616 42.3444 16.616C42.2727 16.616 41.7109 16.5836 41.6719 16.6447L44.4451 16.6408L44.4414 18.7684Z" fill="#353535"/>
<path fill-rule="evenodd" clip-rule="evenodd" d="M38.2031 16.1279C38.2488 16.1764 38.2326 16.1574 38.3867 16.1559C38.84 16.1511 41.0377 16.1772 41.1945 16.1472C41.2284 15.9572 41.2028 14.5347 41.2028 14.1408C41.2028 13.9948 41.2338 13.5395 41.1624 13.5137C41.2257 13.7242 41.1722 15.723 41.1825 16.1361L38.2031 16.1279Z" fill="#353535"/>
<path fill-rule="evenodd" clip-rule="evenodd" d="M41.6719 16.1281C41.704 16.1621 41.6579 16.152 41.7519 16.1589C42.0167 16.1787 44.4149 16.1557 44.459 16.1473C44.488 15.9863 44.4671 14.6273 44.4674 14.2505C44.4674 14.1644 44.4917 14.0447 44.4328 14.0107C44.4824 14.1807 44.4387 15.7979 44.4473 16.1362L41.6719 16.1281Z" fill="#353535"/>
<path fill-rule="evenodd" clip-rule="evenodd" d="M43.6467 43.7606C43.4906 43.785 43.4597 43.6797 43.4143 43.5869C43.2764 43.5972 43.2828 43.6504 43.3557 43.7725C43.4744 43.9714 43.9275 43.9595 43.9179 43.5935C43.7243 43.5787 43.8333 43.7318 43.6467 43.7606Z" fill="#353535"/>
<path fill-rule="evenodd" clip-rule="evenodd" d="M22.9398 45.6126L22.9403 44.0502L24.0185 44.0465L24.019 45.6131C24.0327 45.5846 24.0239 45.6416 24.0386 45.5604L24.0405 45.4067C24.0383 45.1054 24.0577 44.1878 24.0297 44.0254L22.927 44.0367C22.8963 44.2149 22.9174 44.633 22.9174 44.8368C22.9174 44.9941 22.8907 45.5177 22.9398 45.6126Z" fill="#353535"/>
<path fill-rule="evenodd" clip-rule="evenodd" d="M18.7704 44.1972L18.7795 45.6222L18.9459 45.6154C18.967 45.496 18.967 44.1437 18.9446 44.0356C18.8403 44.0113 18.4238 44.0258 18.2613 44.0253C18.2297 44.0253 18.1646 44.0206 18.1376 44.0232C18.0481 44.0316 18.0829 44.0134 18.0547 44.0598C18.2483 44.0203 18.7132 44.0453 18.9341 44.0459L18.9338 45.6009L18.7932 45.6014C18.7746 45.318 18.8069 44.4328 18.7915 44.2657L18.7782 44.2119C18.7775 44.2035 18.7728 44.2022 18.7704 44.1972Z" fill="#353535"/>
<path fill-rule="evenodd" clip-rule="evenodd" d="M29.4698 45.4453C29.5126 45.4893 29.5015 45.4735 29.6512 45.4743L30.2437 45.4759L30.2417 45.6021L29.3233 45.6L29.3255 44.0371C29.3133 44.0624 29.3196 44.0118 29.3061 44.0912C29.2833 44.2243 29.3096 45.6069 29.3118 45.6251L30.2597 45.6158L30.254 45.4522L29.4698 45.4453Z" fill="#353535"/>
<path fill-rule="evenodd" clip-rule="evenodd" d="M37.4 45.449C37.4699 45.4917 37.6123 45.4719 37.7735 45.4716C37.9029 45.4716 38.0325 45.4695 38.1616 45.4727L38.1625 45.6034L37.2404 45.6026C37.2328 45.3733 37.2026 44.1565 37.2633 44.0342C37.224 44.0563 37.2188 43.9825 37.2215 44.2219C37.2223 44.2875 37.2218 44.3537 37.2218 44.4193C37.222 44.5508 37.222 44.6824 37.222 44.8139C37.2218 45.0361 37.2019 45.4131 37.2294 45.625L38.1787 45.6153L38.1728 45.4497L37.4 45.449Z" fill="#353535"/>
<path fill-rule="evenodd" clip-rule="evenodd" d="M42.1544 45.5811C42.0418 45.6372 41.3921 45.6058 41.2237 45.6008L41.2233 44.0463C41.382 44.0374 42.028 44.0126 42.1341 44.0682C42.1066 44.0113 42.1527 44.0268 42.0423 44.0205L41.2031 44.035L41.2132 45.6148C41.3393 45.6398 41.557 45.6256 41.6938 45.6259C41.8346 45.6259 42.1346 45.658 42.1544 45.5811Z" fill="#353535"/>
<path fill-rule="evenodd" clip-rule="evenodd" d="M27.9678 45.5937C27.7903 45.6029 27.5898 45.6106 27.4055 45.5995L27.4072 44.0371C27.3574 44.1402 27.3873 45.5731 27.393 45.6174C27.4764 45.6285 27.9418 45.6514 27.9678 45.5937Z" fill="#353535"/>
<path fill-rule="evenodd" clip-rule="evenodd" d="M6.56563 45.4611L6.55876 44.0356C6.43972 44.0084 6.23037 44.0263 6.09979 44.0261C6.01806 44.0261 5.93633 44.0266 5.85485 44.0263C5.82417 44.0261 5.75643 44.0213 5.7309 44.024C5.63617 44.0332 5.67568 44.0142 5.64844 44.0624C5.85092 44.0176 6.31112 44.0522 6.54649 44.0453L6.54894 45.4071C6.56269 45.507 6.54845 45.4211 6.56563 45.4611Z" fill="#353535"/>
<path fill-rule="evenodd" clip-rule="evenodd" d="M39.3242 44.6694L39.347 44.5963C39.3488 44.5821 39.3473 44.5257 39.3473 44.5075L39.347 44.0457L40.2269 44.0567C40.1771 44.0048 40.1005 44.0238 39.9989 44.0243C39.8364 44.0256 39.4408 44.0135 39.3277 44.0359L39.3242 44.6694Z" fill="#353535"/>
<path fill-rule="evenodd" clip-rule="evenodd" d="M15.8086 44.6354C15.8592 44.5934 15.8363 44.1502 15.8353 44.0501L16.7305 44.0567C16.6976 44.016 16.7427 44.0438 16.6892 44.0274C16.6887 44.0271 16.6342 44.0237 16.6311 44.0234L15.8164 44.0366L15.8086 44.6354Z" fill="#353535"/>
<path fill-rule="evenodd" clip-rule="evenodd" d="M20.3125 44.7746C20.3898 44.8148 20.5314 44.8211 20.6276 44.7947L20.6441 44.2663C20.6313 44.1592 20.648 44.2451 20.6217 44.2002L20.6225 44.7788L20.3125 44.7746Z" fill="#353535"/>
<path fill-rule="evenodd" clip-rule="evenodd" d="M8.21911 33.3775C8.20119 33.3891 8.18204 33.4073 8.1791 33.4014C8.17591 33.3955 8.16486 33.4052 8.15676 33.4108L8.10547 33.3604C8.13639 33.4385 8.12559 33.4248 8.18425 33.4503L8.21911 33.3775Z" fill="#E7B888"/>
<path fill-rule="evenodd" clip-rule="evenodd" d="M49.8162 16.7897L49.782 16.8027C49.8084 16.8344 49.7376 16.8469 49.8142 16.8309C49.8831 16.737 49.8191 16.7937 49.8162 16.7897Z" fill="#353535"/>
<path fill-rule="evenodd" clip-rule="evenodd" d="M0.0547934 16.6516L0.0471031 16.6416C-0.000480643 16.6779 0.0192257 16.6354 0 16.7097C0.0535917 16.6861 0.0295596 16.7032 0.0547934 16.6516Z" fill="#353535"/>
<path fill-rule="evenodd" clip-rule="evenodd" d="M10.6836 45.2755C10.6841 45.2763 10.7009 45.3627 10.7389 45.2568L10.6836 45.2755Z" fill="#353535"/>
</svg>
