<svg width="23" height="23" viewBox="0 0 23 23" fill="none" xmlns="http://www.w3.org/2000/svg">
<path d="M3.3095 11.0638C3.19271 10.955 3.03825 10.8957 2.87864 10.8985C2.71904 10.9013 2.56676 10.966 2.45388 11.0789C2.34101 11.1918 2.27635 11.344 2.27353 11.5036C2.27072 11.6632 2.32996 11.8177 2.43878 11.9345L8.18878 17.6845C8.3043 17.7999 8.46088 17.8647 8.62414 17.8647C8.7874 17.8647 8.94398 17.7999 9.0595 17.6845L20.5595 6.1845C20.6683 6.06771 20.7276 5.91325 20.7248 5.75364C20.7219 5.59404 20.6573 5.44176 20.5444 5.32888C20.4315 5.21601 20.2792 5.15135 20.1196 5.14853C19.96 5.14572 19.8056 5.20496 19.6888 5.31378L8.62414 16.3784L3.3095 11.0638Z" fill="#EFA35A"/>
</svg>
