<svg width="40" height="40" viewBox="0 0 40 40" fill="none" xmlns="http://www.w3.org/2000/svg">
<path d="M34.6235 25.0477L27.2422 21.7399C26.9078 21.5966 26.5429 21.539 26.1806 21.5723C25.8182 21.6055 25.4699 21.7287 25.1672 21.9305C25.1365 21.9502 25.1072 21.9722 25.0797 21.9961L21.2219 25.2774C21.1819 25.2992 21.1373 25.3114 21.0917 25.313C21.0462 25.3147 21.0009 25.3057 20.9594 25.2868C18.4797 24.0899 15.911 21.5368 14.7094 19.0914C14.6894 19.0506 14.679 19.0057 14.679 18.9602C14.679 18.9147 14.6894 18.8698 14.7094 18.8289L18.0016 14.9227C18.0252 14.8938 18.0471 14.8635 18.0672 14.8321C18.2662 14.5282 18.3865 14.1795 18.417 13.8175C18.4476 13.4555 18.3875 13.0916 18.2422 12.7586L14.9578 5.38988C14.7713 4.9549 14.4487 4.59214 14.0385 4.35605C13.6284 4.11996 13.1526 4.02328 12.6828 4.08051C10.641 4.34894 8.76676 5.35166 7.41037 6.90129C6.05397 8.45092 5.30824 10.4414 5.31252 12.5008C5.31252 24.7352 15.2656 34.6883 27.5 34.6883C29.5593 34.6923 31.5496 33.9464 33.0992 32.5901C34.6488 31.2338 35.6516 29.3597 35.9203 27.318C35.9774 26.8504 35.8821 26.3768 35.6484 25.9678C35.4147 25.5587 35.0553 25.236 34.6235 25.0477ZM27.5 32.8133C16.3 32.8133 7.18752 23.7008 7.18752 12.5008C7.18229 10.8976 7.76096 9.34729 8.8154 8.13959C9.86984 6.93188 11.3279 6.1494 12.9172 5.93832H12.9531C13.0161 5.9395 13.0773 5.95967 13.1286 5.9962C13.1799 6.03272 13.2189 6.0839 13.2406 6.14301L16.5375 13.5039C16.5563 13.5449 16.5661 13.5894 16.5661 13.6344C16.5661 13.6795 16.5563 13.724 16.5375 13.7649L13.2391 17.6805C13.2145 17.7085 13.192 17.7382 13.1719 17.7696C12.9655 18.0847 12.844 18.4477 12.819 18.8236C12.7941 19.1994 12.8667 19.5753 13.0297 19.9149C14.4156 22.7524 17.275 25.5899 20.1438 26.9758C20.4853 27.1379 20.8631 27.2087 21.2401 27.1814C21.6172 27.154 21.9808 27.0293 22.2953 26.8196C22.325 26.7993 22.3547 26.7774 22.3828 26.7539L26.2391 23.4727C26.2772 23.4522 26.3192 23.4402 26.3624 23.4375C26.4055 23.4348 26.4487 23.4415 26.4891 23.4571L33.8719 26.7649C33.9322 26.7906 33.9829 26.8346 34.0168 26.8906C34.0508 26.9467 34.0662 27.012 34.061 27.0774C33.851 28.6674 33.0692 30.1266 31.8618 31.1822C30.6543 32.2378 29.1038 32.8176 27.5 32.8133Z" fill="#EFA35A"/>
</svg>
