<svg width="60" height="60" viewBox="0 0 60 60" fill="none" xmlns="http://www.w3.org/2000/svg">
<path d="M9.375 45.9375C8.26248 45.9375 7.17495 45.6076 6.24992 44.9895C5.32489 44.3714 4.60392 43.4929 4.17818 42.4651C3.75244 41.4373 3.64104 40.3063 3.85809 39.2151C4.07513 38.124 4.61086 37.1217 5.39753 36.335C6.1842 35.5484 7.18648 35.0126 8.27762 34.7956C9.36876 34.5785 10.4998 34.6899 11.5276 35.1157C12.5554 35.5414 13.4339 36.2624 14.052 37.1874C14.6701 38.1124 15 39.2 15 40.3125C14.9985 41.8039 14.4054 43.2338 13.3508 44.2883C12.2963 45.3429 10.8664 45.936 9.375 45.9375ZM9.375 36.5625C8.63332 36.5625 7.9083 36.7824 7.29161 37.1945C6.67493 37.6065 6.19428 38.1922 5.91045 38.8774C5.62663 39.5627 5.55236 40.3167 5.69706 41.0441C5.84175 41.7715 6.19891 42.4397 6.72335 42.9642C7.2478 43.4886 7.91599 43.8458 8.64341 43.9904C9.37084 44.1351 10.1248 44.0609 10.8101 43.7771C11.4953 43.4932 12.081 43.0126 12.493 42.3959C12.9051 41.7792 13.125 41.0542 13.125 40.3125C13.125 39.3179 12.7299 38.3641 12.0267 37.6609C11.3234 36.9576 10.3696 36.5625 9.375 36.5625Z" fill="#263238"/>
<path d="M9.375 43.125C8.81874 43.125 8.27497 42.96 7.81246 42.651C7.34995 42.342 6.98946 41.9027 6.77659 41.3888C6.56372 40.8749 6.50802 40.3094 6.61654 39.7638C6.72506 39.2182 6.99293 38.7171 7.38626 38.3238C7.7796 37.9304 8.28074 37.6626 8.82631 37.554C9.37188 37.4455 9.93738 37.5012 10.4513 37.7141C10.9652 37.927 11.4045 38.2874 11.7135 38.75C12.0226 39.2125 12.1875 39.7562 12.1875 40.3125C12.1875 41.0584 11.8912 41.7738 11.3637 42.3012C10.8363 42.8287 10.1209 43.125 9.375 43.125ZM9.375 39.375C9.18958 39.375 9.00832 39.43 8.85415 39.533C8.69998 39.636 8.57982 39.7824 8.50886 39.9537C8.43791 40.125 8.41934 40.3135 8.45551 40.4954C8.49169 40.6773 8.58098 40.8443 8.71209 40.9754C8.8432 41.1065 9.01025 41.1958 9.1921 41.232C9.37396 41.2682 9.56246 41.2496 9.73377 41.1786C9.90507 41.1077 10.0515 40.9875 10.1545 40.8333C10.2575 40.6792 10.3125 40.4979 10.3125 40.3125C10.3125 40.0639 10.2137 39.8254 10.0379 39.6496C9.8621 39.4738 9.62364 39.375 9.375 39.375Z" fill="#263238"/>
<path d="M50.625 45.9375C49.5125 45.9375 48.4249 45.6076 47.4999 44.9895C46.5749 44.3714 45.8539 43.4929 45.4282 42.4651C45.0024 41.4373 44.891 40.3063 45.1081 39.2151C45.3251 38.124 45.8609 37.1217 46.6475 36.335C47.4342 35.5484 48.4365 35.0126 49.5276 34.7956C50.6188 34.5785 51.7498 34.6899 52.7776 35.1157C53.8054 35.5414 54.6839 36.2624 55.302 37.1874C55.9201 38.1124 56.25 39.2 56.25 40.3125C56.2485 41.8039 55.6554 43.2338 54.6008 44.2883C53.5463 45.3429 52.1164 45.936 50.625 45.9375ZM50.625 36.5625C49.8833 36.5625 49.1583 36.7824 48.5416 37.1945C47.9249 37.6065 47.4443 38.1922 47.1605 38.8774C46.8766 39.5627 46.8024 40.3167 46.9471 41.0441C47.0918 41.7715 47.4489 42.4397 47.9734 42.9642C48.4978 43.4886 49.166 43.8458 49.8934 43.9904C50.6208 44.1351 51.3748 44.0609 52.0601 43.7771C52.7453 43.4932 53.331 43.0126 53.743 42.3959C54.1551 41.7792 54.375 41.0542 54.375 40.3125C54.375 39.3179 53.9799 38.3641 53.2767 37.6609C52.5734 36.9576 51.6196 36.5625 50.625 36.5625Z" fill="#263238"/>
<path d="M50.625 43.125C50.0687 43.125 49.525 42.96 49.0625 42.651C48.5999 42.342 48.2395 41.9027 48.0266 41.3888C47.8137 40.8749 47.758 40.3094 47.8665 39.7638C47.9751 39.2182 48.2429 38.7171 48.6363 38.3238C49.0296 37.9304 49.5307 37.6626 50.0763 37.554C50.6219 37.4455 51.1874 37.5012 51.7013 37.7141C52.2152 37.927 52.6545 38.2874 52.9635 38.75C53.2725 39.2125 53.4375 39.7562 53.4375 40.3125C53.4375 41.0584 53.1412 41.7738 52.6137 42.3012C52.0863 42.8287 51.3709 43.125 50.625 43.125ZM50.625 39.375C50.4396 39.375 50.2583 39.43 50.1042 39.533C49.95 39.636 49.8298 39.7824 49.7589 39.9537C49.6879 40.125 49.6693 40.3135 49.7055 40.4954C49.7417 40.6773 49.831 40.8443 49.9621 40.9754C50.0932 41.1065 50.2602 41.1958 50.4421 41.232C50.624 41.2682 50.8125 41.2496 50.9838 41.1786C51.1551 41.1077 51.3015 40.9875 51.4045 40.8333C51.5075 40.6792 51.5625 40.4979 51.5625 40.3125C51.5625 40.0639 51.4637 39.8254 51.2879 39.6496C51.1121 39.4738 50.8736 39.375 50.625 39.375Z" fill="#263238"/>
<path d="M53.4375 35.625H59.0625V37.5H53.4375V35.625Z" fill="#263238"/>
<path d="M0.9375 35.625H6.5625V37.5H0.9375V35.625Z" fill="#263238"/>
<path d="M14.0625 39.375H45.9375V41.25H14.0625V39.375Z" fill="#263238"/>
<path d="M59.0625 41.25H55.3125V39.375H58.125V32.8706L56.3597 18.75H2.8125C2.56386 18.75 2.3254 18.8488 2.14959 19.0246C1.97377 19.2004 1.875 19.4389 1.875 19.6875V39.375H4.6875V41.25H0.9375C0.68886 41.25 0.450403 41.1512 0.274587 40.9754C0.0987721 40.7996 0 40.5611 0 40.3125V19.6875C0 18.9416 0.296316 18.2262 0.823762 17.6988C1.35121 17.1713 2.06658 16.875 2.8125 16.875H57.1875C57.416 16.8751 57.6365 16.9586 57.8078 17.1098C57.979 17.261 58.0892 17.4696 58.1175 17.6962L59.9925 32.6962C59.9974 32.7348 59.9999 32.7736 60 32.8125V40.3125C60 40.5611 59.9012 40.7996 59.7254 40.9754C59.5496 41.1512 59.3111 41.25 59.0625 41.25Z" fill="#263238"/>
<path d="M36.5625 41.25H23.4375C23.1889 41.25 22.9504 41.1512 22.7746 40.9754C22.5988 40.7996 22.5 40.5611 22.5 40.3125V23.4375C22.5 22.6916 22.7963 21.9762 23.3238 21.4488C23.8512 20.9213 24.5666 20.625 25.3125 20.625H34.6875C35.4334 20.625 36.1488 20.9213 36.6762 21.4488C37.2037 21.9762 37.5 22.6916 37.5 23.4375V40.3125C37.5 40.5611 37.4012 40.7996 37.2254 40.9754C37.0496 41.1512 36.8111 41.25 36.5625 41.25ZM24.375 39.375H35.625V23.4375C35.625 23.1889 35.5262 22.9504 35.3504 22.7746C35.1746 22.5988 34.9361 22.5 34.6875 22.5H25.3125C25.0639 22.5 24.8254 22.5988 24.6496 22.7746C24.4738 22.9504 24.375 23.1889 24.375 23.4375V39.375Z" fill="#263238"/>
<path d="M29.0625 21.5625H30.9375V37.5H29.0625V21.5625Z" fill="#263238"/>
<path d="M23.4375 36.5625H36.5625V38.4375H23.4375V36.5625Z" fill="#263238"/>
<path d="M59.0625 30H40.3125C40.0639 30 39.8254 29.9012 39.6496 29.7254C39.4738 29.5496 39.375 29.3111 39.375 29.0625V21.5625C39.375 21.3139 39.4738 21.0754 39.6496 20.8996C39.8254 20.7238 40.0639 20.625 40.3125 20.625H58.125V22.5H41.25V28.125H59.0625V30Z" fill="#263238"/>
<path d="M47.8125 21.5625H49.6875V29.0625H47.8125V21.5625Z" fill="#263238"/>
<path d="M19.6875 30H0.9375V28.125H18.75V22.5H0.9375V20.625H19.6875C19.9361 20.625 20.1746 20.7238 20.3504 20.8996C20.5262 21.0754 20.625 21.3139 20.625 21.5625V29.0625C20.625 29.3111 20.5262 29.5496 20.3504 29.7254C20.1746 29.9012 19.9361 30 19.6875 30Z" fill="#263238"/>
<path d="M9.375 21.5625H11.25V29.0625H9.375V21.5625Z" fill="#263238"/>
<path d="M56.25 36.5625H54.375V34.6875C54.375 33.9416 54.6713 33.2262 55.1988 32.6988C55.7262 32.1713 56.4416 31.875 57.1875 31.875H59.0625V33.75H57.1875C56.9389 33.75 56.7004 33.8488 56.5246 34.0246C56.3488 34.2004 56.25 34.4389 56.25 34.6875V36.5625Z" fill="#263238"/>
<path d="M13.125 36.5625H21.5625V38.4375H13.125V36.5625Z" fill="#263238"/>
<path d="M38.4375 36.5625H46.875V38.4375H38.4375V36.5625Z" fill="#263238"/>
<path d="M46.875 17.8125H45V16.875C45 16.6264 44.9012 16.3879 44.7254 16.2121C44.5496 16.0363 44.3111 15.9375 44.0625 15.9375H29.0625C28.8139 15.9375 28.5754 16.0363 28.3996 16.2121C28.2238 16.3879 28.125 16.6264 28.125 16.875V17.8125H26.25V16.875C26.25 16.1291 26.5463 15.4137 27.0738 14.8863C27.6012 14.3588 28.3166 14.0625 29.0625 14.0625H44.0625C44.8084 14.0625 45.5238 14.3588 46.0512 14.8863C46.5787 15.4137 46.875 16.1291 46.875 16.875V17.8125Z" fill="#263238"/>
<path d="M24.375 17.8125H22.5V16.875C22.5 16.6264 22.4012 16.3879 22.2254 16.2121C22.0496 16.0363 21.8111 15.9375 21.5625 15.9375H15.9375C15.6889 15.9375 15.4504 16.0363 15.2746 16.2121C15.0988 16.3879 15 16.6264 15 16.875V17.8125H13.125V16.875C13.125 16.1291 13.4213 15.4137 13.9488 14.8863C14.4762 14.3588 15.1916 14.0625 15.9375 14.0625H21.5625C22.3084 14.0625 23.0238 14.3588 23.5512 14.8863C24.0787 15.4137 24.375 16.1291 24.375 16.875V17.8125Z" fill="#263238"/>
</svg>
