<svg width="45" height="45" viewBox="0 0 45 45" fill="none" xmlns="http://www.w3.org/2000/svg">
<path d="M34.4658 15.2388V14.0287C35.9897 13.1323 36.9758 11.4739 36.9758 9.68108V7.52969C36.9758 4.7508 34.7347 2.50977 31.9559 2.50977C29.177 2.50977 26.8911 4.7508 26.8911 7.52969V9.68108C26.8911 11.4291 27.7875 13.0426 29.3114 13.939V15.2388C28.6391 15.4181 28.0116 15.6871 27.3841 16.0456C26.3981 13.7598 24.1122 12.1462 21.4678 12.1462C18.8682 12.1462 16.672 13.6701 15.6411 15.9112C15.0585 15.6422 14.4758 15.3733 13.8931 15.2388V14.0287C15.417 13.1323 16.4031 11.4739 16.4031 9.68108V7.52969C16.4031 4.7508 14.162 2.50977 11.3832 2.50977C8.60427 2.50977 6.36323 4.7508 6.36323 7.52969V9.68108C6.36323 11.4291 7.25965 13.0426 8.78355 13.939V15.2388C4.74969 16.4042 2.01562 20.0347 2.01562 24.2478C2.01562 24.6064 2.32937 24.9201 2.68794 24.9201H15.9549C15.9997 24.9201 16.0445 24.9201 16.0893 24.9201C16.6272 25.7717 17.3891 26.4888 18.2855 27.0267V29.0436C12.9519 30.4779 9.3214 35.2737 9.3214 40.8315C9.3214 41.19 9.63515 41.5038 9.99371 41.5038H33.0764C33.4349 41.5038 33.7487 41.19 33.7487 40.8315C33.7487 35.3185 29.9389 30.4331 24.6501 29.0436V27.1163C25.5913 26.5785 26.3533 25.8614 26.9359 24.9649H40.6959C41.0545 24.9649 41.3682 24.6512 41.3682 24.2926C41.3234 20.0795 38.4549 16.3594 34.4658 15.2388ZM3.36025 23.6203C3.62917 20.1243 6.13913 17.2558 9.59033 16.449C9.90407 16.3594 10.1282 16.0904 10.1282 15.7767V13.5357C10.1282 13.2667 9.99371 13.0426 9.76961 12.953C8.51463 12.3255 7.70786 11.0705 7.70786 9.68108V7.52969C7.70786 5.51275 9.36622 3.85439 11.3832 3.85439C13.4001 3.85439 15.0585 5.51275 15.0585 7.52969V9.68108C15.0585 11.0705 14.2069 12.3703 12.9519 12.9978C12.7278 13.0875 12.5485 13.3564 12.5485 13.6253V15.7767C12.5485 16.0904 12.7726 16.3594 13.0863 16.449C13.8483 16.6283 14.5654 16.8972 15.2377 17.2558C15.1481 17.704 15.1033 18.1522 15.1033 18.6452V21.5137C15.1033 22.2309 15.2377 22.948 15.4618 23.6203H3.36025ZM23.664 26.0855C23.4399 26.1751 23.2606 26.444 23.2606 26.713V29.5815C23.2606 29.8952 23.4847 30.1641 23.7985 30.2538C28.5495 31.2847 32.0455 35.4082 32.3592 40.204H10.666C10.9349 35.4082 14.3413 31.3743 19.0923 30.2986C19.4061 30.209 19.6302 29.94 19.6302 29.6263V26.6681C19.6302 26.3992 19.4957 26.1751 19.2716 26.0855C17.5236 25.2339 16.4479 23.4859 16.4479 21.5586V18.69C16.4479 15.8663 18.7338 13.6253 21.5126 13.6253C24.2915 13.6253 26.5774 15.9112 26.5774 18.69V21.5137C26.5774 23.441 25.4569 25.2339 23.664 26.0855ZM27.5634 23.6203C27.7875 22.948 27.922 22.2309 27.922 21.5137V18.6452C27.922 18.2418 27.8772 17.7936 27.7875 17.4351C28.5047 16.9869 29.3114 16.6731 30.1182 16.4938C30.432 16.4042 30.6561 16.1353 30.6561 15.8215V13.5805C30.6561 13.3116 30.5216 13.0875 30.2975 12.9978C29.0425 12.3703 28.2357 11.1153 28.2357 9.7259V7.57451C28.2357 5.55757 29.8941 3.89921 31.911 3.89921C33.928 3.89921 35.5863 5.55757 35.5863 7.57451V9.7259C35.5863 11.1153 34.7347 12.4151 33.4798 13.0426C33.2557 13.1323 33.0764 13.4012 33.0764 13.6701V15.8215C33.0764 16.1353 33.3005 16.4042 33.6142 16.4938C37.0654 17.2558 39.6202 20.2139 39.9339 23.6651L27.5634 23.6203Z" fill="#263238"/>
</svg>
