<svg width="45" height="45" viewBox="0 0 45 45" fill="none" xmlns="http://www.w3.org/2000/svg">
<g clip-path="url(#clip0_392_736)">
<path d="M42.8906 42.8906V32.3438C42.8906 32.1573 42.8165 31.9784 42.6847 31.8466C42.5528 31.7147 42.374 31.6406 42.1875 31.6406H41.4844V4.21875C41.4844 4.03227 41.4103 3.85343 41.2784 3.72157C41.1466 3.5897 40.9677 3.51562 40.7812 3.51562H38.6719V1.40625C38.6719 1.21977 38.5978 1.04093 38.4659 0.909066C38.3341 0.777204 38.1552 0.703125 37.9688 0.703125H29.5312C29.3448 0.703125 29.1659 0.777204 29.0341 0.909066C28.9022 1.04093 28.8281 1.21977 28.8281 1.40625V3.51562H26.7188C26.5323 3.51562 26.3534 3.5897 26.2216 3.72157C26.0897 3.85343 26.0156 4.03227 26.0156 4.21875V16.1719H21.0938C20.9073 16.1719 20.7284 16.246 20.5966 16.3778C20.4647 16.5097 20.3906 16.6885 20.3906 16.875V29.5312H18.9844V16.1719C18.9844 15.9854 18.9103 15.8066 18.7784 15.6747C18.6466 15.5428 18.4677 15.4688 18.2812 15.4688H16.1297C15.9724 14.2302 15.4076 13.0792 14.5241 12.197C13.6406 11.3148 12.4888 10.7516 11.25 10.5961V7.73438H9.84375V10.5961C8.60497 10.7516 7.45311 11.3148 6.56965 12.197C5.68619 13.0792 5.12133 14.2302 4.96406 15.4688H2.8125C2.62602 15.4688 2.44718 15.5428 2.31532 15.6747C2.18345 15.8066 2.10938 15.9854 2.10938 16.1719V42.8906H0.703125V44.2969H44.2969V42.8906H42.8906ZM31.6406 7.73438V16.1719H30.2344V7.73438H31.6406ZM33.0469 16.875V7.73438H34.4531V31.6406H33.0469V16.875ZM35.8594 31.6406V7.73438H37.2656V31.6406H35.8594ZM41.4844 33.0469V42.8906H29.5312V33.0469H41.4844ZM38.6719 31.6406V7.73438H40.0781V31.6406H38.6719ZM29.5312 4.92188C29.7177 4.92188 29.8966 4.8478 30.0284 4.71593C30.1603 4.58407 30.2344 4.40523 30.2344 4.21875V2.10938H37.2656V4.21875C37.2656 4.40523 37.3397 4.58407 37.4716 4.71593C37.6034 4.8478 37.7823 4.92188 37.9688 4.92188H40.0781V6.32812H27.4219V4.92188H29.5312ZM27.4219 7.73438H28.8281V16.1719H27.4219V7.73438ZM21.7969 17.5781H31.6406V31.6406H28.8281C28.6416 31.6406 28.4628 31.7147 28.3309 31.8466C28.1991 31.9784 28.125 32.1573 28.125 32.3438V42.8906H25.3125V30.2344C25.3125 30.0479 25.2384 29.8691 25.1066 29.7372C24.9747 29.6053 24.7959 29.5312 24.6094 29.5312H21.7969V17.5781ZM23.9062 42.8906H12.6562V30.9375H23.9062V42.8906ZM10.5469 11.9531C11.6658 11.9531 12.7388 12.3976 13.53 13.1888C14.3212 13.9799 14.7656 15.053 14.7656 16.1719C14.7656 16.3584 14.8397 16.5372 14.9716 16.6691C15.1034 16.8009 15.2823 16.875 15.4688 16.875H17.5781V25.3125H16.5234C16.2437 25.3125 15.9755 25.2014 15.7777 25.0036C15.5799 24.8058 15.4688 24.5375 15.4688 24.2578C15.4688 23.6051 15.2095 22.9792 14.748 22.5177C14.2864 22.0562 13.6605 21.7969 13.0078 21.7969H10.8984C10.6187 21.7969 10.3505 21.6858 10.1527 21.488C9.95487 21.2902 9.84375 21.0219 9.84375 20.7422C9.84375 20.0895 9.58447 19.4636 9.12296 19.002C8.66144 18.5405 8.03549 18.2812 7.38281 18.2812C7.10309 18.2812 6.83483 18.1701 6.63704 17.9723C6.43924 17.7745 6.32812 17.5063 6.32812 17.2266V16.1719C6.32812 15.053 6.7726 13.9799 7.56377 13.1888C8.35494 12.3976 9.42799 11.9531 10.5469 11.9531ZM3.51562 16.875H4.92188V17.2266C4.92188 17.8792 5.18115 18.5052 5.64267 18.9667C6.10418 19.4282 6.73013 19.6875 7.38281 19.6875C7.66253 19.6875 7.9308 19.7986 8.12859 19.9964C8.32638 20.1942 8.4375 20.4625 8.4375 20.7422C8.4375 21.3949 8.69678 22.0208 9.15829 22.4823C9.61981 22.9438 10.2458 23.2031 10.8984 23.2031H13.0078C13.2252 23.2047 13.4368 23.273 13.6141 23.3988C13.7914 23.5245 13.9258 23.7017 13.9992 23.9062H11.9531C11.7666 23.9062 11.5878 23.9803 11.4559 24.1122C11.3241 24.2441 11.25 24.4229 11.25 24.6094V27.4219C11.25 27.6084 11.3241 27.7872 11.4559 27.9191C11.5878 28.0509 11.7666 28.125 11.9531 28.125H14.7656C14.9521 28.125 15.1309 28.0509 15.2628 27.9191C15.3947 27.7872 15.4688 27.6084 15.4688 27.4219V26.4727C15.7973 26.6331 16.1578 26.7172 16.5234 26.7188H17.5781V29.5312H11.9531C11.7666 29.5312 11.5878 29.6053 11.4559 29.7372C11.3241 29.8691 11.25 30.0479 11.25 30.2344V42.8906H3.51562V16.875ZM14.0625 25.3125V26.7188H12.6562V25.3125H14.0625Z" fill="#263238"/>
<path d="M9.14062 23.9062H6.32812C6.14164 23.9062 5.9628 23.9803 5.83094 24.1122C5.69908 24.2441 5.625 24.4229 5.625 24.6094V27.4219C5.625 27.6084 5.69908 27.7872 5.83094 27.9191C5.9628 28.0509 6.14164 28.125 6.32812 28.125H9.14062C9.32711 28.125 9.50595 28.0509 9.63781 27.9191C9.76967 27.7872 9.84375 27.6084 9.84375 27.4219V24.6094C9.84375 24.4229 9.76967 24.2441 9.63781 24.1122C9.50595 23.9803 9.32711 23.9062 9.14062 23.9062ZM8.4375 26.7188H7.03125V25.3125H8.4375V26.7188Z" fill="#263238"/>
<path d="M9.14062 29.5312H6.32812C6.14164 29.5312 5.9628 29.6053 5.83094 29.7372C5.69908 29.8691 5.625 30.0479 5.625 30.2344V33.0469C5.625 33.2334 5.69908 33.4122 5.83094 33.5441C5.9628 33.6759 6.14164 33.75 6.32812 33.75H9.14062C9.32711 33.75 9.50595 33.6759 9.63781 33.5441C9.76967 33.4122 9.84375 33.2334 9.84375 33.0469V30.2344C9.84375 30.0479 9.76967 29.8691 9.63781 29.7372C9.50595 29.6053 9.32711 29.5312 9.14062 29.5312ZM8.4375 32.3438H7.03125V30.9375H8.4375V32.3438Z" fill="#263238"/>
<path d="M9.14062 35.1562H6.32812C6.14164 35.1562 5.9628 35.2303 5.83094 35.3622C5.69908 35.4941 5.625 35.6729 5.625 35.8594V38.6719C5.625 38.8584 5.69908 39.0372 5.83094 39.1691C5.9628 39.3009 6.14164 39.375 6.32812 39.375H9.14062C9.32711 39.375 9.50595 39.3009 9.63781 39.1691C9.76967 39.0372 9.84375 38.8584 9.84375 38.6719V35.8594C9.84375 35.6729 9.76967 35.4941 9.63781 35.3622C9.50595 35.2303 9.32711 35.1562 9.14062 35.1562ZM8.4375 37.9688H7.03125V36.5625H8.4375V37.9688Z" fill="#263238"/>
<path d="M16.1719 32.3438H14.7656V35.1562H16.1719V32.3438Z" fill="#263238"/>
<path d="M18.9844 32.3438H17.5781V35.1562H18.9844V32.3438Z" fill="#263238"/>
<path d="M21.7969 32.3438H20.3906V35.1562H21.7969V32.3438Z" fill="#263238"/>
<path d="M16.1719 36.5625H14.7656V39.375H16.1719V36.5625Z" fill="#263238"/>
<path d="M18.9844 36.5625H17.5781V39.375H18.9844V36.5625Z" fill="#263238"/>
<path d="M21.7969 36.5625H20.3906V39.375H21.7969V36.5625Z" fill="#263238"/>
<path d="M40.0781 34.4531H30.9375V35.8594H40.0781V34.4531Z" fill="#263238"/>
<path d="M40.0781 37.2656H30.9375V38.6719H40.0781V37.2656Z" fill="#263238"/>
<path d="M40.0781 40.0781H30.9375V41.4844H40.0781V40.0781Z" fill="#263238"/>
<path d="M30.2344 18.9844H23.2031V20.3906H30.2344V18.9844Z" fill="#263238"/>
<path d="M30.2344 21.7969H23.2031V23.2031H30.2344V21.7969Z" fill="#263238"/>
<path d="M30.2344 24.6094H23.2031V26.0156H30.2344V24.6094Z" fill="#263238"/>
<path d="M30.2344 27.4219H23.2031V28.8281H30.2344V27.4219Z" fill="#263238"/>
<path d="M18.9844 12.6563C19.4016 12.6563 19.8094 12.5325 20.1563 12.3008C20.5032 12.069 20.7735 11.7395 20.9332 11.3541C21.0928 10.9687 21.1346 10.5445 21.0532 10.1354C20.9718 9.72618 20.7709 9.35032 20.4759 9.05532C20.1809 8.76032 19.8051 8.55942 19.3959 8.47803C18.9867 8.39664 18.5626 8.43841 18.1772 8.59807C17.7917 8.75772 17.4623 9.02809 17.2305 9.37497C16.9987 9.72186 16.875 10.1297 16.875 10.5469C16.875 11.1063 17.0972 11.6428 17.4928 12.0384C17.8884 12.434 18.4249 12.6563 18.9844 12.6563ZM18.9844 9.84375C19.1234 9.84375 19.2594 9.88499 19.375 9.96225C19.4906 10.0395 19.5808 10.1493 19.634 10.2778C19.6872 10.4063 19.7011 10.5477 19.674 10.684C19.6469 10.8204 19.5799 10.9457 19.4816 11.0441C19.3832 11.1424 19.2579 11.2094 19.1215 11.2365C18.9852 11.2636 18.8438 11.2497 18.7153 11.1965C18.5868 11.1433 18.477 11.0531 18.3997 10.9375C18.3225 10.8219 18.2812 10.6859 18.2812 10.5469C18.2812 10.3604 18.3553 10.1816 18.4872 10.0497C18.6191 9.91783 18.7979 9.84375 18.9844 9.84375Z" fill="#263238"/>
<path d="M4.92188 7.03125C5.33907 7.03125 5.7469 6.90754 6.09378 6.67576C6.44067 6.44398 6.71103 6.11454 6.87068 5.7291C7.03034 5.34366 7.07211 4.91954 6.99072 4.51036C6.90933 4.10118 6.70843 3.72532 6.41343 3.43032C6.11843 3.13532 5.74257 2.93442 5.33339 2.85303C4.92421 2.77164 4.50009 2.81341 4.11465 2.97307C3.72921 3.13272 3.39978 3.40308 3.16799 3.74997C2.93621 4.09685 2.8125 4.50468 2.8125 4.92188C2.8125 5.48132 3.03474 6.01784 3.43032 6.41343C3.82591 6.80901 4.36243 7.03125 4.92188 7.03125ZM4.92188 4.21875C5.06094 4.21875 5.19688 4.25999 5.31251 4.33725C5.42814 4.41451 5.51826 4.52432 5.57148 4.6528C5.6247 4.78128 5.63862 4.92266 5.61149 5.05905C5.58436 5.19544 5.51739 5.32073 5.41906 5.41906C5.32073 5.51739 5.19544 5.58436 5.05905 5.61149C4.92265 5.63862 4.78128 5.6247 4.6528 5.57148C4.52432 5.51826 4.41451 5.42814 4.33725 5.31251C4.25999 5.19688 4.21875 5.06094 4.21875 4.92188C4.21875 4.7354 4.29283 4.55655 4.42469 4.42469C4.55655 4.29283 4.73539 4.21875 4.92188 4.21875Z" fill="#263238"/>
</g>
<defs>
<clipPath id="clip0_392_736">
<rect width="45" height="45" fill="white"/>
</clipPath>
</defs>
</svg>
