<svg width="23" height="23" viewBox="0 0 23 23" fill="none" xmlns="http://www.w3.org/2000/svg">
<path d="M3.01071 11.0473C2.89678 10.9361 2.7461 10.8755 2.5904 10.8784C2.4347 10.8813 2.28614 10.9474 2.17603 11.0628C2.06592 11.1782 2.00284 11.3339 2.00009 11.497C1.99735 11.6602 2.05514 11.8181 2.1613 11.9375L7.77063 17.8158C7.88332 17.9338 8.03607 18 8.19534 18C8.3546 18 8.50735 17.9338 8.62004 17.8158L19.8387 6.05918C19.9449 5.93979 20.0027 5.78187 19.9999 5.61871C19.9972 5.45554 19.9341 5.29986 19.824 5.18447C19.7139 5.06908 19.5653 5.00298 19.4096 5.0001C19.2539 4.99722 19.1032 5.05779 18.9893 5.16904L8.19534 16.4806L3.01071 11.0473Z" fill="#EFA35A"/>
</svg>
