<svg width="23" height="23" viewBox="0 0 23 23" fill="none" xmlns="http://www.w3.org/2000/svg">
<path d="M16.7166 6.36308L17.4823 8.66551H13.8283V5.16638H15.0607C15.4271 5.16641 15.7842 5.28201 16.0814 5.49679C16.3786 5.71158 16.6008 6.01465 16.7166 6.36308ZM17.8698 9.83189L17.8733 9.84355L18.1828 9.92053L18.3248 9.95552C18.7026 10.0502 19.0379 10.2688 19.2774 10.5766C19.517 10.8843 19.647 11.2635 19.6468 11.6538V13.6226C19.6468 13.8092 19.5886 13.9842 19.4873 14.1265C19.2791 13.522 18.8783 13.0028 18.3467 12.649C17.8152 12.2953 17.1823 12.1264 16.5456 12.1686C15.9089 12.2108 15.3037 12.4616 14.8232 12.8824C14.3427 13.3032 14.0136 13.8707 13.8865 14.4974H9.11536C8.98827 13.8707 8.65913 13.3032 8.17862 12.8824C7.69812 12.4616 7.09292 12.2108 6.45623 12.1686C5.81954 12.1264 5.18668 12.2953 4.65511 12.649C4.12355 13.0028 3.72278 13.522 3.51452 14.1265C3.4106 13.9791 3.3549 13.8031 3.3551 13.6226V12.2078C3.35496 11.8221 3.482 11.4472 3.71644 11.1413C3.95088 10.8354 4.27959 10.6158 4.65145 10.5166L7.21389 9.83189H17.8698ZM8.15881 8.66551L9.59946 6.06682C9.75045 5.79419 9.97139 5.56696 10.2394 5.40864C10.5074 5.25033 10.8128 5.16669 11.1239 5.16638H12.6646V8.66551H8.15881ZM2.19141 13.6226C2.19141 14.4472 2.68016 15.1576 3.38186 15.4795C3.47505 16.1619 3.80624 16.7892 4.31675 17.2503C4.82726 17.7114 5.48413 17.9764 6.17097 17.9985C6.8578 18.0206 7.53026 17.7982 8.0692 17.3709C8.60813 16.9436 8.97874 16.3388 9.11536 15.6638H13.8865C14.0231 16.3388 14.3937 16.9436 14.9327 17.3709C15.4716 17.7982 16.1441 18.0206 16.8309 17.9985C17.5177 17.9764 18.1746 17.7114 18.6851 17.2503C19.1956 16.7892 19.5268 16.1619 19.62 15.4795C19.9751 15.3169 20.2762 15.0555 20.4872 14.7262C20.6983 14.397 20.8105 14.0139 20.8105 13.6226V11.6538C20.8105 11.0339 20.6134 10.4301 20.2478 9.93009C19.8823 9.43007 19.3672 9.05984 18.7775 8.87313L17.8198 5.99334C17.6267 5.41316 17.2565 4.90851 16.7616 4.55079C16.2666 4.19307 15.672 4.00038 15.0618 4H11.1251C10.6059 3.99968 10.0961 4.1386 9.64862 4.40236C9.20111 4.66611 8.83216 5.04509 8.58007 5.49996L6.78798 8.73899L4.35238 9.38983C3.73268 9.55515 3.18484 9.92106 2.79404 10.4307C2.40324 10.9403 2.19138 11.565 2.19141 12.2078V13.6226ZM16.7375 13.331C17.2005 13.331 17.6445 13.5154 17.9718 13.8435C18.2992 14.1716 18.4831 14.6166 18.4831 15.0806C18.4831 15.5446 18.2992 15.9896 17.9718 16.3177C17.6445 16.6458 17.2005 16.8302 16.7375 16.8302C16.2746 16.8302 15.8306 16.6458 15.5033 16.3177C15.1759 15.9896 14.992 15.5446 14.992 15.0806C14.992 14.6166 15.1759 14.1716 15.5033 13.8435C15.8306 13.5154 16.2746 13.331 16.7375 13.331ZM6.26432 13.331C6.72727 13.331 7.17125 13.5154 7.4986 13.8435C7.82595 14.1716 8.00986 14.6166 8.00986 15.0806C8.00986 15.5446 7.82595 15.9896 7.4986 16.3177C7.17125 16.6458 6.72727 16.8302 6.26432 16.8302C5.80138 16.8302 5.35739 16.6458 5.03004 16.3177C4.70269 15.9896 4.51879 15.5446 4.51879 15.0806C4.51879 14.6166 4.70269 14.1716 5.03004 13.8435C5.35739 13.5154 5.80138 13.331 6.26432 13.331Z" fill="#EFA35A"/>
</svg>
