<svg width="27" height="27" viewBox="0 0 27 27" fill="none" xmlns="http://www.w3.org/2000/svg">
<circle cx="13.5" cy="13.5" r="13.5" fill="url(#paint0_linear_392_592)"/>
<path d="M18.4482 17.6641V19H10.0723V17.8311L14.2646 13.1641C14.7803 12.5898 15.1787 12.1035 15.46 11.7051C15.7471 11.3008 15.9463 10.9404 16.0576 10.624C16.1748 10.3018 16.2334 9.97363 16.2334 9.63965C16.2334 9.21777 16.1455 8.83691 15.9697 8.49707C15.7998 8.15137 15.5479 7.87598 15.2139 7.6709C14.8799 7.46582 14.4756 7.36328 14.001 7.36328C13.4326 7.36328 12.958 7.47461 12.5771 7.69727C12.2021 7.91406 11.9209 8.21875 11.7334 8.61133C11.5459 9.00391 11.4521 9.45508 11.4521 9.96484H9.82617C9.82617 9.24414 9.98438 8.58496 10.3008 7.9873C10.6172 7.38965 11.0859 6.91504 11.707 6.56348C12.3281 6.20605 13.0928 6.02734 14.001 6.02734C14.8096 6.02734 15.501 6.1709 16.0752 6.45801C16.6494 6.73926 17.0889 7.1377 17.3936 7.65332C17.7041 8.16309 17.8594 8.76074 17.8594 9.44629C17.8594 9.82129 17.7949 10.2021 17.666 10.5889C17.543 10.9697 17.3701 11.3506 17.1475 11.7314C16.9307 12.1123 16.6758 12.4873 16.3828 12.8564C16.0957 13.2256 15.7881 13.5889 15.46 13.9463L12.0322 17.6641H18.4482Z" fill="white"/>
<defs>
<linearGradient id="paint0_linear_392_592" x1="13.5" y1="0" x2="13.5" y2="27" gradientUnits="userSpaceOnUse">
<stop stop-color="#FF7E00"/>
<stop offset="1" stop-color="#EFA35A"/>
</linearGradient>
</defs>
</svg>
