<svg width="27" height="27" viewBox="0 0 27 27" fill="none" xmlns="http://www.w3.org/2000/svg">
<circle cx="13.5" cy="13.5" r="13.5" fill="url(#paint0_linear_392_610)"/>
<path d="M13.4365 11.8018H14.5967C15.165 11.8018 15.6338 11.708 16.0029 11.5205C16.3779 11.3271 16.6562 11.0664 16.8379 10.7383C17.0254 10.4043 17.1191 10.0293 17.1191 9.61328C17.1191 9.12109 17.0371 8.70801 16.873 8.37402C16.709 8.04004 16.4629 7.78809 16.1348 7.61816C15.8066 7.44824 15.3906 7.36328 14.8867 7.36328C14.4297 7.36328 14.0254 7.4541 13.6738 7.63574C13.3281 7.81152 13.0557 8.06348 12.8564 8.3916C12.6631 8.71973 12.5664 9.10645 12.5664 9.55176H10.9404C10.9404 8.90137 11.1045 8.30957 11.4326 7.77637C11.7607 7.24316 12.2207 6.81836 12.8125 6.50195C13.4102 6.18555 14.1016 6.02734 14.8867 6.02734C15.6602 6.02734 16.3369 6.16504 16.917 6.44043C17.4971 6.70996 17.9482 7.11426 18.2705 7.65332C18.5928 8.18652 18.7539 8.85156 18.7539 9.64844C18.7539 9.9707 18.6777 10.3164 18.5254 10.6855C18.3789 11.0488 18.1475 11.3887 17.8311 11.7051C17.5205 12.0215 17.1162 12.2822 16.6182 12.4873C16.1201 12.6865 15.5225 12.7861 14.8252 12.7861H13.4365V11.8018ZM13.4365 13.1377V12.1621H14.8252C15.6396 12.1621 16.3135 12.2588 16.8467 12.4521C17.3799 12.6455 17.7988 12.9033 18.1035 13.2256C18.4141 13.5479 18.6309 13.9023 18.7539 14.2891C18.8828 14.6699 18.9473 15.0508 18.9473 15.4316C18.9473 16.0293 18.8447 16.5596 18.6396 17.0225C18.4404 17.4854 18.1562 17.8779 17.7871 18.2002C17.4238 18.5225 16.9961 18.7656 16.5039 18.9297C16.0117 19.0938 15.4756 19.1758 14.8955 19.1758C14.3389 19.1758 13.8145 19.0967 13.3223 18.9385C12.8359 18.7803 12.4053 18.5518 12.0303 18.2529C11.6553 17.9482 11.3623 17.5762 11.1514 17.1367C10.9404 16.6914 10.835 16.1846 10.835 15.6162H12.4609C12.4609 16.0615 12.5576 16.4512 12.751 16.7852C12.9502 17.1191 13.2314 17.3799 13.5947 17.5674C13.9639 17.749 14.3975 17.8398 14.8955 17.8398C15.3936 17.8398 15.8213 17.7549 16.1787 17.585C16.542 17.4092 16.8203 17.1455 17.0137 16.7939C17.2129 16.4424 17.3125 16 17.3125 15.4668C17.3125 14.9336 17.2012 14.4971 16.9785 14.1572C16.7559 13.8115 16.4395 13.5566 16.0293 13.3926C15.625 13.2227 15.1475 13.1377 14.5967 13.1377H13.4365Z" fill="white"/>
<defs>
<linearGradient id="paint0_linear_392_610" x1="13.5" y1="0" x2="13.5" y2="27" gradientUnits="userSpaceOnUse">
<stop stop-color="#FF7E00"/>
<stop offset="1" stop-color="#EFA35A"/>
</linearGradient>
</defs>
</svg>
