<svg width="40" height="40" viewBox="0 0 40 40" fill="none" xmlns="http://www.w3.org/2000/svg">
<path d="M20.5 10.4174C19.3202 10.4174 18.1669 10.7618 17.186 11.407C16.205 12.0522 15.4404 12.9693 14.989 14.0423C14.5375 15.1153 14.4193 16.296 14.6495 17.435C14.8797 18.5741 15.4478 19.6204 16.282 20.4416C17.1163 21.2629 18.1791 21.8221 19.3363 22.0487C20.4934 22.2753 21.6928 22.159 22.7828 21.7146C23.8727 21.2701 24.8044 20.5175 25.4598 19.5518C26.1153 18.5862 26.4651 17.4508 26.4651 16.2895C26.4651 14.7321 25.8367 13.2385 24.718 12.1373C23.5993 11.036 22.082 10.4174 20.5 10.4174ZM20.5 20.3072C19.6928 20.3072 18.9037 20.0716 18.2325 19.6301C17.5613 19.1886 17.0382 18.5611 16.7293 17.827C16.4204 17.0928 16.3395 16.285 16.497 15.5056C16.6545 14.7263 17.0432 14.0104 17.614 13.4485C18.1848 12.8866 18.912 12.5039 19.7038 12.3489C20.4955 12.1939 21.3161 12.2735 22.0619 12.5775C22.8077 12.8816 23.4451 13.3966 23.8936 14.0573C24.342 14.718 24.5814 15.4948 24.5814 16.2895C24.5814 17.355 24.1514 18.377 23.386 19.1304C22.6206 19.8839 21.5825 20.3072 20.5 20.3072ZM20.5 3C16.9209 3.00409 13.4895 4.40554 10.9586 6.89691C8.42781 9.38828 7.00415 12.7661 7 16.2895C7 21.0659 9.25105 26.1391 13.5098 30.9604C15.432 33.1472 17.5954 35.1166 19.96 36.8325C20.1183 36.9415 20.3068 37 20.5 37C20.6932 37 20.8817 36.9415 21.04 36.8325C23.4046 35.1166 25.568 33.1472 27.4902 30.9604C31.749 26.1391 34 21.0706 34 16.2895C33.9958 12.7661 32.5722 9.38828 30.0414 6.89691C27.5105 4.40554 24.0791 3.00409 20.5 3ZM20.5 34.9117C18.1453 33.1223 8.88372 25.5024 8.88372 16.2895C8.88372 13.2567 10.1076 10.3481 12.286 8.20361C14.4645 6.05911 17.4192 4.85434 20.5 4.85434C23.5808 4.85434 26.5355 6.05911 28.7139 8.20361C30.8924 10.3481 32.1163 13.2567 32.1163 16.2895C32.1163 25.5024 22.8547 33.1223 20.5 34.9117Z" fill="#EFA35A"/>
</svg>
