<svg width="45" height="45" viewBox="0 0 45 45" fill="none" xmlns="http://www.w3.org/2000/svg">
<path fill-rule="evenodd" clip-rule="evenodd" d="M9.03727 16.4419C8.30602 16.2085 6.70641 15.8604 5.41055 16.726C4.40719 17.3961 3.50227 18.8262 3.49945 21.7969H2.8125C2.42437 21.7969 2.10938 22.1119 2.10938 22.5001V34.4532C2.10938 34.8413 2.42437 35.1563 2.8125 35.1563H4.21875C4.77844 35.1563 5.31492 34.9341 5.71008 34.5383C6.10594 34.1431 6.32812 33.6066 6.32812 33.0469V30.586H9.49219C10.1559 30.586 10.7494 30.2787 11.1354 29.7985C11.172 29.7739 11.2064 29.7451 11.2388 29.7127L19.0104 21.9411L31.5028 25.2886C31.8776 25.3892 32.2629 25.1663 32.3634 24.7915L32.6623 23.6778L35.107 24.3324C36.2327 24.634 37.3894 23.9668 37.6903 22.8411L38.4757 19.9118L41.3782 17.2076C41.7537 16.8575 41.9105 16.3308 41.786 15.833C41.6623 15.3345 41.2777 14.9422 40.7812 14.8093L10.5504 6.68888C10.1904 6.59185 9.80648 6.64247 9.48305 6.8288C9.15961 7.01513 8.92406 7.3224 8.82773 7.6824L7.0875 14.1751C6.98766 14.5505 7.20984 14.9358 7.58461 15.0364L9.31641 15.5004L9.03727 16.4419ZM4.21453 23.2032H3.51562V33.7501H4.21875C4.40508 33.7501 4.58437 33.6762 4.71586 33.544C4.84805 33.4126 4.92188 33.2333 4.92188 33.0469V23.9063C4.92188 23.72 4.84805 23.5407 4.71586 23.4092C4.58437 23.2777 4.40578 23.2032 4.22016 23.2032C4.21805 23.2032 4.21594 23.2032 4.21453 23.2032ZM6.32812 27.7735V29.1797H7.50305C7.425 28.9597 7.38281 28.7234 7.38281 28.4766C7.38281 28.2298 7.425 27.9936 7.50305 27.7735H6.32812ZM9.49219 27.7735C9.88031 27.7735 10.1953 28.0885 10.1953 28.4766C10.1953 28.8647 9.88031 29.1797 9.49219 29.1797C9.10406 29.1797 8.78906 28.8647 8.78906 28.4766C8.78906 28.0885 9.10406 27.7735 9.49219 27.7735ZM11.3955 27.5675L17.4417 21.5213L15.8737 21.1008L10.4013 26.5733C10.8359 26.7807 11.1881 27.1329 11.3955 27.5675ZM8.6407 17.78C8.1907 17.6119 7.08188 17.3011 6.19102 17.896C5.40984 18.4177 4.87898 19.5856 4.905 21.9115C5.20523 22.0149 5.48156 22.1858 5.71008 22.415C6.10594 22.8101 6.32812 23.3466 6.32812 23.9063V26.3672H8.6182L14.3051 20.6804L8.95852 19.2481C8.7757 19.1989 8.61961 19.0779 8.5268 18.9127C8.43469 18.7468 8.41289 18.5513 8.46633 18.3692L8.6407 17.78ZM10.6748 15.8647L10.0195 18.0767L31.1871 23.7481L32.5048 18.8311L30.4657 18.2848L28.6889 20.2887C28.5124 20.4877 28.2382 20.5707 27.9809 20.5018L10.6748 15.8647ZM36.9872 20.0321L36.3326 22.4768C36.232 22.8523 35.846 23.0752 35.4713 22.9747L33.0258 22.3194L33.8632 19.1947L36.9872 20.0321ZM37.6545 18.7552L40.4198 16.179C40.4212 16.1769 40.422 16.1747 40.422 16.1719C40.4212 16.1698 40.4191 16.1677 40.417 16.167L10.1862 8.04662L8.62805 13.8601L9.45 14.0808C9.45773 14.0822 9.46547 14.0844 9.4732 14.0865L27.9253 19.0308L29.7021 17.0262C29.8786 16.8272 30.1528 16.745 30.4102 16.8139L37.6545 18.7552ZM19.7262 12.7576C20.2212 12.8897 20.5151 13.3995 20.3829 13.8938C20.25 14.3888 19.7409 14.6827 19.2459 14.5505C18.7509 14.4176 18.457 13.9086 18.5899 13.4136C18.7221 12.9186 19.2312 12.6247 19.7262 12.7576ZM16.1402 11.7964C16.6352 11.9293 16.9291 12.4383 16.7963 12.9333C16.6641 13.4276 16.1543 13.7222 15.66 13.5893C15.165 13.4572 14.8711 12.9474 15.0033 12.4524C15.1362 11.9581 15.6452 11.6635 16.1402 11.7964ZM12.5543 10.8352C13.0493 10.9681 13.3432 11.4772 13.2103 11.9722C13.0781 12.4672 12.5684 12.7611 12.0741 12.6289C11.5791 12.496 11.2852 11.9869 11.4173 11.4919C11.5502 10.9969 12.0593 10.703 12.5543 10.8352Z" fill="#263238"/>
</svg>
