<svg width="45" height="45" viewBox="0 0 45 45" fill="none" xmlns="http://www.w3.org/2000/svg">
<path d="M43.7256 37.9031H42.9306V36.1013C42.9306 35.7372 42.6356 35.4422 42.2714 35.4422C41.9073 35.4422 41.6123 35.7372 41.6123 36.1013V37.9031H39.6593V35.0836C39.6593 34.2282 38.9634 33.5323 38.108 33.5323H34.5736C33.7183 33.5323 33.0224 34.2282 33.0224 35.0836V37.9031H30.4288V35.0836C30.4288 34.2282 29.7329 33.5323 28.8775 33.5323H25.3432C24.4877 33.5323 23.7918 34.2282 23.7918 35.0836V37.9031H21.1983V35.0836C21.1983 34.2282 20.5024 33.5323 19.647 33.5323H16.1126C15.2573 33.5323 14.5614 34.2282 14.5614 35.0836V37.9031H11.9678V35.0836C11.9678 34.2282 11.2719 33.5323 10.4165 33.5323H6.8821C6.02666 33.5323 5.33074 34.2282 5.33074 35.0836V37.9031H3.37781V31.1035H41.6123V33.0252C41.6123 33.3893 41.9073 33.6843 42.2714 33.6843C42.6356 33.6843 42.9306 33.3893 42.9306 33.0252V31.0689C42.9306 30.361 42.3548 29.7852 41.647 29.7852H40.8192C40.8192 28.8315 40.8192 3.53267 40.8192 3.11967C40.8192 2.4118 40.2434 1.83594 39.5356 1.83594H20.8615C20.1537 1.83594 19.5779 2.41188 19.5779 3.11967V10.4995H10.2144C9.45738 10.4995 8.84144 11.1153 8.84144 11.8723V17.1218H5.45467C4.7468 17.1218 4.17103 17.6976 4.17103 18.4054V23.4055C4.17103 23.7697 4.46607 24.0647 4.8302 24.0647C5.19434 24.0647 5.48938 23.7697 5.48938 23.4055V22.0034H8.84153V22.8951C8.84153 23.5003 9.2453 24.0413 9.82907 24.2131V29.7852H5.4893V26.4817C5.4893 26.1176 5.19425 25.8225 4.83012 25.8225C4.46599 25.8225 4.17094 26.1176 4.17094 26.4817V29.7852H3.3431C2.63522 29.7852 2.05945 30.3611 2.05945 31.0689V37.9031H1.27441C0.571729 37.9031 0 38.4748 0 39.1775V41.89C0 42.5927 0.571729 43.1644 1.27441 43.1644H43.7256C44.4283 43.1644 45 42.5927 45 41.89V39.1775C45 38.4748 44.4283 37.9031 43.7256 37.9031ZM8.84144 20.6851H5.4893V18.4401H8.84144V20.6851ZM15.4871 29.7852H11.1473V24.2681H15.4871V29.7852ZM21.1452 29.7852H16.8055V24.2681H21.1452V29.7852ZM26.8033 29.7852H22.4635V24.2131C23.0396 24.0446 23.4511 23.5063 23.4511 22.8951V22.0034H26.8033V29.7852ZM26.8033 20.6851H23.4511V18.4401H26.8033V20.6851ZM39.5009 29.7852H28.1217V28.5053H39.5009V29.7852ZM28.1217 27.1869C28.1217 26.3265 28.1217 20.2282 28.1217 19.3809H29.4796V27.1869H28.1217ZM30.7979 27.1869V19.381H34.4305V27.1869H30.7979ZM39.5009 27.1869H35.7489V19.381H39.5009V27.1869ZM39.5009 18.0626C38.8765 18.0626 28.4166 18.0626 28.0752 18.0626C27.9221 17.5119 27.4146 17.1218 26.838 17.1218H23.4512V15.8178H39.5009V18.0626ZM25.8471 14.4994V6.71765H29.4796V14.4994H25.8471ZM30.7979 14.4994V6.71765H34.4305V14.4994H30.7979ZM39.5009 14.4994H35.7489V6.71765H39.5009V14.4994ZM20.8963 3.1543H39.5009V5.3992C38.9957 5.3992 26.3152 5.3992 20.8963 5.3992V3.1543ZM20.8963 6.71765H24.5288V14.4994H23.4511V11.8723C23.4511 11.1153 22.8352 10.4995 22.0782 10.4995H20.8963V6.71765ZM10.2144 11.8179C22.8857 11.8179 22.1327 11.7877 22.1327 11.8723V22.8951C22.1327 22.9252 22.1083 22.9496 22.0782 22.9496C21.4125 22.9496 10.8798 22.9496 10.2144 22.9496C10.1842 22.9496 10.1598 22.9252 10.1598 22.8951C10.1598 11.1909 10.1265 11.8179 10.2144 11.8179ZM34.3407 35.0836C34.3407 34.9552 34.4452 34.8506 34.5736 34.8506H38.108C38.2365 34.8506 38.341 34.9552 38.341 35.0836V37.9031H34.3406V35.0836H34.3407ZM25.1101 35.0836C25.1101 34.9552 25.2146 34.8506 25.3431 34.8506H28.8774C29.0058 34.8506 29.1103 34.9552 29.1103 35.0836V37.9031C28.2168 37.9031 25.9997 37.9031 25.11 37.9031L25.1101 35.0836ZM15.8796 35.0836C15.8796 34.9552 15.9841 34.8506 16.1125 34.8506H19.6469C19.7754 34.8506 19.8799 34.9552 19.8799 35.0836V37.9031H15.8795V35.0836H15.8796ZM6.64901 35.0836C6.64901 34.9552 6.75352 34.8506 6.88201 34.8506H10.4164C10.5448 34.8506 10.6493 34.9552 10.6493 35.0836V37.9031H6.64901V35.0836ZM43.6816 41.846H1.31836V39.2215H43.6816V41.846Z" fill="#263238"/>
<path d="M12.9102 21.8345H19.383C20.0162 21.8345 20.5314 21.3193 20.5314 20.686V16.2224C20.5314 15.5892 20.0162 15.074 19.383 15.074H17.8937V14.6787C17.8937 13.7154 17.11 12.9316 16.1466 12.9316C15.1832 12.9316 14.3995 13.7154 14.3995 14.6787V15.074H12.9102C12.2769 15.074 11.7617 15.5892 11.7617 16.2224V20.686C11.7616 21.3192 12.2769 21.8345 12.9102 21.8345ZM15.7179 14.6786C15.7179 14.4423 15.9102 14.2499 16.1466 14.2499C16.383 14.2499 16.5753 14.4422 16.5753 14.6786V15.0739H15.7179V14.6786ZM13.08 16.3922H19.2132V20.5162H13.0801V16.3922H13.08Z" fill="#263238"/>
</svg>
