<svg width="220" height="40" viewBox="0 0 220 40" fill="none" xmlns="http://www.w3.org/2000/svg">
<path d="M38.6667 1.33333V38.6667H1.33333V1.33333H38.6667ZM40 0H0V40H40V0Z" fill="#414753"/>
<path d="M38.6667 1.33333V38.6667H1.33333V1.33333H38.6667ZM40 0H0V40H40V0Z" fill="#414753"/>
<g clip-path="url(#clip0_385_1518)">
<path d="M10.42 27.06L11.2246 27.4632L11.473 26.9646L11.14 26.52L10.42 27.06ZM12.94 29.58L13.48 28.86L13.0354 28.527L12.5368 28.7754L12.94 29.58ZM7.9 32.1L7.0954 31.6968C7.01114 31.8656 6.98206 32.0566 7.01228 32.2429C7.04249 32.4291 7.13048 32.6012 7.26379 32.7347C7.3971 32.8682 7.569 32.9564 7.7552 32.9869C7.94139 33.0174 8.13246 32.9886 8.3014 32.9046L7.9 32.1ZM15.1 14.1L14.6014 13.3512C14.478 13.4333 14.3768 13.5446 14.3068 13.6753C14.2368 13.8059 14.2001 13.9518 14.2 14.1H15.1ZM25.9 24.9V25.8C26.0482 25.7999 26.1941 25.7632 26.3247 25.6932C26.4554 25.6232 26.5667 25.522 26.6488 25.3986L25.9 24.9ZM7 19.5C7 22.5384 8.0044 25.3446 9.7 27.6L11.14 26.52C9.61757 24.4966 8.79609 22.0322 8.8 19.5H7ZM20.5 6C16.9196 6 13.4858 7.42232 10.9541 9.95406C8.42232 12.4858 7 15.9196 7 19.5H8.8C8.8 16.397 10.0327 13.421 12.2269 11.2269C14.421 9.03268 17.397 7.8 20.5 7.8V6ZM34 19.5C34 15.9196 32.5777 12.4858 30.0459 9.95406C27.5142 7.42232 24.0804 6 20.5 6V7.8C22.0365 7.8 23.5579 8.10263 24.9774 8.69061C26.3969 9.27859 27.6867 10.1404 28.7731 11.2269C29.8596 12.3133 30.7214 13.6031 31.3094 15.0226C31.8974 16.4421 32.2 17.9635 32.2 19.5H34ZM20.5 33C24.0804 33 27.5142 31.5777 30.0459 29.0459C32.5777 26.5142 34 23.0804 34 19.5H32.2C32.2 21.0365 31.8974 22.5579 31.3094 23.9774C30.7214 25.3969 29.8596 26.6867 28.7731 27.7731C27.6867 28.8596 26.3969 29.7214 24.9774 30.3094C23.5579 30.8974 22.0365 31.2 20.5 31.2V33ZM12.4 30.3C14.735 32.0561 17.5784 33.0039 20.5 33V31.2C17.9678 31.204 15.5033 30.3825 13.48 28.86L12.4 30.3ZM8.3014 32.9046L13.3414 30.3846L12.5368 28.7754L7.495 31.2954L8.3014 32.9046ZM9.6136 26.6586L7.0936 31.6986L8.7028 32.5032L11.2246 27.4632L9.6136 26.6586ZM14.2 14.1V15.9H16V14.1H14.2ZM24.1 25.8H25.9V24H24.1V25.8ZM14.2 15.9C14.2 18.5256 15.243 21.0437 17.0996 22.9004C18.9563 24.757 21.4744 25.8 24.1 25.8V24C21.9517 24 19.8915 23.1466 18.3724 21.6276C16.8534 20.1085 16 18.0483 16 15.9H14.2ZM15.5986 14.8488L15.9838 14.5932L14.9848 13.0956L14.6014 13.3512L15.5986 14.8488ZM17.3698 15.1944L17.6218 16.6992L19.3966 16.404L19.1446 14.8974L17.3698 15.1944ZM17.233 17.5974L15.5014 18.7512L16.4986 20.2488L18.2302 19.095L17.233 17.5974ZM17.6218 16.6992C17.6506 16.8705 17.6292 17.0464 17.5602 17.2058C17.4912 17.3651 17.3776 17.5012 17.233 17.5974L18.2302 19.095C18.6632 18.8065 19.0037 18.3991 19.2106 17.9217C19.4176 17.4443 19.4821 16.9172 19.3966 16.404L17.6218 16.6992ZM15.9838 14.5932C16.1089 14.5101 16.2527 14.4595 16.4023 14.4462C16.5519 14.4329 16.7025 14.4572 16.8402 14.517C16.978 14.5768 17.0987 14.6701 17.1911 14.7884C17.2836 14.9067 17.3451 15.0463 17.3698 15.1944L19.1446 14.8974C19.0703 14.4529 18.8858 14.034 18.6081 13.6791C18.3304 13.3241 17.9683 13.0443 17.5547 12.8652C17.1412 12.686 16.6893 12.6133 16.2405 12.6535C15.7916 12.6938 15.3599 12.8458 14.9848 13.0956L15.9838 14.5932ZM26.6488 25.3986L26.9044 25.0152L25.4068 24.0162L25.1512 24.4014L26.6488 25.3986ZM25.1008 20.8554L23.596 20.6034L23.3008 22.38L24.8056 22.6302L25.1026 20.8554H25.1008ZM20.905 21.7698L19.7512 23.5014L21.2488 24.4986L22.4026 22.767L20.905 21.7698ZM23.596 20.6034C23.0828 20.5179 22.5557 20.5824 22.0783 20.7894C21.6009 20.9963 21.1935 21.3368 20.905 21.7698L22.4026 22.767C22.4988 22.6224 22.6349 22.5088 22.7942 22.4398C22.9536 22.3708 23.1295 22.3494 23.3008 22.3782L23.596 20.6034ZM26.9044 25.0152C27.1542 24.6401 27.3062 24.2084 27.3465 23.7595C27.3867 23.3107 27.314 22.8588 27.1348 22.4453C26.9557 22.0317 26.6759 21.6696 26.3209 21.3919C25.966 21.1142 25.5471 20.9297 25.1026 20.8554L24.8056 22.6302C24.9537 22.6549 25.0933 22.7164 25.2116 22.8089C25.3299 22.9013 25.4232 23.022 25.483 23.1598C25.5428 23.2975 25.5671 23.4481 25.5538 23.5977C25.5405 23.7473 25.4899 23.8911 25.4068 24.0162L26.9044 25.0152Z" fill="#414753"/>
</g>
<path d="M92.4039 13.0158C92.5855 12.4298 92.4039 12 91.5449 12H88.6995C87.9755 12 87.6446 12.3718 87.463 12.7801C87.463 12.7801 86.0162 16.2069 83.9662 18.4288C83.3045 19.0753 83.0021 19.2794 82.6414 19.2794C82.4611 19.2794 82.199 19.0753 82.199 18.4892V13.0158C82.199 12.3126 81.9901 12 81.3867 12H76.9155C76.464 12 76.1915 12.3252 76.1915 12.6352C76.1915 13.3006 77.2166 13.4544 77.3217 15.3297V19.3979C77.3217 20.2889 77.1569 20.4515 76.7936 20.4515C75.8295 20.4515 73.4836 17.0122 72.0914 13.075C71.8202 12.31 71.5465 12.0013 70.8199 12.0013H67.9757C67.1622 12.0013 67 12.373 67 12.7814C67 13.5149 67.964 17.1445 71.4907 21.945C73.8417 25.223 77.1517 27 80.1671 27C81.9745 27 82.1977 26.6055 82.1977 25.925V23.4472C82.1977 22.6583 82.3703 22.4995 82.9425 22.4995C83.3628 22.4995 84.0869 22.7062 85.7749 24.2853C87.703 26.1581 88.0222 26.9987 89.1056 26.9987H91.9497C92.762 26.9987 93.1681 26.6043 92.9345 25.8254C92.6789 25.0503 91.7577 23.9224 90.5355 22.5877C89.8711 21.8265 88.8785 21.0073 88.5762 20.5977C88.1545 20.0697 88.2765 19.8365 88.5762 19.3677C88.5775 19.3689 92.0432 14.6277 92.4039 13.0158Z" fill="#414753"/>
<path d="M99.25 0.75V39.25H60.75V0.75H99.25Z" stroke="#414753" stroke-width="1.5"/>
<path d="M157.733 2.26667V37.7333H122.267V2.26667H157.733ZM159 1H121V39H159V1Z" fill="#414753"/>
<path d="M157.733 2.26667V37.7333H122.267V2.26667H157.733ZM159 1H121V39H159V1Z" fill="#414753"/>
<path d="M150 27.9987V20.6487C150 16.7111 147.885 14.878 145.065 14.878C142.788 14.878 141.77 16.1228 141.2 16.9951V15.1797H136.913C136.97 16.3829 136.913 27.9987 136.913 27.9987H141.2V20.8393C141.2 20.4568 141.228 20.0743 141.341 19.8003C141.651 19.0353 142.356 18.2425 143.54 18.2425C145.093 18.2425 145.713 19.4178 145.713 21.1411V28L150 27.9987ZM132.397 13.43C133.892 13.43 134.823 12.4452 134.823 11.2144C134.795 9.95694 133.892 9 132.426 9C130.96 9 130 9.95694 130 11.2144C130 12.4452 130.931 13.43 132.37 13.43H132.397ZM134.54 27.9987V15.1797H130.253V27.9987H134.54Z" fill="#EFA359"/>
<path d="M217.733 2.26667V37.7333H182.267V2.26667H217.733ZM219 1H181V39H219V1Z" fill="#414753"/>
<path d="M217.733 2.26667V37.7333H182.267V2.26667H217.733ZM219 1H181V39H219V1Z" fill="#414753"/>
<path d="M200.15 8V13.5H205.35V16.9378H200.15V22.4378C200.15 23.7154 200.265 24.7413 200.393 25.1039C200.521 25.4653 200.758 25.7543 201.107 25.9724C201.569 26.2654 202.095 26.4125 202.689 26.4125C203.744 26.4125 204.97 26.0331 206 25.1878V28.6256C205.134 29.1986 204.14 29.5548 203.417 29.7329C202.696 29.9097 201.916 30 201.076 30C200.199 30 199.352 29.8981 198.551 29.618C197.819 29.3638 197.41 29.0812 196.892 28.6127C196.376 28.1417 196.124 27.6681 195.924 27.1364C195.724 26.6073 195.6 25.5079 195.6 24.5V16.9378H193V13.5C193.832 13.4355 194.521 13.1877 195.102 12.6638C195.688 12.1373 196.156 11.5062 196.507 10.7706C196.861 10.0338 196.9 9.13175 196.9 8H200.15Z" fill="#414753"/>
<defs>
<clipPath id="clip0_385_1518">
<rect width="27" height="27" fill="white" transform="translate(7 6)"/>
</clipPath>
</defs>
</svg>
