<svg width="239" height="205" viewBox="0 0 239 205" fill="none" xmlns="http://www.w3.org/2000/svg">
<g clip-path="url(#clip0_385_1593)">
<path fill-rule="evenodd" clip-rule="evenodd" d="M0.248047 74.1633L0.285583 74.2067C0.933078 73.8568 1.49612 73.0748 2.02748 72.5664C3.24506 71.3992 5.79867 69.0848 6.82974 67.9975C7.77987 66.9959 8.97515 65.9978 9.82205 65.1371L11.5358 63.4345C11.7211 63.2537 11.8349 63.1962 12.0109 63.0294C12.1903 62.8592 12.0648 62.966 12.195 62.8251C12.3534 62.6537 12.2056 62.791 12.3909 62.6314C12.778 62.2991 12.8543 62.157 13.2202 61.8047L18.3873 56.8225C18.7298 56.5231 18.9163 56.3141 19.2342 56.0076L27.4217 48.1885C27.6176 48.0018 27.5824 47.9795 27.8018 47.7905L30.4023 45.3164C31.2199 44.4956 32.0727 43.5668 32.9841 42.8236L34.6439 41.1656C34.9735 40.8356 35.2374 40.6771 35.5729 40.3377L37.7089 38.2747C37.8157 38.1737 37.9365 38.0257 38.0948 37.8836L39.8133 36.1857C40.1276 35.8816 40.3728 35.729 40.693 35.406L47.5281 28.7753C47.704 28.605 47.8284 28.5287 47.9914 28.3561C48.9451 27.3498 50.1169 26.374 50.9837 25.4957L54.3807 22.1621C54.6857 21.8674 54.9379 21.6548 55.2042 21.3437C55.7437 21.5715 63.8644 30.1221 64.9881 31.2646C66.6221 32.9249 68.1951 34.5512 69.876 36.2327L74.6689 41.1996C75.4173 42.0838 76.3216 42.8787 77.1416 43.703L81.9614 48.6418C85.254 51.9214 88.3402 55.3101 91.6246 58.5944C92.4422 59.4117 93.2586 60.2277 94.0656 61.0321C94.5242 61.49 94.8304 61.901 95.2843 62.3507C95.7148 62.7746 96.0714 63.1551 96.5066 63.5696C97.3453 64.3668 98.1922 65.2275 98.9018 66.053C99.6057 66.8703 100.518 67.6899 101.331 68.5024C102.177 69.349 102.884 70.1498 103.723 70.9906C104.978 72.2458 107.557 75.0287 108.601 75.9692C109.476 76.7595 110.249 77.6143 110.992 78.4586C111.574 79.1185 112.255 79.6457 112.856 80.3009C113.074 80.5393 113.183 80.6802 113.417 80.9127C114.12 81.6149 116.306 84.0349 117.082 84.6631C117.46 84.9684 118.815 84.8169 119.389 84.8169H138.994C141.543 84.8169 146.536 84.9567 148.779 84.7981L155.011 77.0049C155.546 76.3098 156.051 75.7332 156.571 75.051L159.694 71.1479C160.197 70.4962 160.691 69.9549 161.223 69.2633L187.672 36.275C187.988 35.871 188.149 35.6738 188.461 35.3086C190.233 33.2408 192.158 30.7057 193.889 28.5369C194.424 27.8676 194.891 27.2887 195.45 26.5842L197.802 23.6663C198.014 23.4021 198.261 22.9664 198.59 22.7563C199.429 23.5676 202.693 28.1917 203.585 29.3154C205.297 31.476 206.824 33.687 208.506 35.8123C211.053 39.0297 213.404 42.3292 215.894 45.6017L225.732 58.6015C227.05 60.3698 237.797 74.37 237.94 74.8796L238.105 74.8232C237.402 73.265 236.547 71.6798 235.772 70.1287L205.207 9.33499C204.078 7.07111 201.403 1.96681 200.566 0L71.4983 15.8167L67.062 11.8114C66.8626 11.6247 66.6702 11.5132 66.4732 11.3218L61.5688 6.85858C60.6961 6.1564 59.7214 5.13014 58.8663 4.39273L57.7941 3.41461C57.5666 3.22791 57.4223 3.11988 57.2053 2.92614L55.0599 0.973423C54.8077 0.709225 54.2529 0.150299 53.9408 0.0528396L48.8747 6.9807C48.3222 7.72985 47.7169 8.53183 47.1938 9.30094L43.8331 13.9414C42.6754 15.4726 41.5927 17.0331 40.476 18.5901C38.2133 21.7441 35.9858 24.7524 33.7477 27.8676C32.6122 29.4481 31.4334 30.9511 30.3812 32.5022C28.3918 35.4342 25.783 38.7021 23.6963 41.7257C21.8019 44.4686 18.9527 48.2919 16.9726 51.0102C12.5211 57.1208 7.835 63.4639 3.51015 69.558C3.0433 70.2156 0.34306 73.7899 0.248047 74.1633Z" fill="white"/>
<path fill-rule="evenodd" clip-rule="evenodd" d="M219.819 139.699C219.37 138.562 216.781 131.522 216.489 131.109L206.422 131.127L206.398 131.682L209.565 131.711C209.664 132.508 209.586 151.353 209.587 153.142C209.589 154.381 209.67 155.324 208.934 156.078C207.952 157.084 206.98 156.753 206.396 157.048L206.389 157.533C207.455 157.553 213.016 157.717 213.546 157.439L213.537 157.001C210.973 156.739 210.217 156.243 210.22 153.533L210.214 133.349C210.699 134.186 214.581 144.696 215.058 145.934C215.866 148.031 216.649 150.114 217.455 152.226C218.245 154.298 219.136 156.464 219.832 158.523L220.432 158.492C221.205 156.494 221.905 154.2 222.58 152.163C223.276 150.061 224.005 147.991 224.703 145.89L228.941 133.421L229.056 156.976C228.38 156.994 226.286 156.873 225.792 157.047L225.782 157.439C226.137 157.636 237.702 157.589 238.98 157.528L238.917 156.986H235.718V131.698L238.935 131.682L238.925 131.109H229.14C228.807 131.654 226.571 138.482 226.147 139.72C225.763 140.838 223.462 148.01 223.168 148.335C222.889 147.984 220.251 140.791 219.819 139.699Z" fill="white"/>
<path fill-rule="evenodd" clip-rule="evenodd" d="M18.2476 131.67C19.0899 131.629 24.0692 131.57 24.4927 131.732C24.8692 131.917 26.0856 135.264 26.3343 135.865C26.9255 137.296 27.485 138.721 28.1032 140.15C28.5243 141.126 28.1243 141.583 27.7958 142.486C27.4299 143.492 25.58 148.857 25.2645 149.023L21.7185 140.389C21.2529 139.268 18.2136 132.22 18.2476 131.67ZM39.3065 148.749L39.1399 149.067C38.8596 148.956 38.9112 149.016 38.7634 148.674C38.625 147.729 31.9318 132.566 31.9107 131.675C32.6368 131.622 33.9822 131.825 34.5183 131.58C34.5066 130.99 34.6168 131.13 33.1658 131.136C29.526 131.15 8.50589 130.988 7.6543 131.2C7.70239 131.723 7.65782 131.676 8.2842 131.672C10.8941 131.652 10.8108 131.347 11.2941 132.562L12.3498 135.12C12.8237 136.276 13.2823 137.371 13.7386 138.512C14.6524 140.789 15.592 143.012 16.5245 145.292L21.4441 157.26C21.5649 157.551 21.6646 157.807 21.7854 158.098C21.9391 158.47 21.9895 158.555 22.4939 158.467C22.7954 158.031 26.5771 147.4 27.1296 145.924C27.3841 145.243 28.4011 142.195 28.6791 141.836C29.207 142.232 35.025 157.735 35.696 158.49C36.3916 158.527 36.2907 158.224 36.7435 157.028C39.2795 150.341 41.7498 143.342 44.2413 136.598C44.7433 135.238 45.0635 134.074 45.8928 133.172C47.2594 131.686 48.8382 131.851 49.3497 131.582L49.3274 131.186C48.7092 131.047 42.6741 131.071 42.1838 131.203C42.2695 132.223 43.0483 131.244 44.0477 132.584C44.6166 133.347 44.6166 134.067 44.2565 135.046C43.6818 136.609 43.1492 138.041 42.5709 139.614C42.1979 140.628 39.2502 148.386 39.3065 148.749Z" fill="#EFA35A"/>
<path fill-rule="evenodd" clip-rule="evenodd" d="M137.453 156.942L137.456 131.713C138.489 131.575 141.4 131.649 142.298 131.958C143.513 132.377 144.53 133.375 145.051 134.386C145.918 136.065 145.563 141.954 145.563 144.257C145.563 145.982 145.563 147.707 145.563 149.432C145.563 151.121 145.75 152.699 145.093 154.171C144.631 155.205 143.548 156.241 142.412 156.662C141.433 157.025 138.574 157.121 137.453 156.942ZM137.042 131.108C135.839 131.109 127.95 131.003 127.479 131.171L127.468 131.564C128.056 131.93 129.919 131.614 130.778 131.71L130.777 156.941C129.952 157.069 128.089 156.827 127.475 157.046L127.463 157.438C127.906 157.684 135.948 157.531 137.139 157.535C140.232 157.544 143.107 157.759 145.778 156.514C146.355 156.245 146.869 155.971 147.36 155.658C147.759 155.405 148.516 154.858 148.752 154.61L149.913 153.335C151.776 150.965 152.901 147.559 152.868 144.257C152.832 140.617 151.159 136.083 148.62 133.938C145.032 130.907 141.736 131.1 137.042 131.108Z" fill="white"/>
<path fill-rule="evenodd" clip-rule="evenodd" d="M179.869 131.224C182.506 130.871 184.651 132.832 185.141 134.868C185.56 136.609 185.321 141.585 185.321 143.67C185.321 145.472 185.408 151.386 185.295 152.716C184.792 158.653 176.937 159.002 175.633 153.767C175.264 152.283 175.496 146.831 175.496 144.939C175.496 141.961 175.398 138.817 175.5 135.859C175.523 135.227 175.68 134.578 175.908 134.05C176.281 133.188 177.275 132.173 178.096 131.746C178.644 131.46 179.156 131.32 179.869 131.224ZM192.756 144.939C192.909 143.301 192.477 140.847 191.985 139.343C191.118 136.701 190.027 134.973 188.151 133.322C183.6 129.314 175.554 129.859 171.669 134.201C171.486 134.405 171.41 134.442 171.247 134.654C171.121 134.822 171.079 134.889 170.914 135.101C166.947 140.146 167.124 148.472 170.988 153.628C175.178 159.219 184.519 159.524 189.141 154.422C189.65 153.862 190.131 153.257 190.557 152.523C192.147 149.79 192.459 148.121 192.756 144.939Z" fill="white"/>
<path fill-rule="evenodd" clip-rule="evenodd" d="M56.0855 57.3964C55.8321 58.0046 56.0046 63.824 56.0046 64.9747C56.0046 67.5134 55.9307 70.1648 56.0046 72.6881L72.5743 72.6999L72.5603 55.3027L72.0277 55.3567C71.4119 55.311 65.0437 56.1846 63.954 56.3501C62.6355 56.5509 61.2877 56.6918 59.9752 56.8597C58.8608 57.003 57.0966 57.1369 56.0855 57.3964Z" fill="white"/>
<path fill-rule="evenodd" clip-rule="evenodd" d="M56.0352 90.3518L72.5827 91.9288L72.5651 75.1328H55.9941L56.0352 90.3518Z" fill="white"/>
<path fill-rule="evenodd" clip-rule="evenodd" d="M35.7348 88.4093L52.9427 90.0943L52.979 75.1055L35.6973 75.1336L35.7348 88.4093Z" fill="white"/>
<path fill-rule="evenodd" clip-rule="evenodd" d="M35.6649 72.7525L53.0288 72.7208L52.9947 57.7754L35.6367 60.0557L35.6649 72.7525Z" fill="white"/>
<path fill-rule="evenodd" clip-rule="evenodd" d="M105.16 131.272C105.16 131.794 105.234 131.676 105.776 131.733C108.682 132.042 108.365 134.318 108.365 136.446C108.365 139.039 108.529 142.213 108.36 144.732C108.01 144.575 105.504 140.371 105.096 139.718C104.045 138.034 103.015 136.389 101.948 134.669C99.3352 130.453 100.357 131.128 97.1499 131.128C95.9265 131.128 89.6205 130.989 89.041 131.232C89.0844 131.708 89.0563 131.666 89.6287 131.671C90.1612 131.676 92.0275 131.552 92.2058 131.76C92.3841 131.968 92.2738 150.564 92.2679 153.437C92.2585 158.148 88.9683 156.1 89.0621 157.439C89.4785 157.621 95.4632 157.616 95.9019 157.47C96.0145 157.21 95.9934 157.424 95.957 157.048C94.6233 156.484 92.7981 157.376 92.8157 153.337L92.8134 132.862C93.211 133.007 92.9682 132.792 93.2497 133.233L107.587 156.266C108.113 157.128 108.241 157.586 108.801 157.499C108.86 157.383 108.838 157.48 108.881 157.241L108.896 156.561C108.811 149.645 108.893 142.322 108.883 135.371C108.882 134.219 108.976 133.179 109.672 132.48C110.021 132.129 110.344 131.966 110.868 131.829C112.083 131.512 112.053 131.988 112.109 131.213C111.753 131.083 105.546 130.971 105.16 131.272Z" fill="#EFA35A"/>
<path fill-rule="evenodd" clip-rule="evenodd" d="M74.2282 131.658C74.6904 131.657 75.3472 131.731 75.678 131.579C75.6651 130.988 75.6112 131.118 74.9168 131.13C71.1702 131.197 65.887 130.968 62.4712 131.202C62.5252 131.801 62.619 131.679 63.3006 131.664C66.0477 131.598 65.7345 131.436 65.731 132.637C65.7075 140.722 65.799 148.917 65.7193 156.974L64.4747 156.988C63.8073 156.992 62.3434 156.833 62.4619 157.31C62.5428 157.634 63.1058 157.53 63.4988 157.53C66.9181 157.527 72.7549 157.669 75.6076 157.466C75.7249 157.216 75.7097 157.449 75.6651 157.062C74.9484 156.823 73.3027 157.101 72.3714 156.953L72.369 133.614C72.369 133.261 72.2271 131.81 72.5297 131.722C72.5485 131.717 72.5813 131.702 72.6048 131.696L72.8593 131.653C72.9719 131.644 73.2241 131.652 73.3485 131.653C73.6417 131.657 73.935 131.658 74.2282 131.658Z" fill="#EFA359"/>
<path fill-rule="evenodd" clip-rule="evenodd" d="M196.81 85.8812L196.825 74.1602L182.598 74.1789V87.9583L196.81 85.8812Z" fill="white"/>
<path fill-rule="evenodd" clip-rule="evenodd" d="M182.593 71.8764L196.832 71.9128C196.783 70.0717 197.039 61.1641 196.736 60.2259L182.59 58.2168L182.593 71.8764Z" fill="white"/>
<path fill-rule="evenodd" clip-rule="evenodd" d="M212.416 83.64L212.433 74.1582L199.18 74.1758L199.203 85.5551L212.416 83.64Z" fill="white"/>
<path fill-rule="evenodd" clip-rule="evenodd" d="M199.175 71.878L212.44 71.9144C212.399 70.4067 212.607 63.1994 212.37 62.442L199.172 60.5645L199.175 71.878Z" fill="white"/>
<path fill-rule="evenodd" clip-rule="evenodd" d="M51.3427 201.685C51.1574 202.145 51.0753 201.769 51.0729 201.766C50.8102 201.043 49.0612 196.566 48.7668 196.243L47.7252 196.239C47.6126 196.754 47.6149 202.801 47.7334 203.288L48.4442 203.261L48.4513 197.566C48.9322 198.096 50.5134 202.812 50.9838 203.304C51.4975 203.291 51.3967 203.268 51.5691 202.808L52.5122 200.531C52.9216 199.514 53.3368 198.54 53.718 197.549C53.7333 197.572 53.7473 197.603 53.7532 197.622C53.7602 197.641 53.7778 197.674 53.7849 197.697C53.9479 198.243 53.7309 202.328 53.8729 203.293L54.6271 203.28L54.5849 196.232L53.5069 196.257C53.2289 196.606 51.3474 201.303 51.3427 201.685Z" fill="white"/>
<path fill-rule="evenodd" clip-rule="evenodd" d="M150.668 196.955L153.457 196.952L153.459 202.568L149.757 202.581C150.053 201.657 150.402 201.276 150.541 200.081C150.666 199.003 150.653 198.037 150.668 196.955ZM148.86 203.293L154.301 203.319L154.305 204.997L155.057 204.941L155.021 202.598L154.234 202.539L154.182 196.23L149.946 196.242C149.726 197.194 149.96 198.919 149.736 200.118C149.629 200.696 149.492 201.193 149.263 201.692C148.332 203.728 147.847 201.057 148.107 204.964L148.844 204.977L148.86 203.293Z" fill="white"/>
<path fill-rule="evenodd" clip-rule="evenodd" d="M27.7723 196.956L30.5617 196.953L30.5629 202.568L26.8797 202.583C27.1647 201.683 27.5331 201.293 27.6679 200.087C27.7899 198.986 27.7536 198.063 27.7723 196.956ZM31.3934 202.594C31.3113 202.416 31.3793 202.799 31.3136 202.354L31.3019 196.29C30.177 196.32 27.9776 196.166 27.0099 196.366C26.9055 197.674 27.1119 198.898 26.8422 200.234C26.7295 200.794 26.5911 201.342 26.3589 201.784C26.3026 201.892 26.0316 202.342 25.9847 202.389C25.6434 202.739 25.7407 202.476 25.2422 202.642L25.2633 204.984L25.9483 204.977L25.9601 203.294L31.4039 203.321L31.4086 204.997L32.1605 204.942L32.1253 202.591L31.3934 202.594Z" fill="white"/>
<path fill-rule="evenodd" clip-rule="evenodd" d="M76.4037 197.002L79.1942 196.947L79.1977 202.558L75.4981 202.58C75.8066 201.691 76.1186 201.262 76.2629 200.106C76.4013 198.987 76.3626 198.117 76.4037 197.002ZM75.572 198.911C75.5814 199.7 75.4324 200.567 75.1837 201.255C74.5902 202.897 74.3521 202.462 73.8184 202.643L73.8324 204.991L74.5878 204.951L74.589 203.294L80.0153 203.295L80.027 204.963L80.7731 204.976L80.7191 202.584L79.9895 202.556L79.9778 196.338L75.6999 196.309C75.7045 196.753 75.8136 198.724 75.572 198.911Z" fill="white"/>
<path fill-rule="evenodd" clip-rule="evenodd" d="M205.776 196.268C205.617 197.293 205.742 199.446 205.742 200.592C205.739 202.947 205.457 203.368 206.284 203.31C206.737 203.278 206.706 203.193 206.91 202.869C207.225 202.369 210.053 197.843 210.419 197.56C210.471 198.625 210.423 199.807 210.423 200.886C210.424 203.56 210.197 203.319 211.142 203.285C211.255 202.798 211.256 196.7 211.142 196.238C209.962 196.204 210.231 196.415 209.644 197.307C209.307 197.821 208.959 198.331 208.631 198.828C208.258 199.393 206.952 201.588 206.57 201.869C206.498 200.836 206.555 199.599 206.555 198.543C206.557 196.059 206.776 196.086 205.776 196.268Z" fill="white"/>
<path fill-rule="evenodd" clip-rule="evenodd" d="M120.102 200.204C119.714 195.954 125.259 195.615 125.718 199.331C125.933 201.079 124.846 202.523 123.371 202.726C121.595 202.971 120.244 201.757 120.102 200.204ZM119.264 200.398C119.908 204.867 127.093 204.382 126.552 199.249C126.345 197.288 124.592 195.774 122.315 196.099C120.391 196.375 118.932 198.093 119.264 200.398Z" fill="white"/>
<path fill-rule="evenodd" clip-rule="evenodd" d="M36.8282 200.204C36.3731 195.986 42.0727 195.605 42.4457 199.325C42.868 203.535 37.2293 203.919 36.8282 200.204ZM36.0059 200.399C36.6405 204.89 43.7911 204.421 43.2808 199.239C42.8222 194.595 35.2669 195.169 36.0059 200.399Z" fill="white"/>
<path fill-rule="evenodd" clip-rule="evenodd" d="M159.241 203.265C160.336 203.398 160.235 203.03 160.755 202.264C161.238 201.55 163.601 197.732 163.856 197.587L163.896 203.292L164.648 203.279L164.599 196.249C164.104 196.205 163.866 196.148 163.601 196.518C162.955 197.416 160.324 201.759 159.971 201.942L159.921 196.244C158.92 196.169 159.212 196.438 159.217 197.469C159.224 198.893 159.134 202.278 159.241 203.265Z" fill="white"/>
<path fill-rule="evenodd" clip-rule="evenodd" d="M98.5845 196.979C98.71 197.179 98.6302 196.798 98.6912 197.273L98.6126 199.619C98.1528 199.737 97.476 199.709 97.1065 199.53C96.1083 199.511 95.3118 198.571 95.8936 197.579C96.3311 196.834 97.6766 196.88 98.5845 196.979ZM99.4267 196.262C98.9551 196.188 97.4126 196.205 96.9129 196.263C96.093 196.359 95.5675 196.658 95.2344 197.117C94.8754 197.611 94.8156 198.514 95.0971 199.136C95.4056 199.818 95.8221 199.913 96.5481 200.197C96.3229 201.023 94.9118 202.591 94.8203 203.296C95.9511 203.316 95.6027 203.426 96.6291 201.733C97.6531 200.045 97.2179 200.263 98.6431 200.271C98.6501 200.644 98.6056 202.964 98.656 203.109C98.7463 203.369 99.3798 203.485 99.4619 203.033C99.5581 202.507 99.4619 196.516 99.4267 196.262Z" fill="white"/>
<path fill-rule="evenodd" clip-rule="evenodd" d="M187.951 199.07C187.931 199.914 187.87 200.748 187.632 201.536C187.29 202.669 186.962 202.507 185.923 202.63L185.852 203.291C189.17 203.919 188.674 199.494 188.766 196.959L191.443 196.995C191.462 198.298 191.271 202.319 191.502 203.288H192.269L192.266 196.342L188.06 196.293L188.061 198.349C188.061 198.43 188.069 198.682 188.06 198.745L187.951 199.07Z" fill="white"/>
<path fill-rule="evenodd" clip-rule="evenodd" d="M131.689 199.996C132.997 199.868 134.906 199.845 134.824 201.372C134.749 202.779 132.951 202.67 131.682 202.634L131.689 199.996ZM133.68 203.182C135.118 203.287 136.099 201.719 135.437 200.348C134.83 199.093 133.141 199.355 131.68 199.244L131.697 196.974C132.297 196.898 133.189 196.95 133.824 196.95C134.593 196.951 135.459 197.213 135.095 196.297C134.624 196.092 131.696 196.18 131 196.25L130.992 203.208C131.873 203.257 132.831 203.223 133.68 203.182Z" fill="white"/>
<path fill-rule="evenodd" clip-rule="evenodd" d="M60.4596 200.732C60.5488 200.263 61.6948 197.478 61.947 197.302L63.3241 200.719L60.4596 200.732ZM58.5605 203.281C59.5025 203.35 59.3535 203.342 59.6573 202.604C60.2895 201.065 59.6198 201.427 63.6783 201.482C63.9211 202.055 64.1452 202.87 64.4889 203.292L65.2302 203.288C65.2103 202.911 62.5147 196.596 62.2309 196.238L61.5822 196.239C61.3007 196.68 58.5934 202.928 58.5605 203.281Z" fill="white"/>
<path fill-rule="evenodd" clip-rule="evenodd" d="M89.7311 196.967C89.7428 196.989 89.7651 196.995 89.7686 197.032L89.832 197.272C89.9059 198.016 89.751 201.958 89.8402 203.22L90.5123 203.217L90.5135 196.293C89.4578 196.29 87.2361 196.179 86.3106 196.355C86.2262 197.68 86.3869 199.042 86.2004 200.377C85.988 201.892 85.8309 202.62 84.2544 202.602L84.1992 203.299C87.493 203.821 87.0297 199.61 87.0742 196.953L89.7311 196.967Z" fill="white"/>
<path fill-rule="evenodd" clip-rule="evenodd" d="M178.758 202.542L178.759 199.977L182.112 199.967L182.077 199.259L178.755 199.26L178.759 196.955C179.516 196.945 180.275 196.951 181.032 196.951C181.806 196.951 182.664 197.215 182.303 196.296C181.862 196.105 178.835 196.208 178.105 196.242C177.815 196.787 177.959 202.205 177.996 203.226L182.403 203.23L182.398 202.648C181.781 202.633 181.162 202.643 180.544 202.643C179.773 202.644 179.093 202.732 178.758 202.542Z" fill="white"/>
<path fill-rule="evenodd" clip-rule="evenodd" d="M201.474 203.131L201.447 202.58L197.771 202.584L197.781 199.974L201.116 199.969L201.082 199.257L197.771 199.266L197.789 196.956C198.586 196.935 200.783 197.103 201.366 196.889L201.376 196.395C200.87 196.147 197.782 196.258 197.023 196.297L197.026 203.219C197.83 203.242 200.935 203.381 201.474 203.131Z" fill="white"/>
<path fill-rule="evenodd" clip-rule="evenodd" d="M109.643 203.267C110.562 203.418 110.393 203.214 110.383 202.352L110.394 196.95L114.116 196.968L114.153 203.296L114.8 203.269L114.798 196.293L109.645 196.309L109.643 203.267Z" fill="white"/>
<path fill-rule="evenodd" clip-rule="evenodd" d="M140.857 202.521L140.858 199.976L144.268 199.967L144.232 199.259L140.848 199.244L140.866 196.952L144.467 196.945L144.426 196.23L140.167 196.25L140.156 203.21L144.546 203.219L144.555 202.657L141.723 202.65C141.008 202.647 141.061 202.717 140.857 202.521Z" fill="white"/>
<path fill-rule="evenodd" clip-rule="evenodd" d="M170.923 196.953L170.945 203.279L171.655 203.281L171.685 196.952L174 196.94L173.97 196.234H169.133C168.837 196.234 168.735 196.154 168.606 196.363C168.529 196.49 168.57 196.808 168.64 196.878C168.79 197.03 170.571 196.952 170.923 196.953Z" fill="white"/>
<path fill-rule="evenodd" clip-rule="evenodd" d="M56.0346 90.3513L55.9935 75.1323H72.5645L72.5821 91.9283C72.7545 91.6359 72.6736 90.2163 72.6736 89.871C72.6736 87.7845 72.7698 75.8368 72.629 75.0713C71.9369 74.9456 56.5683 74.9527 55.9372 75.0783C55.7918 75.757 55.8845 86.7371 55.8856 88.6017C55.8856 89.1982 55.7718 90.2045 56.0346 90.3513Z" fill="white"/>
<path fill-rule="evenodd" clip-rule="evenodd" d="M35.7355 88.4084L35.698 75.1327L52.9797 75.1045L52.9434 90.0934C53.1275 89.8151 53.0712 89.5661 53.0665 89.188C53.0419 86.8854 53.1674 75.8795 53.022 75.0728C52.3874 74.9331 36.383 74.9331 35.6499 75.0787C35.454 75.9969 35.6264 85.1534 35.5947 87.7261C35.5842 88.561 35.6241 88.3344 35.7355 88.4084Z" fill="white"/>
<path fill-rule="evenodd" clip-rule="evenodd" d="M56.0853 57.3963C55.8694 57.5184 55.9597 57.239 55.8835 57.7427C55.8776 57.7756 55.8882 58.1701 55.8882 58.2371C55.9175 60.6395 55.7885 71.919 55.9339 72.7867L72.6281 72.7456C72.7735 71.9953 72.7653 55.9603 72.6187 55.2522C72.2996 55.2017 72.2351 55.1818 72.0275 55.3567L72.56 55.3027L72.5741 72.6998L56.0043 72.6881C55.9304 70.1647 56.0043 67.5133 56.0043 64.9747C56.0043 63.824 55.8319 58.0046 56.0853 57.3963Z" fill="white"/>
<path fill-rule="evenodd" clip-rule="evenodd" d="M196.81 85.8811C196.949 85.7144 196.86 86.0843 196.939 85.5794L196.935 84.404C196.938 82.3573 197.05 74.9668 196.892 74.0956C196.081 73.95 185.591 74.0744 183.372 74.0474C183.05 74.0439 182.74 73.9676 182.598 74.1789L196.825 74.1602L196.81 85.8811Z" fill="#665A3D"/>
<path fill-rule="evenodd" clip-rule="evenodd" d="M212.416 83.6369C212.559 83.4667 212.494 83.6686 212.547 83.3305L212.542 82.449C212.541 80.7575 212.641 74.8685 212.499 74.0961C211.8 73.9682 203.799 74.048 202.394 74.048C202.051 74.048 199.366 73.9036 199.18 74.176L212.433 74.1583L212.416 83.6369Z" fill="white"/>
<path fill-rule="evenodd" clip-rule="evenodd" d="M182.594 71.8771C182.812 72.0932 182.735 72.0086 183.471 72.0016C185.638 71.9804 196.141 72.0967 196.89 71.9628C197.052 71.1162 196.93 64.7766 196.93 63.0212C196.93 62.3707 197.078 60.3416 196.737 60.2266C197.039 61.1648 196.784 70.0723 196.833 71.9135L182.594 71.8771Z" fill="white"/>
<path fill-rule="evenodd" clip-rule="evenodd" d="M199.176 71.8742C199.329 72.0256 199.109 71.981 199.558 72.0115C200.824 72.0996 212.285 71.9974 212.496 71.9599C212.635 71.2427 212.535 65.1881 212.536 63.5096C212.536 63.1257 212.652 62.5928 212.371 62.4414C212.608 63.1985 212.399 70.4034 212.44 71.9106L199.176 71.8742Z" fill="#5C513C"/>
<path fill-rule="evenodd" clip-rule="evenodd" d="M208.619 195.017C207.873 195.125 207.725 194.658 207.508 194.246C206.849 194.292 206.88 194.528 207.228 195.07C207.796 195.953 209.961 195.9 209.915 194.275C208.99 194.21 209.511 194.889 208.619 195.017Z" fill="white"/>
<path fill-rule="evenodd" clip-rule="evenodd" d="M109.643 203.267L109.646 196.31L114.799 196.293L114.801 203.269C114.867 203.142 114.825 203.396 114.895 203.034L114.904 202.35C114.894 201.008 114.986 196.922 114.853 196.199L109.582 196.25C109.436 197.043 109.537 198.905 109.537 199.812C109.537 200.513 109.409 202.844 109.643 203.267Z" fill="white"/>
<path fill-rule="evenodd" clip-rule="evenodd" d="M89.731 196.966L89.7744 203.312L90.5697 203.281C90.6706 202.749 90.6706 196.728 90.5638 196.246C90.0653 196.138 88.0747 196.203 87.2982 196.201C87.1469 196.201 86.8361 196.179 86.707 196.191C86.2789 196.229 86.4454 196.148 86.3105 196.354C87.236 196.178 89.4577 196.29 90.5134 196.292L90.5122 203.217L89.8401 203.219C89.751 201.957 89.9058 198.015 89.8319 197.271L89.7685 197.032C89.765 196.994 89.7427 196.988 89.731 196.966Z" fill="white"/>
<path fill-rule="evenodd" clip-rule="evenodd" d="M140.858 202.521C141.062 202.717 141.009 202.646 141.725 202.65L144.556 202.657L144.547 203.219L140.158 203.21L140.168 196.25C140.11 196.363 140.14 196.137 140.076 196.491C139.966 197.083 140.092 203.24 140.103 203.321L144.633 203.28L144.606 202.551L140.858 202.521Z" fill="white"/>
<path fill-rule="evenodd" clip-rule="evenodd" d="M178.76 202.542C179.094 202.732 179.774 202.644 180.545 202.643C181.163 202.643 181.783 202.634 182.4 202.648L182.404 203.23L177.997 203.226C177.961 202.205 177.817 196.787 178.106 196.242C177.919 196.341 177.894 196.012 177.907 197.078C177.91 197.37 177.908 197.665 177.908 197.957C177.909 198.543 177.909 199.129 177.909 199.714C177.908 200.704 177.813 202.382 177.944 203.326L182.482 203.283L182.454 202.546L178.76 202.542Z" fill="white"/>
<path fill-rule="evenodd" clip-rule="evenodd" d="M201.474 203.133C200.936 203.383 197.831 203.243 197.026 203.221L197.024 196.299C197.783 196.259 200.87 196.148 201.377 196.396C201.246 196.143 201.466 196.212 200.938 196.184L196.928 196.248L196.976 203.283C197.579 203.394 198.619 203.331 199.273 203.332C199.946 203.332 201.379 203.475 201.474 203.133Z" fill="white"/>
<path fill-rule="evenodd" clip-rule="evenodd" d="M133.68 203.181C132.832 203.222 131.873 203.257 130.992 203.207L131.001 196.25C130.762 196.709 130.905 203.09 130.932 203.287C131.331 203.336 133.555 203.438 133.68 203.181Z" fill="white"/>
<path fill-rule="evenodd" clip-rule="evenodd" d="M31.3933 202.595L31.3604 196.247C30.7915 196.126 29.7909 196.206 29.1669 196.204C28.7763 196.204 28.3857 196.207 27.9963 196.206C27.8496 196.204 27.5259 196.183 27.4039 196.195C26.9511 196.236 27.14 196.152 27.0098 196.366C27.9775 196.167 30.1769 196.321 31.3018 196.29L31.3135 202.354C31.3792 202.799 31.3111 202.416 31.3933 202.595Z" fill="#5D5233"/>
<path fill-rule="evenodd" clip-rule="evenodd" d="M187.951 199.069L188.06 198.744C188.068 198.68 188.061 198.429 188.061 198.348L188.06 196.292L192.265 196.341C192.027 196.11 191.661 196.194 191.176 196.197C190.399 196.203 188.508 196.149 187.968 196.248L187.951 199.069Z" fill="white"/>
<path fill-rule="evenodd" clip-rule="evenodd" d="M75.5723 198.91C75.8139 198.724 75.7048 196.753 75.7001 196.308L79.978 196.337C79.8209 196.157 80.0367 196.28 79.781 196.207C79.7786 196.206 79.5182 196.191 79.503 196.189L75.6098 196.248L75.5723 198.91Z" fill="white"/>
<path fill-rule="evenodd" clip-rule="evenodd" d="M97.1074 199.529C97.4769 199.708 98.1537 199.736 98.6135 199.618L98.6921 197.272C98.6311 196.797 98.7109 197.178 98.5854 196.979L98.5889 199.548L97.1074 199.529Z" fill="#776A55"/>
<path fill-rule="evenodd" clip-rule="evenodd" d="M39.3068 148.749C39.2211 148.799 39.1296 148.879 39.1156 148.853C39.1003 148.828 39.0475 148.87 39.0088 148.895L38.7637 148.674C38.9115 149.015 38.8599 148.956 39.1402 149.067L39.3068 148.749Z" fill="#E7B888"/>
<path fill-rule="evenodd" clip-rule="evenodd" d="M238.104 74.8231L237.939 74.8795C238.066 75.0168 237.724 75.0708 238.095 75.0016C238.428 74.5954 238.118 74.8407 238.104 74.8231Z" fill="#8E846F"/>
<path fill-rule="evenodd" clip-rule="evenodd" d="M0.285022 74.2075L0.247486 74.1641C0.0152321 74.3214 0.111418 74.1371 0.0175781 74.4587C0.279157 74.3566 0.161857 74.4305 0.285022 74.2075Z" fill="#504732"/>
<path fill-rule="evenodd" clip-rule="evenodd" d="M51.0742 201.768C51.0766 201.772 51.1587 202.148 51.344 201.688L51.0742 201.768Z" fill="#675A46"/>
</g>
<defs>
<clipPath id="clip0_385_1593">
<rect width="239" height="205" fill="white"/>
</clipPath>
</defs>
</svg>
