<svg width="32" height="32" viewBox="0 0 32 32" fill="none" xmlns="http://www.w3.org/2000/svg">
<path d="M15.9375 0C12.7854 0 9.70401 0.929395 7.08311 2.67066C4.4622 4.41192 2.41945 6.88684 1.21318 9.78246C0.0069052 12.6781 -0.30871 15.8643 0.306242 18.9383C0.921194 22.0123 2.43909 24.8359 4.66799 27.0521C6.89689 29.2683 9.73668 30.7775 12.8283 31.389C15.9198 32.0004 19.1243 31.6866 22.0365 30.4872C24.9487 29.2878 27.4378 27.2567 29.1891 24.6507C30.9403 22.0447 31.875 18.9809 31.875 15.8467C31.87 11.6454 30.1893 7.61762 27.2015 4.64685C24.2138 1.67608 20.1629 0.00493401 15.9375 0ZM15.9375 29.8292C13.1562 29.8292 10.4374 29.0091 8.1248 27.4727C5.81223 25.9363 4.00981 23.7525 2.94545 21.1976C1.88109 18.6426 1.60261 15.8312 2.14521 13.1189C2.68782 10.4066 4.02714 7.91515 5.99382 5.95968C7.96049 4.0042 10.4662 2.67251 13.194 2.13299C15.9219 1.59348 18.7494 1.87037 21.319 2.92867C23.8886 3.98697 26.0848 5.77913 27.63 8.07852C29.1753 10.3779 30 13.0813 30 15.8467C29.9959 19.5538 28.513 23.1079 25.8766 25.7293C23.2403 28.3506 19.6658 29.825 15.9375 29.8292ZM25.625 15.8467C25.625 16.094 25.5262 16.3311 25.3504 16.5059C25.1746 16.6807 24.9361 16.7789 24.6875 16.7789H15.9375C15.6889 16.7789 15.4504 16.6807 15.2746 16.5059C15.0988 16.3311 15 16.094 15 15.8467V7.14657C15 6.89934 15.0988 6.66225 15.2746 6.48743C15.4504 6.31262 15.6889 6.21441 15.9375 6.21441C16.1861 6.21441 16.4246 6.31262 16.6004 6.48743C16.7762 6.66225 16.875 6.89934 16.875 7.14657V14.9146H24.6875C24.9361 14.9146 25.1746 15.0128 25.3504 15.1876C25.5262 15.3624 25.625 15.5995 25.625 15.8467Z" fill="#EFA35A"/>
</svg>
