<svg width="84" height="84" viewBox="0 0 84 84" fill="none" xmlns="http://www.w3.org/2000/svg">
<circle cx="42" cy="42" r="42" fill="white"/>
<path d="M55.4532 49.079C55.2335 49.2985 54.9356 49.4218 54.6251 49.4218C54.3145 49.4218 54.0167 49.2985 53.7969 49.079L39.0001 34.2841L24.2032 49.079C23.981 49.286 23.6872 49.3987 23.3836 49.3934C23.08 49.388 22.7904 49.265 22.5757 49.0503C22.3609 48.8356 22.238 48.546 22.2326 48.2424C22.2272 47.9388 22.3399 47.6449 22.5469 47.4228L38.1719 31.7978C38.3917 31.5783 38.6895 31.4551 39.0001 31.4551C39.3106 31.4551 39.6085 31.5783 39.8282 31.7978L55.4532 47.4228C55.6726 47.6425 55.7959 47.9404 55.7959 48.2509C55.7959 48.5615 55.6726 48.8593 55.4532 49.079Z" fill="black"/>
</svg>
