<svg width="55" height="55" viewBox="0 0 55 55" fill="none" xmlns="http://www.w3.org/2000/svg">
<path d="M22.2846 15.5C22.472 15.498 22.6577 15.5303 22.8299 15.5949C23.0022 15.6595 23.157 15.7549 23.2846 15.875L36.1417 27.125C36.7132 27.625 36.7132 28.4 36.1417 28.9L23.2846 40.125C22.7132 40.625 21.8275 40.625 21.256 40.125C20.6846 39.625 20.6846 38.85 21.256 38.35L33.1132 28L21.256 17.625C20.6846 17.125 20.6846 16.35 21.256 15.85C21.5417 15.6 21.9132 15.475 22.256 15.475L22.2846 15.5Z" fill="#EFA35A"/>
<circle cx="27.5" cy="27.5" r="27" transform="rotate(-180 27.5 27.5)" stroke="#353535"/>
</svg>
