<svg width="33" height="34" viewBox="0 0 33 34" fill="none" xmlns="http://www.w3.org/2000/svg">
<path d="M17.2518 -4.74453e-05C21.8058 -4.74453e-05 25.4858 1.42595 28.2918 4.32395C31.0978 7.17595 32.4778 10.81 32.4778 15.272C32.4778 20.24 30.8218 24.472 27.5098 28.014C24.2438 31.556 20.1498 33.304 15.2278 33.304C10.6738 33.304 6.99375 31.878 4.18775 28.98C1.38175 26.082 0.00175016 22.448 0.00175016 17.986C0.00175016 13.018 1.65775 8.78595 4.92375 5.28995C8.23575 1.74795 12.3298 -4.74453e-05 17.2518 -4.74453e-05ZM15.3198 30.13C19.1378 30.13 22.4038 28.704 25.0258 25.852C27.6938 23 29.0278 19.504 29.0278 15.318C29.0278 11.868 27.9238 8.96995 25.7618 6.66995C23.5998 4.32395 20.7018 3.17395 17.1598 3.17395C13.3418 3.17395 10.0758 4.59995 7.40775 7.45195C4.78575 10.258 3.45175 13.754 3.45175 17.94C3.45175 21.436 4.55575 24.334 6.71775 26.68C8.87975 28.98 11.7778 30.13 15.3198 30.13Z" fill="#EFA359"/>
</svg>
